<svg preserveAspectRatio="none" width="100%" height="100%" overflow="visible" style="display: block;" viewBox="0 0 42.5 52.5" fill="none" xmlns="http://www.w3.org/2000/svg">
<g id="Frame 2147226015">
<path id="Vector" d="M28.75 1.25H6.25C4.92392 1.25 3.65215 1.77678 2.71447 2.71447C1.77678 3.65215 1.25 4.92392 1.25 6.25V46.25C1.25 47.5761 1.77678 48.8479 2.71447 49.7855C3.65215 50.7232 4.92392 51.25 6.25 51.25H36.25C37.5761 51.25 38.8479 50.7232 39.7855 49.7855C40.7232 48.8479 41.25 47.5761 41.25 46.25V13.75L28.75 1.25Z" stroke="var(--stroke-0, white)" stroke-width="2.5" stroke-linecap="round" stroke-linejoin="round"/>
<path id="Vector_2" d="M26.8056 1.25V11.0985C26.8056 12.4045 27.3128 13.657 28.2158 14.5805C29.1187 15.5039 30.3434 16.0227 31.6204 16.0227H41.25" stroke="var(--stroke-0, white)" stroke-width="2.5" stroke-linecap="round" stroke-linejoin="round"/>
<path id="Vector_3" d="M16.8056 19.4318H11.25" stroke="var(--stroke-0, white)" stroke-width="2.5" stroke-linecap="round" stroke-linejoin="round"/>
<path id="Vector_4" d="M31.25 28.5227H11.25" stroke="var(--stroke-0, white)" stroke-width="2.5" stroke-linecap="round" stroke-linejoin="round"/>
<path id="Vector_5" d="M31.25 38.75H11.25" stroke="var(--stroke-0, white)" stroke-width="2.5" stroke-linecap="round" stroke-linejoin="round"/>
</g>
</svg>
