<svg preserveAspectRatio="none" width="100%" height="100%" overflow="visible" style="display: block;" viewBox="0 0 49.5006 49.5006" fill="none" xmlns="http://www.w3.org/2000/svg">
<g id="Frame 2147226016">
<path id="Vector" d="M45.9968 24.7482C47.2998 24.7482 48.3691 23.6883 48.2393 22.3922C47.6951 16.9724 45.2936 11.9075 41.4418 8.05626C37.5901 4.205 32.5252 1.80436 27.1058 1.2613C25.8075 1.13146 24.75 2.20088 24.75 3.504V22.3899C24.75 23.016 24.9987 23.6164 25.4414 24.0592C25.8841 24.5019 26.4845 24.7506 27.1105 24.7506L45.9968 24.7482Z" stroke="var(--stroke-0, white)" stroke-width="2.5" stroke-linecap="round" stroke-linejoin="round"/>
<path id="Vector_2" d="M47.2708 33.9021C45.7468 37.4379 43.3631 40.5536 40.328 42.9768C37.293 45.4 33.6991 47.0569 29.8605 47.8028C26.0219 48.5486 22.0555 48.3606 18.3081 47.2552C14.5607 46.1498 11.1464 44.1607 8.36361 41.4617C5.58084 38.7628 3.51438 35.4362 2.34489 31.7727C1.1754 28.1093 0.938485 24.2205 1.65486 20.4465C2.37124 16.6725 4.0191 13.1281 6.45436 10.1232C8.88963 7.11827 12.0382 4.74434 15.6247 3.20894" stroke="var(--stroke-0, white)" stroke-width="2.5" stroke-linecap="round" stroke-linejoin="round"/>
</g>
</svg>
