<svg width="777" height="340" viewBox="0 0 777 340" fill="none" xmlns="http://www.w3.org/2000/svg">
<g opacity="0.5">
<path d="M261.322 51.3275L265.549 47.1008C262.795 45.5045 260.029 44.1555 257.219 43.0764C258.163 45.7518 259.557 48.4947 261.322 51.3275Z" fill="#7892A3"/>
<path d="M286.244 80.0372L294.169 72.1121C284.76 61.7139 275.734 53.2493 266.471 47.6511L261.896 52.2263C267.28 60.5111 275.868 69.5603 286.244 80.0372Z" fill="#7892A3"/>
<path d="M287.458 65.0528L291.573 69.864C291.573 69.864 296.226 66.975 298.924 70.3024C298.924 70.3024 298.508 60.1066 287.458 65.0528Z" fill="#7892A3"/>
<path d="M279.702 72.7981L284.513 76.9124C284.513 76.9124 281.624 81.5663 284.951 84.2642C284.951 84.2642 274.744 83.8483 279.702 72.7981Z" fill="#7892A3"/>
<path d="M296.796 71.9499L298.267 73.4205L287.838 83.8493L286.368 82.3787L296.796 71.9499Z" fill="#7892A3"/>
<path d="M270.63 58.1962C271.158 58.7246 272.024 58.7246 272.552 58.1962C273.08 57.6679 273.08 56.8023 272.552 56.274C272.024 55.7456 271.158 55.7456 270.63 56.274C270.101 56.8023 270.101 57.6679 270.63 58.1962Z" fill="#003659"/>
<path d="M276.318 63.8844C276.846 64.4127 277.712 64.4127 278.24 63.8844C278.768 63.356 278.768 62.4905 278.24 61.9621C277.712 61.4338 276.846 61.4338 276.318 61.9621C275.789 62.4905 275.789 63.356 276.318 63.8844Z" fill="#003659"/>
<path d="M282.017 69.5835C282.546 70.1118 283.411 70.1118 283.939 69.5835C284.468 69.0551 284.468 68.1895 283.939 67.6612C283.411 67.1329 282.546 67.1329 282.017 67.6612C281.489 68.1895 281.489 69.0551 282.017 69.5835Z" fill="#003659"/>
<path d="M349.817 163.044C350.244 159.986 352.852 157.625 356.033 157.625C357.596 157.625 359.034 158.21 360.125 159.154C361.271 157.569 363.115 156.535 365.228 156.535C366.341 156.535 367.387 156.827 368.286 157.333C368.893 154.5 371.411 152.376 374.424 152.376C376.526 152.376 378.392 153.421 379.527 155.006C381.056 153.466 383.181 152.522 385.519 152.522C386.665 152.522 387.756 152.758 388.745 153.163C388.981 149.914 391.69 147.34 394.995 147.34C397.48 147.34 399.627 148.79 400.638 150.892C402.088 149.723 403.932 149.015 405.944 149.015C407.428 149.015 408.811 149.397 410.025 150.06C412.149 148.486 414.78 147.553 417.624 147.553C419.4 147.553 421.097 147.913 422.637 148.576C423.964 142.899 429.045 138.661 435.138 138.661C437.307 138.661 439.342 139.201 441.129 140.145C442.748 137.672 445.536 136.031 448.717 136.031C452.64 136.031 455.968 138.526 457.227 142.022C457.98 136.098 463.027 131.512 469.165 131.512C471.177 131.512 473.077 132.018 474.752 132.895C477.281 128.072 482.126 124.655 487.826 124.138C487.702 123.598 487.634 123.036 487.634 122.463C487.634 118.27 491.029 114.875 495.222 114.875C496.166 114.875 497.077 115.055 497.909 115.369C499.629 108.782 505.609 103.926 512.736 103.926C514.861 103.926 516.895 104.364 518.728 105.151C518.93 94.8542 527.338 86.5581 537.692 86.5581C548.045 86.5581 555.869 94.2921 556.599 104.083C559.331 101.543 562.996 99.9802 567.02 99.9802C575.136 99.9802 581.78 106.298 582.308 114.279C583.466 113.829 584.725 113.571 586.04 113.571C590.942 113.571 595.033 116.977 596.113 121.541C599.148 119.574 633.078 129.231 635.888 170.262L606.634 178.568C604.352 179.636 601.823 180.254 599.136 180.254C592.83 180.254 587.299 176.972 584.129 172.037C578.913 179.973 569.932 185.211 559.725 185.211C553.71 185.211 548.124 183.39 543.481 180.276C541.132 183.109 537.579 184.919 533.6 184.919C529.958 184.919 526.675 183.39 524.337 180.962C522.01 184.739 517.851 187.269 513.096 187.269C508.88 187.269 505.137 185.29 502.72 182.221C500.247 187.122 495.166 190.472 489.298 190.472C483.037 190.472 477.686 186.65 475.415 181.221C472.672 184.222 468.727 186.099 464.331 186.099C461.262 186.099 458.396 185.178 456.024 183.593C454.304 184.447 452.371 184.942 450.313 184.942C444.457 184.942 439.522 181.018 437.982 175.656C435.621 178.467 432.091 180.265 428.123 180.265C426.089 180.265 424.178 179.782 422.469 178.939C421.39 179.894 419.973 180.479 418.411 180.479C415.814 180.479 413.599 178.86 412.711 176.578C409.98 177.073 407.001 177.343 403.898 177.343C399.919 177.343 396.153 176.904 392.826 176.117C385.676 184.042 375.323 179.096 373.873 174.487C368.781 174.083 364.318 173.138 361.024 171.857C360.102 172.891 358.765 173.554 357.258 173.554C355.01 173.554 353.11 172.082 352.458 170.047C352.189 170.047 351.907 170.047 351.638 170.047C338.092 170.047 327.12 168.484 327.12 166.54C327.12 164.595 337.125 163.179 349.805 163.044H349.817Z" fill="#F2F2F2"/>
<path d="M16.4124 183.766C16.4124 180.214 28.9801 177.313 44.8864 177.066C44.8864 176.976 44.8752 176.886 44.8752 176.785C44.8752 170.355 49.6752 165.162 55.5881 165.162C57.9825 165.162 60.1858 166.027 61.9732 167.466C62.0069 167.41 62.0293 167.365 62.063 167.32C64.4574 154.437 74.9343 144.747 87.502 144.747C89.6491 144.747 91.7175 145.062 93.7072 145.591C96.2253 139.61 101.767 135.44 108.22 135.44C112.941 135.44 117.168 137.677 120.09 141.218C123.362 136.159 128.769 132.854 134.884 132.854C135.772 132.854 136.649 132.944 137.503 133.079C136.896 130.696 136.548 128.2 136.548 125.615C136.548 110.057 148.171 97.4442 162.504 97.4442C170.002 97.4442 176.735 100.918 181.479 106.437C184.919 97.804 192.821 91.7562 202.039 91.7562C209.919 91.7562 216.833 96.1852 220.823 102.863C223.521 98.2086 228.276 95.1173 233.717 95.1173C235.212 95.1173 236.651 95.3646 238.022 95.7918C241.462 88.7772 248.275 83.9997 256.098 83.9997C263.922 83.9997 270.307 88.4962 273.837 95.151C274.118 95.1398 274.388 95.1061 274.669 95.1061C280.256 95.1061 285.135 98.3885 287.788 103.256C292.486 98.3773 298.849 95.3646 305.863 95.3646C313.575 95.3646 320.5 99.0068 325.288 104.774C332.022 99.5126 340.273 96.3988 349.199 96.3988C361.485 96.3988 372.49 102.278 380 111.563C382.956 110.136 386.227 109.315 389.678 109.315C402.831 109.315 413.487 120.882 413.487 135.159C413.487 135.698 413.442 136.227 413.409 136.755C414.656 136.406 415.949 136.193 417.298 136.193C423.166 136.193 428.258 139.801 430.81 145.085C433.913 143.376 437.409 142.398 441.118 142.398C450.943 142.398 459.295 149.143 462.533 158.585C463.162 158.484 463.803 158.417 464.455 158.417C471.346 158.417 477.012 164.094 477.72 171.367C477.9 171.356 478.08 171.333 478.271 171.333C482.486 171.333 486.016 174.458 487.016 178.685C488.039 178.617 489.096 178.561 490.175 178.561C498.763 178.561 505.969 181.001 508.094 184.294C508.779 184.26 509.476 184.249 510.185 184.249C520.437 184.249 528.755 187.712 528.755 192.006C528.755 196.3 520.437 199.762 510.185 199.762C508.858 199.762 507.565 199.706 506.318 199.594C503.271 202.145 496.987 203.899 489.703 203.899C488.984 203.899 488.287 203.876 487.59 203.843C486.747 208.013 483.318 211.138 479.226 211.138C478.293 211.138 477.394 210.97 476.551 210.666C473.606 215.017 468.873 217.849 463.511 217.849C460.824 217.849 458.306 217.13 456.069 215.871C453.675 218.366 450.426 219.918 446.84 219.918C443.254 219.918 439.927 218.344 437.521 215.781C433.328 221.447 426.909 225.077 419.692 225.077C413.757 225.077 408.372 222.604 404.303 218.58C402.415 223.02 398.289 226.112 393.489 226.112C389.195 226.112 385.452 223.639 383.361 219.951C379.921 222.211 375.897 223.526 371.591 223.526C366.285 223.526 361.418 221.548 357.528 218.254C355.348 220.851 352.222 222.503 348.726 222.503C345.23 222.503 342.218 220.918 340.048 218.411C336.743 223.976 330.988 227.674 324.434 227.674C319.263 227.674 314.587 225.381 311.214 221.671C305.02 226.932 295.96 230.26 285.854 230.26C273.421 230.26 262.551 225.224 256.683 217.737C253.097 224.156 246.611 228.461 239.18 228.461C236.707 228.461 234.347 227.966 232.155 227.09C229.434 231.935 224.544 235.183 218.935 235.183C213.325 235.183 208.514 231.991 205.783 227.213C199.656 232.058 192.102 234.925 183.93 234.925C171.159 234.925 159.907 227.933 153.218 217.287C149.138 221.93 143.405 224.841 137.02 224.841C130.635 224.841 124.407 221.671 120.304 216.669C118.831 217.265 117.246 217.602 115.583 217.602C113.683 217.602 111.873 217.175 110.221 216.399C105.78 217.816 100.677 218.636 95.2248 218.636C79.7006 218.636 66.8969 212.083 64.9184 203.607C64.6598 203.629 64.4013 203.652 64.1427 203.652C60.5005 203.652 57.2968 201.684 55.3633 198.672C53.857 199.537 52.1483 200.032 50.3384 200.032C45.0101 200.032 40.6035 195.805 39.7717 190.275C26.3721 189.555 16.4011 186.913 16.4011 183.755L16.4124 183.766Z" fill="white"/>
<path d="M209.41 202.702C213.671 202.252 218.223 202.027 222.754 201.982C222.945 199.588 224.294 197.34 226.564 196.114C230.117 194.203 234.557 195.519 236.479 199.082C237.333 186.807 271.406 179.713 277.251 191.213C277.847 186.795 280.432 182.704 284.659 180.422C291.663 176.644 300.397 179.252 304.174 186.256C304.275 186.447 304.32 186.638 304.41 186.829C306.546 186.334 308.704 185.997 310.885 185.829C310.188 181.838 312.02 177.679 315.786 175.644C320.283 173.227 325.813 174.745 328.511 178.994C330.006 177.769 331.614 176.667 333.379 175.723C337.729 173.373 342.406 172.215 347.048 172.081C349.555 165.347 354.4 159.445 361.223 155.769C373.184 149.317 387.505 151.621 396.881 160.468C396.914 154.612 399.983 148.957 405.491 145.978C410.82 143.101 417.003 143.505 421.848 146.417C423.107 138.537 427.862 131.308 435.427 127.217C445.297 121.888 457.055 123.485 465.138 130.319C467.397 125.755 471.017 121.821 475.839 119.213C488.216 112.536 503.673 117.144 510.361 129.532C510.642 130.049 510.867 130.578 511.114 131.106C513.318 128.993 515.813 127.127 518.635 125.598C535.609 116.448 556.799 122.765 565.96 139.751C567.624 142.831 568.76 146.068 569.434 149.328C578.809 149.193 587.948 154.139 592.703 162.964C594.041 165.448 594.929 168.056 595.401 170.698C600.921 169.529 606.631 171.181 610.667 175.104C611.735 174.228 612.904 173.429 614.163 172.755C624.494 167.179 637.309 170.765 643.312 180.714C643.638 180.466 643.975 180.219 644.346 180.017C648.235 177.915 653.103 179.365 655.205 183.266C656.104 184.941 656.318 186.784 656.003 188.515C657.037 188.763 658.049 189.089 659.027 189.504C659.724 187.987 660.882 186.66 662.478 185.795C666.367 183.693 671.235 185.143 673.337 189.044C674.18 190.606 674.427 192.315 674.203 193.945C675.54 194.237 676.833 194.675 678.047 195.282C681.431 194.574 685.017 196.092 686.737 199.284C686.916 199.622 687.04 199.97 687.164 200.319C688.164 200.094 689.21 199.948 690.311 199.948C694.212 199.948 697.573 201.431 699.428 203.635C699.72 203.635 700.001 203.635 700.293 203.635C711.242 203.635 720.123 205.332 720.123 207.446C720.123 209.559 711.254 211.256 700.293 211.256C700.001 211.256 699.72 211.256 699.439 211.256C697.584 213.46 694.223 214.943 690.322 214.943C688.119 214.943 686.073 214.471 684.376 213.662C683.004 216.146 680.812 218.293 677.89 219.71C673.584 221.801 668.683 221.812 664.501 220.216C663.343 221.317 662.039 222.284 660.567 223.082C654.766 226.207 648.055 225.937 642.682 222.97C641.322 224.442 639.703 225.713 637.848 226.724C629.35 231.311 618.907 228.714 613.455 221.025C612.016 225.252 609.059 228.973 604.821 231.266C596.053 236.01 585.149 232.84 580.226 224.229C577.247 228.309 573.368 231.828 568.636 234.391C553.696 242.462 535.508 238.516 525.121 225.892C523.12 229.343 520.197 232.311 516.431 234.335C505.584 240.203 492.038 236.144 486.181 225.297C486.091 225.139 486.035 224.971 485.956 224.813C484.495 229.242 481.426 233.143 476.997 235.537C467.813 240.506 456.336 237.066 451.378 227.882C451.041 227.264 450.749 226.623 450.49 225.982C447.714 230.209 443.892 233.817 439.125 236.381C424.467 244.306 406.346 239.371 397.566 225.499C395.723 228.399 393.149 230.895 389.911 232.637C381.413 237.235 371.149 235.256 364.866 228.489C364.135 228.973 363.393 229.433 362.606 229.861C350.724 236.279 336.526 234.042 327.151 225.353C315.303 229.017 301.577 227.185 292.685 221.182C286.716 222.205 280.432 222.25 274.61 221.43C273.497 222.734 272.148 223.88 270.54 224.746C263.537 228.534 254.802 225.915 251.014 218.912C250.98 218.855 250.969 218.788 250.935 218.72C242.583 218.271 234.86 216.63 229.937 214.022C217.088 214.516 203.554 213.347 197 210.953C188.94 208.008 194.516 204.343 209.455 202.758L209.41 202.702Z" fill="#ECD6B1"/>
<path d="M27.0659 222.869C29.2917 222.531 31.3488 222.419 32.945 222.52C33.1923 221.149 34.9123 219.98 37.093 219.822C39.3076 219.654 41.1961 220.575 41.6121 221.924C42.5001 220.98 43.7591 220.384 45.153 220.384C46.4345 220.384 47.5924 220.89 48.4579 221.7C49.4809 220.261 51.0996 219.305 52.9545 219.137C53.5502 217.394 55.169 216.135 57.1137 216.135C57.7882 216.135 58.4177 216.304 58.991 216.574C60.3961 214.067 63.0828 212.381 66.1517 212.381C68.2313 212.381 70.1198 213.156 71.57 214.426C73.526 212.943 75.9541 212.055 78.607 212.055C80.2932 212.055 81.8895 212.414 83.3396 213.066C83.8567 209.019 87.3078 205.894 91.4895 205.894C92.0853 205.894 92.6698 205.962 93.2319 206.085C93.2319 206.018 93.2319 205.962 93.2319 205.894C93.2319 201.353 96.919 197.666 101.461 197.666C102.068 197.666 102.663 197.733 103.237 197.868C105.485 189.583 113.028 183.491 122.021 183.491C126.259 183.491 130.171 184.862 133.363 187.155C134.128 179.983 140.198 174.396 147.572 174.396C151.731 174.396 155.464 176.184 158.083 179.028C159.252 165.999 170.178 155.781 183.51 155.781C189.648 155.781 195.269 157.95 199.675 161.548C205.723 153.083 215.615 147.552 226.823 147.552C242.92 147.552 256.354 158.962 259.479 174.127C261.761 173.463 264.166 173.092 266.662 173.092C279.983 173.092 290.932 183.108 292.449 196.025C294.001 195.485 295.664 195.181 297.407 195.181C303.05 195.181 307.962 198.273 310.57 202.848C312.167 202.376 313.853 202.117 315.595 202.117C321.8 202.117 327.241 205.299 330.422 210.121C331.625 209.312 333.087 208.828 334.649 208.828C338.1 208.828 341 211.133 341.922 214.28C342.608 213.977 343.372 213.808 344.182 213.808C344.317 213.808 344.44 213.831 344.575 213.842V229.265C344.238 229.018 343.923 228.748 343.642 228.444C342.26 230.209 340.101 231.345 337.684 231.345C335.054 231.345 332.738 230.007 331.378 227.972C328.433 233.694 322.475 237.617 315.595 237.617C310.042 237.617 305.085 235.065 301.836 231.075C299.487 236.695 293.933 240.652 287.458 240.652C280.466 240.652 274.553 236.055 272.575 229.715C270.349 235.594 264.672 239.787 258.006 239.787C252.071 239.787 246.9 236.459 244.269 231.569C239.717 239.079 231.488 244.115 222.057 244.115C214.806 244.115 208.252 241.136 203.542 236.347C200.631 241.012 195.482 244.115 189.581 244.115C184.668 244.115 180.273 241.956 177.26 238.539C172.325 242.822 165.884 245.407 158.836 245.407C150.337 245.407 142.727 241.642 137.567 235.684C134.375 238.247 130.339 239.776 125.933 239.776C119.761 239.776 114.298 236.763 110.914 232.131C108.329 234.717 104.765 236.313 100.82 236.313C95.7162 236.313 91.2534 233.638 88.7242 229.625C86.7007 233.109 82.9461 235.448 78.6183 235.448C75.2234 235.448 72.177 233.998 70.0524 231.693C68.681 232.761 66.9611 233.391 65.095 233.391C62.1048 233.391 59.5081 231.772 58.0917 229.366C56.9564 230.625 55.3376 231.435 53.5053 231.435C51.4256 231.435 49.5934 230.4 48.4805 228.827C47.6149 229.636 46.457 230.142 45.1755 230.142C43.7029 230.142 42.4102 229.479 41.5109 228.456C40.8251 229.063 39.9371 229.434 38.9479 229.434C37.7338 229.434 36.6659 228.872 35.9464 227.995C34.9235 228.568 33.1923 228.905 31.2251 228.838C29.0218 228.759 27.1558 228.197 26.2677 227.433C22.086 227.905 18.781 227.5 18.6124 226.41C18.4326 225.207 22.2097 223.622 27.0771 222.869H27.0659Z" fill="#ECD6B1"/>
<path d="M439.886 229.375L233.348 69.9997L230 73.1235L397.755 239.073L439.886 229.375Z" fill="#F3B83F"/>
<path d="M281.494 259.211C285.721 258.564 289.625 258.36 292.666 258.54C293.145 255.928 296.402 253.723 300.545 253.4C304.748 253.076 308.34 254.838 309.13 257.402C310.818 255.605 313.201 254.466 315.859 254.466C318.29 254.466 320.493 255.425 322.146 256.959C324.086 254.227 327.151 252.405 330.683 252.094C331.809 248.775 334.898 246.378 338.586 246.378C339.867 246.378 341.065 246.69 342.154 247.205C344.836 242.448 349.913 239.237 355.757 239.237C359.696 239.237 363.288 240.711 366.042 243.119C369.766 240.303 374.376 238.614 379.405 238.614C382.602 238.614 385.644 239.309 388.386 240.531C389.367 232.838 395.917 226.895 403.868 226.895C405.005 226.895 406.119 227.015 407.185 227.255C407.185 227.135 407.173 227.015 407.173 226.895C407.173 218.256 414.165 211.258 422.799 211.258C423.96 211.258 425.086 211.402 426.175 211.63C430.438 195.885 444.771 184.298 461.858 184.298C469.904 184.298 477.328 186.899 483.399 191.26C484.86 177.636 496.367 167.02 510.376 167.02C518.279 167.02 525.379 170.423 530.337 175.815C532.552 151.048 553.303 131.636 578.64 131.636C590.29 131.636 600.971 135.746 609.329 142.588C620.812 126.496 639.611 116 660.877 116C691.458 116 716.962 137.676 722.902 166.517C727.236 165.271 731.81 164.564 736.54 164.564C752.956 164.564 767.433 172.604 776.401 184.945V292.941C776.269 292.941 776.15 292.953 776.018 292.953C762.739 292.953 751.507 284.206 747.759 272.164C743.521 283.343 732.756 291.312 720.1 291.312C708.82 291.312 699.014 284.985 694.02 275.699C685.375 289.97 669.749 299.543 651.836 299.543C638.054 299.543 625.613 293.888 616.669 284.769C611.149 293.624 601.354 299.531 590.158 299.531C580.831 299.531 572.473 295.421 566.749 288.939C557.374 297.075 545.148 302 531.762 302C515.621 302 501.168 294.834 491.361 283.511C485.303 288.376 477.627 291.3 469.258 291.3C457.535 291.3 447.166 285.56 440.736 276.777C435.826 281.678 429.049 284.721 421.553 284.721C411.867 284.721 403.389 279.629 398.587 271.996C394.744 278.61 387.607 283.068 379.405 283.068C372.963 283.068 367.18 280.312 363.133 275.926C360.522 277.951 357.265 279.162 353.709 279.162C348.033 279.162 343.088 276.082 340.418 271.517C338.275 273.913 335.185 275.459 331.713 275.459C327.762 275.459 324.289 273.494 322.158 270.498C320.505 272.032 318.314 272.991 315.871 272.991C313.082 272.991 310.615 271.733 308.915 269.78C307.609 270.93 305.921 271.649 304.041 271.649C301.73 271.649 299.707 270.57 298.342 268.929C296.402 270.007 293.109 270.654 289.373 270.522C285.194 270.379 281.65 269.3 279.95 267.862C271.999 268.749 265.725 267.982 265.413 265.921C265.066 263.633 272.25 260.625 281.494 259.199V259.211Z" fill="#F8F4E8"/>
<path d="M259.404 174.195C259.404 174.195 255.584 163.173 251.589 158.637C247.593 154.102 239.14 149.873 239.14 149.873L193.999 95.8939L196.068 94L311.269 181.019C311.269 181.019 310.669 182.992 310.909 185.826C308.833 186.029 307.49 186.249 304.413 186.795C302.838 183.453 300.69 181.721 297.777 180.073C294.049 177.965 288.932 178.889 288.393 178.948C286.368 179.173 284.761 180.417 284.761 180.417C284.761 180.417 278.808 175.648 273.677 173.933C268.545 172.218 259.404 174.195 259.404 174.195Z" fill="#D9DDDF"/>
</g>
<path d="M171.851 18.8165L179.966 10.7101C174.694 7.63366 169.367 5.05127 163.972 2.99658C165.793 8.12768 168.456 13.3823 171.851 18.8053V18.8165Z" fill="#F3B83F"/>
<path d="M219.708 73.8775L234.926 58.6751C216.875 38.7233 199.544 22.5104 181.752 11.7654L172.963 20.5455C183.303 36.4216 199.792 53.7798 219.708 73.8775Z" fill="#F3B83F"/>
<path d="M222.023 45.1343L229.924 54.3635C229.924 54.3635 238.871 48.817 244.041 55.1944C244.041 55.1944 243.254 35.6356 222.023 45.1343Z" fill="#F3B83F"/>
<path d="M207.142 60L216.381 67.8932C216.381 67.8932 210.829 76.8305 217.213 81.9953C217.213 81.9953 197.634 81.2093 207.142 60Z" fill="#F3B83F"/>
<path d="M239.97 58.3728L242.791 61.1912L222.772 81.1902L219.95 78.3717L239.97 58.3728Z" fill="#F3B83F"/>
<path d="M189.721 31.9981C190.744 33.0199 192.396 33.0199 193.408 31.9981C194.43 30.9764 194.43 29.3259 193.408 28.3154C192.385 27.2937 190.733 27.2937 189.721 28.3154C188.698 29.3372 188.698 30.9876 189.721 31.9981Z" fill="white"/>
<path d="M200.646 42.9119C201.669 43.9336 203.321 43.9336 204.332 42.9119C205.355 41.8902 205.344 40.2397 204.332 39.2292C203.31 38.2075 201.657 38.2075 200.646 39.2292C199.623 40.2509 199.634 41.9014 200.646 42.9119Z" fill="white"/>
<path d="M211.582 53.8248C212.604 54.8465 214.257 54.8465 215.268 53.8248C216.291 52.8031 216.28 51.1526 215.268 50.1421C214.245 49.1204 212.593 49.1204 211.582 50.1421C210.559 51.1638 210.559 52.8143 211.582 53.8248Z" fill="white"/>
<path d="M164.103 68.251L168.33 64.0243C165.576 62.4281 162.81 61.0791 160 60C160.944 62.6754 162.338 65.4183 164.103 68.251Z" fill="#BBC9D1"/>
<path d="M189.036 96.961L196.961 89.036C187.552 78.6378 178.526 70.1731 169.263 64.575L164.688 69.1502C170.072 77.435 178.661 86.4842 189.036 96.961Z" fill="#BBC9D1"/>
<path d="M190.239 81.9763L194.353 86.7876C194.353 86.7876 199.007 83.8986 201.705 87.226C201.705 87.226 201.289 77.0302 190.228 81.9763H190.239Z" fill="#BBC9D1"/>
<path d="M182.494 89.722L187.305 93.8363C187.305 93.8363 184.416 98.4901 187.743 101.188C187.743 101.188 177.548 100.772 182.494 89.7107V89.722Z" fill="#BBC9D1"/>
<path d="M199.587 88.8764L201.057 90.347L190.629 100.776L189.158 99.3052L199.587 88.8764Z" fill="#BBC9D1"/>
<path d="M173.411 75.1194C173.939 75.6477 174.805 75.6477 175.333 75.1194C175.861 74.591 175.861 73.7255 175.333 73.1971C174.805 72.6688 173.939 72.6688 173.411 73.1971C172.882 73.7255 172.882 74.591 173.411 75.1194Z" fill="white"/>
<path d="M179.11 80.8075C179.638 81.3358 180.504 81.3358 181.032 80.8075C181.561 80.2792 181.561 79.4136 181.032 78.8852C180.504 78.3569 179.638 78.3569 179.11 78.8852C178.582 79.4136 178.582 80.2792 179.11 80.8075Z" fill="white"/>
<path d="M184.798 86.5069C185.327 87.0353 186.192 87.0353 186.72 86.5069C187.249 85.9786 187.249 85.113 186.72 84.5847C186.192 84.0563 185.327 84.0563 184.798 84.5847C184.27 85.113 184.27 85.9786 184.798 86.5069Z" fill="white"/>
<path d="M366.162 153.618C342.578 127.945 315.866 105.242 292 79.7424L293.933 78L391.5 156.5C391.5 156.5 383.539 152.946 378 152.5C373.292 152.121 366.162 153.618 366.162 153.618Z" fill="#E9E9E3"/>
</svg>
