<svg preserveAspectRatio="none" width="100%" height="100%" overflow="visible" style="display: block;" viewBox="0 0 25.6 25.6" fill="none" xmlns="http://www.w3.org/2000/svg">
<g id="Icon">
<path id="Vector" d="M15.9983 2.13216H6.39831C5.83251 2.13216 5.28989 2.35692 4.88981 2.757C4.48974 3.15708 4.26497 3.6997 4.26497 4.26549V21.3322C4.26497 21.898 4.48974 22.4406 4.88981 22.8407C5.28989 23.2407 5.83251 23.4655 6.39831 23.4655H19.1983C19.7641 23.4655 20.3067 23.2407 20.7068 22.8407C21.1069 22.4406 21.3316 21.898 21.3316 21.3322V7.46549L15.9983 2.13216Z" stroke="var(--stroke-0, #3A3C39)" stroke-width="2" stroke-linecap="round" stroke-linejoin="round"/>
<path id="Vector_2" d="M14.9316 2.13216V6.39883C14.9316 6.96462 15.1564 7.50725 15.5565 7.90732C15.9566 8.3074 16.4992 8.53216 17.065 8.53216H21.3316" stroke="var(--stroke-0, #3A3C39)" stroke-width="2" stroke-linecap="round" stroke-linejoin="round"/>
<path id="Vector_3" d="M9.59831 15.9973L11.7316 18.1306L15.9983 13.8639" stroke="var(--stroke-0, #3A3C39)" stroke-width="2" stroke-linecap="round" stroke-linejoin="round"/>
</g>
</svg>
