<svg preserveAspectRatio="none" width="100%" height="100%" overflow="visible" style="display: block;" viewBox="0 0 25.6 25.6" fill="none" xmlns="http://www.w3.org/2000/svg">
<g id="Icon">
<path id="Vector" d="M17.0655 22.3993V20.266C17.0655 19.1344 16.616 18.0492 15.8158 17.249C15.0157 16.4489 13.9304 15.9993 12.7988 15.9993H6.39883C5.26724 15.9993 4.18199 16.4489 3.38184 17.249C2.58168 18.0492 2.13216 19.1344 2.13216 20.266V22.3993" stroke="var(--stroke-0, #3A3C39)" stroke-width="2" stroke-linecap="round" stroke-linejoin="round"/>
<path id="Vector_2" d="M9.59935 11.7332C11.9558 11.7332 13.866 9.82295 13.866 7.46654C13.866 5.11012 11.9558 3.19987 9.59935 3.19987C7.24293 3.19987 5.33268 5.11012 5.33268 7.46654C5.33268 9.82295 7.24293 11.7332 9.59935 11.7332Z" stroke="var(--stroke-0, #3A3C39)" stroke-width="2" stroke-linecap="round" stroke-linejoin="round"/>
<path id="Vector_3" d="M17.0671 11.7316L19.2004 13.865L23.4671 9.59831" stroke="var(--stroke-0, #3A3C39)" stroke-width="2" stroke-linecap="round" stroke-linejoin="round"/>
</g>
</svg>
