<svg preserveAspectRatio="none" width="100%" height="100%" overflow="visible" style="display: block;" viewBox="0 0 25.6 25.6" fill="none" xmlns="http://www.w3.org/2000/svg">
<g id="Icon">
<path id="Vector" d="M16.7538 22.7096C16.5538 22.9096 16.2826 23.0219 15.9997 23.0219C15.7169 23.0219 15.4456 22.9096 15.2456 22.7096L13.5538 21.0179C13.3539 20.8179 13.2415 20.5466 13.2415 20.2638C13.2415 19.9809 13.3539 19.7097 13.5538 19.5096L19.5122 13.5512C19.7123 13.3513 19.9835 13.2389 20.2664 13.2389C20.5492 13.2389 20.8205 13.3513 21.0205 13.5512L22.7122 15.243C22.9122 15.443 23.0245 15.7143 23.0245 15.9971C23.0245 16.2799 22.9122 16.5512 22.7122 16.7512L16.7538 22.7096Z" stroke="var(--stroke-0, #3A3C39)" stroke-width="2" stroke-linecap="round" stroke-linejoin="round"/>
<path id="Vector_2" d="M19.1988 13.8655L17.7322 6.53323C17.6923 6.33375 17.5962 6.14983 17.4552 6.00317C17.3142 5.85651 17.1342 5.75322 16.9364 5.7055L3.4495 2.16203C3.27182 2.11908 3.08609 2.1225 2.91012 2.17198C2.73414 2.22145 2.57384 2.31532 2.44458 2.44458C2.31532 2.57384 2.22145 2.73414 2.17198 2.91012C2.1225 3.08609 2.11908 3.27182 2.16203 3.4495L5.7055 16.9364C5.75322 17.1342 5.85651 17.3142 6.00317 17.4552C6.14983 17.5962 6.33375 17.6923 6.53323 17.7322L13.8655 19.1988" stroke="var(--stroke-0, #3A3C39)" stroke-width="2" stroke-linecap="round" stroke-linejoin="round"/>
<path id="Vector_3" d="M2.45247 2.45247L10.2242 10.2242" stroke="var(--stroke-0, #3A3C39)" stroke-width="2" stroke-linecap="round" stroke-linejoin="round"/>
<path id="Vector_4" d="M11.7316 13.865C12.9098 13.865 13.865 12.9098 13.865 11.7316C13.865 10.5534 12.9098 9.59831 11.7316 9.59831C10.5534 9.59831 9.59831 10.5534 9.59831 11.7316C9.59831 12.9098 10.5534 13.865 11.7316 13.865Z" stroke="var(--stroke-0, #3A3C39)" stroke-width="2" stroke-linecap="round" stroke-linejoin="round"/>
</g>
</svg>
