<svg xmlns="http://www.w3.org/2000/svg" width="95.26" height="165.0" viewBox="0 0 95.26 165.0"><defs><clipPath id="t"><rect width="95.26" height="165.0"/></clipPath></defs><g clip-path="url(#t)" fill="none" stroke="#3a3d2f" stroke-width="1.1" stroke-linecap="square"><path d="M-238.16 -192.5L-190.53 -220.0M-232.2 -189.06L-184.57 -216.56M-226.25 -185.62L-178.62 -213.12M-220.3 -182.19L-172.66 -209.69M-214.34 -178.75L-166.71 -206.25M-208.39 -175.31L-160.76 -202.81M-202.43 -171.88L-154.8 -199.38M-196.48 -168.44L-148.85 -195.94M-190.53 -165.0L-142.89 -192.5M-238.16 -192.5L-190.53 -165.0M-238.16 -185.62L-190.53 -158.12M-238.16 -178.75L-190.53 -151.25M-238.16 -171.88L-190.53 -144.38M-238.16 -165.0L-190.53 -137.5M-238.16 -158.12L-190.53 -130.62M-238.16 -151.25L-190.53 -123.75M-238.16 -144.38L-190.53 -116.88M-238.16 -137.5L-190.53 -110.0M-142.89 -192.5L-190.53 -165.0M-142.89 -185.62L-190.53 -158.12M-142.89 -178.75L-190.53 -151.25M-142.89 -171.88L-190.53 -144.38M-142.89 -165.0L-190.53 -137.5M-142.89 -158.12L-190.53 -130.62M-142.89 -151.25L-190.53 -123.75M-142.89 -144.38L-190.53 -116.88M-142.89 -137.5L-190.53 -110.0M-142.89 -192.5L-95.26 -220.0M-136.94 -189.06L-89.31 -216.56M-130.99 -185.62L-83.35 -213.12M-125.03 -182.19L-77.4 -209.69M-119.08 -178.75L-71.45 -206.25M-113.12 -175.31L-65.49 -202.81M-107.17 -171.88L-59.54 -199.38M-101.22 -168.44L-53.59 -195.94M-95.26 -165.0L-47.63 -192.5M-142.89 -192.5L-95.26 -165.0M-142.89 -185.62L-95.26 -158.12M-142.89 -178.75L-95.26 -151.25M-142.89 -171.88L-95.26 -144.38M-142.89 -165.0L-95.26 -137.5M-142.89 -158.12L-95.26 -130.62M-142.89 -151.25L-95.26 -123.75M-142.89 -144.38L-95.26 -116.88M-142.89 -137.5L-95.26 -110.0M-47.63 -192.5L-95.26 -165.0M-47.63 -185.62L-95.26 -158.12M-47.63 -178.75L-95.26 -151.25M-47.63 -171.88L-95.26 -144.38M-47.63 -165.0L-95.26 -137.5M-47.63 -158.12L-95.26 -130.62M-47.63 -151.25L-95.26 -123.75M-47.63 -144.38L-95.26 -116.88M-47.63 -137.5L-95.26 -110.0M-47.63 -192.5L0.0 -220.0M-41.68 -189.06L5.95 -216.56M-35.72 -185.62L11.91 -213.12M-29.77 -182.19L17.86 -209.69M-23.82 -178.75L23.82 -206.25M-17.86 -175.31L29.77 -202.81M-11.91 -171.88L35.72 -199.38M-5.95 -168.44L41.68 -195.94M0.0 -165.0L47.63 -192.5M-47.63 -192.5L0.0 -165.0M-47.63 -185.62L0.0 -158.12M-47.63 -178.75L0.0 -151.25M-47.63 -171.88L0.0 -144.38M-47.63 -165.0L0.0 -137.5M-47.63 -158.12L0.0 -130.62M-47.63 -151.25L0.0 -123.75M-47.63 -144.38L0.0 -116.88M-47.63 -137.5L0.0 -110.0M47.63 -192.5L0.0 -165.0M47.63 -185.62L0.0 -158.12M47.63 -178.75L0.0 -151.25M47.63 -171.88L0.0 -144.38M47.63 -165.0L0.0 -137.5M47.63 -158.12L0.0 -130.62M47.63 -151.25L0.0 -123.75M47.63 -144.38L0.0 -116.88M47.63 -137.5L0.0 -110.0M47.63 -192.5L95.26 -220.0M53.59 -189.06L101.22 -216.56M59.54 -185.62L107.17 -213.12M65.49 -182.19L113.12 -209.69M71.45 -178.75L119.08 -206.25M77.4 -175.31L125.03 -202.81M83.35 -171.88L130.99 -199.38M89.31 -168.44L136.94 -195.94M95.26 -165.0L142.89 -192.5M47.63 -192.5L95.26 -165.0M47.63 -185.62L95.26 -158.12M47.63 -178.75L95.26 -151.25M47.63 -171.88L95.26 -144.38M47.63 -165.0L95.26 -137.5M47.63 -158.12L95.26 -130.62M47.63 -151.25L95.26 -123.75M47.63 -144.38L95.26 -116.88M47.63 -137.5L95.26 -110.0M142.89 -192.5L95.26 -165.0M142.89 -185.62L95.26 -158.12M142.89 -178.75L95.26 -151.25M142.89 -171.88L95.26 -144.38M142.89 -165.0L95.26 -137.5M142.89 -158.12L95.26 -130.62M142.89 -151.25L95.26 -123.75M142.89 -144.38L95.26 -116.88M142.89 -137.5L95.26 -110.0M142.89 -192.5L190.53 -220.0M148.85 -189.06L196.48 -216.56M154.8 -185.62L202.43 -213.12M160.76 -182.19L208.39 -209.69M166.71 -178.75L214.34 -206.25M172.66 -175.31L220.3 -202.81M178.62 -171.88L226.25 -199.38M184.57 -168.44L232.2 -195.94M190.53 -165.0L238.16 -192.5M142.89 -192.5L190.53 -165.0M142.89 -185.62L190.53 -158.12M142.89 -178.75L190.53 -151.25M142.89 -171.88L190.53 -144.38M142.89 -165.0L190.53 -137.5M142.89 -158.12L190.53 -130.62M142.89 -151.25L190.53 -123.75M142.89 -144.38L190.53 -116.88M142.89 -137.5L190.53 -110.0M238.16 -192.5L190.53 -165.0M238.16 -185.62L190.53 -158.12M238.16 -178.75L190.53 -151.25M238.16 -171.88L190.53 -144.38M238.16 -165.0L190.53 -137.5M238.16 -158.12L190.53 -130.62M238.16 -151.25L190.53 -123.75M238.16 -144.38L190.53 -116.88M238.16 -137.5L190.53 -110.0M238.16 -192.5L285.79 -220.0M244.11 -189.06L291.74 -216.56M250.06 -185.62L297.7 -213.12M256.02 -182.19L303.65 -209.69M261.97 -178.75L309.6 -206.25M267.93 -175.31L315.56 -202.81M273.88 -171.88L321.51 -199.38M279.83 -168.44L327.47 -195.94M285.79 -165.0L333.42 -192.5M238.16 -192.5L285.79 -165.0M238.16 -185.62L285.79 -158.12M238.16 -178.75L285.79 -151.25M238.16 -171.88L285.79 -144.38M238.16 -165.0L285.79 -137.5M238.16 -158.12L285.79 -130.62M238.16 -151.25L285.79 -123.75M238.16 -144.38L285.79 -116.88M238.16 -137.5L285.79 -110.0M333.42 -192.5L285.79 -165.0M333.42 -185.62L285.79 -158.12M333.42 -178.75L285.79 -151.25M333.42 -171.88L285.79 -144.38M333.42 -165.0L285.79 -137.5M333.42 -158.12L285.79 -130.62M333.42 -151.25L285.79 -123.75M333.42 -144.38L285.79 -116.88M333.42 -137.5L285.79 -110.0M-190.53 -110.0L-142.89 -137.5M-184.57 -106.56L-136.94 -134.06M-178.62 -103.12L-130.99 -130.62M-172.66 -99.69L-125.03 -127.19M-166.71 -96.25L-119.08 -123.75M-160.76 -92.81L-113.12 -120.31M-154.8 -89.38L-107.17 -116.88M-148.85 -85.94L-101.22 -113.44M-142.89 -82.5L-95.26 -110.0M-190.53 -110.0L-142.89 -82.5M-190.53 -103.12L-142.89 -75.62M-190.53 -96.25L-142.89 -68.75M-190.53 -89.38L-142.89 -61.88M-190.53 -82.5L-142.89 -55.0M-190.53 -75.62L-142.89 -48.12M-190.53 -68.75L-142.89 -41.25M-190.53 -61.88L-142.89 -34.38M-190.53 -55.0L-142.89 -27.5M-95.26 -110.0L-142.89 -82.5M-95.26 -103.12L-142.89 -75.62M-95.26 -96.25L-142.89 -68.75M-95.26 -89.38L-142.89 -61.88M-95.26 -82.5L-142.89 -55.0M-95.26 -75.62L-142.89 -48.12M-95.26 -68.75L-142.89 -41.25M-95.26 -61.88L-142.89 -34.38M-95.26 -55.0L-142.89 -27.5M-95.26 -110.0L-47.63 -137.5M-89.31 -106.56L-41.68 -134.06M-83.35 -103.12L-35.72 -130.62M-77.4 -99.69L-29.77 -127.19M-71.45 -96.25L-23.82 -123.75M-65.49 -92.81L-17.86 -120.31M-59.54 -89.38L-11.91 -116.88M-53.59 -85.94L-5.95 -113.44M-47.63 -82.5L-0.0 -110.0M-95.26 -110.0L-47.63 -82.5M-95.26 -103.12L-47.63 -75.62M-95.26 -96.25L-47.63 -68.75M-95.26 -89.38L-47.63 -61.88M-95.26 -82.5L-47.63 -55.0M-95.26 -75.62L-47.63 -48.12M-95.26 -68.75L-47.63 -41.25M-95.26 -61.88L-47.63 -34.38M-95.26 -55.0L-47.63 -27.5M-0.0 -110.0L-47.63 -82.5M-0.0 -103.12L-47.63 -75.62M-0.0 -96.25L-47.63 -68.75M-0.0 -89.38L-47.63 -61.88M-0.0 -82.5L-47.63 -55.0M-0.0 -75.62L-47.63 -48.12M-0.0 -68.75L-47.63 -41.25M-0.0 -61.88L-47.63 -34.38M-0.0 -55.0L-47.63 -27.5M0.0 -110.0L47.63 -137.5M5.95 -106.56L53.59 -134.06M11.91 -103.12L59.54 -130.62M17.86 -99.69L65.49 -127.19M23.82 -96.25L71.45 -123.75M29.77 -92.81L77.4 -120.31M35.72 -89.38L83.35 -116.88M41.68 -85.94L89.31 -113.44M47.63 -82.5L95.26 -110.0M0.0 -110.0L47.63 -82.5M0.0 -103.12L47.63 -75.62M0.0 -96.25L47.63 -68.75M0.0 -89.38L47.63 -61.88M0.0 -82.5L47.63 -55.0M0.0 -75.62L47.63 -48.12M0.0 -68.75L47.63 -41.25M0.0 -61.88L47.63 -34.38M0.0 -55.0L47.63 -27.5M95.26 -110.0L47.63 -82.5M95.26 -103.12L47.63 -75.62M95.26 -96.25L47.63 -68.75M95.26 -89.38L47.63 -61.88M95.26 -82.5L47.63 -55.0M95.26 -75.62L47.63 -48.12M95.26 -68.75L47.63 -41.25M95.26 -61.88L47.63 -34.38M95.26 -55.0L47.63 -27.5M95.26 -110.0L142.89 -137.5M101.22 -106.56L148.85 -134.06M107.17 -103.12L154.8 -130.62M113.12 -99.69L160.76 -127.19M119.08 -96.25L166.71 -123.75M125.03 -92.81L172.66 -120.31M130.99 -89.38L178.62 -116.88M136.94 -85.94L184.57 -113.44M142.89 -82.5L190.53 -110.0M95.26 -110.0L142.89 -82.5M95.26 -103.12L142.89 -75.62M95.26 -96.25L142.89 -68.75M95.26 -89.38L142.89 -61.88M95.26 -82.5L142.89 -55.0M95.26 -75.62L142.89 -48.12M95.26 -68.75L142.89 -41.25M95.26 -61.88L142.89 -34.38M95.26 -55.0L142.89 -27.5M190.53 -110.0L142.89 -82.5M190.53 -103.12L142.89 -75.62M190.53 -96.25L142.89 -68.75M190.53 -89.38L142.89 -61.88M190.53 -82.5L142.89 -55.0M190.53 -75.62L142.89 -48.12M190.53 -68.75L142.89 -41.25M190.53 -61.88L142.89 -34.38M190.53 -55.0L142.89 -27.5M190.53 -110.0L238.16 -137.5M196.48 -106.56L244.11 -134.06M202.43 -103.12L250.06 -130.62M208.39 -99.69L256.02 -127.19M214.34 -96.25L261.97 -123.75M220.3 -92.81L267.93 -120.31M226.25 -89.38L273.88 -116.88M232.2 -85.94L279.83 -113.44M238.16 -82.5L285.79 -110.0M190.53 -110.0L238.16 -82.5M190.53 -103.12L238.16 -75.62M190.53 -96.25L238.16 -68.75M190.53 -89.38L238.16 -61.88M190.53 -82.5L238.16 -55.0M190.53 -75.62L238.16 -48.12M190.53 -68.75L238.16 -41.25M190.53 -61.88L238.16 -34.38M190.53 -55.0L238.16 -27.5M285.79 -110.0L238.16 -82.5M285.79 -103.12L238.16 -75.62M285.79 -96.25L238.16 -68.75M285.79 -89.38L238.16 -61.88M285.79 -82.5L238.16 -55.0M285.79 -75.62L238.16 -48.12M285.79 -68.75L238.16 -41.25M285.79 -61.88L238.16 -34.38M285.79 -55.0L238.16 -27.5M285.79 -110.0L333.42 -137.5M291.74 -106.56L339.37 -134.06M297.7 -103.12L345.33 -130.62M303.65 -99.69L351.28 -127.19M309.6 -96.25L357.24 -123.75M315.56 -92.81L363.19 -120.31M321.51 -89.38L369.14 -116.88M327.47 -85.94L375.1 -113.44M333.42 -82.5L381.05 -110.0M285.79 -110.0L333.42 -82.5M285.79 -103.12L333.42 -75.62M285.79 -96.25L333.42 -68.75M285.79 -89.38L333.42 -61.88M285.79 -82.5L333.42 -55.0M285.79 -75.62L333.42 -48.12M285.79 -68.75L333.42 -41.25M285.79 -61.88L333.42 -34.38M285.79 -55.0L333.42 -27.5M381.05 -110.0L333.42 -82.5M381.05 -103.12L333.42 -75.62M381.05 -96.25L333.42 -68.75M381.05 -89.38L333.42 -61.88M381.05 -82.5L333.42 -55.0M381.05 -75.62L333.42 -48.12M381.05 -68.75L333.42 -41.25M381.05 -61.88L333.42 -34.38M381.05 -55.0L333.42 -27.5M-238.16 -27.5L-190.53 -55.0M-232.2 -24.06L-184.57 -51.56M-226.25 -20.62L-178.62 -48.12M-220.3 -17.19L-172.66 -44.69M-214.34 -13.75L-166.71 -41.25M-208.39 -10.31L-160.76 -37.81M-202.43 -6.88L-154.8 -34.38M-196.48 -3.44L-148.85 -30.94M-190.53 0.0L-142.89 -27.5M-238.16 -27.5L-190.53 0.0M-238.16 -20.62L-190.53 6.88M-238.16 -13.75L-190.53 13.75M-238.16 -6.88L-190.53 20.62M-238.16 0.0L-190.53 27.5M-238.16 6.88L-190.53 34.38M-238.16 13.75L-190.53 41.25M-238.16 20.62L-190.53 48.12M-238.16 27.5L-190.53 55.0M-142.89 -27.5L-190.53 0.0M-142.89 -20.62L-190.53 6.88M-142.89 -13.75L-190.53 13.75M-142.89 -6.88L-190.53 20.62M-142.89 0.0L-190.53 27.5M-142.89 6.88L-190.53 34.38M-142.89 13.75L-190.53 41.25M-142.89 20.62L-190.53 48.12M-142.89 27.5L-190.53 55.0M-142.89 -27.5L-95.26 -55.0M-136.94 -24.06L-89.31 -51.56M-130.99 -20.62L-83.35 -48.12M-125.03 -17.19L-77.4 -44.69M-119.08 -13.75L-71.45 -41.25M-113.12 -10.31L-65.49 -37.81M-107.17 -6.88L-59.54 -34.38M-101.22 -3.44L-53.59 -30.94M-95.26 0.0L-47.63 -27.5M-142.89 -27.5L-95.26 0.0M-142.89 -20.62L-95.26 6.88M-142.89 -13.75L-95.26 13.75M-142.89 -6.88L-95.26 20.62M-142.89 0.0L-95.26 27.5M-142.89 6.88L-95.26 34.38M-142.89 13.75L-95.26 41.25M-142.89 20.62L-95.26 48.12M-142.89 27.5L-95.26 55.0M-47.63 -27.5L-95.26 0.0M-47.63 -20.62L-95.26 6.88M-47.63 -13.75L-95.26 13.75M-47.63 -6.88L-95.26 20.62M-47.63 0.0L-95.26 27.5M-47.63 6.88L-95.26 34.38M-47.63 13.75L-95.26 41.25M-47.63 20.62L-95.26 48.12M-47.63 27.5L-95.26 55.0M-47.63 -27.5L0.0 -55.0M-41.68 -24.06L5.95 -51.56M-35.72 -20.62L11.91 -48.12M-29.77 -17.19L17.86 -44.69M-23.82 -13.75L23.82 -41.25M-17.86 -10.31L29.77 -37.81M-11.91 -6.88L35.72 -34.38M-5.95 -3.44L41.68 -30.94M0.0 0.0L47.63 -27.5M-47.63 -27.5L0.0 0.0M-47.63 -20.62L0.0 6.88M-47.63 -13.75L0.0 13.75M-47.63 -6.88L0.0 20.62M-47.63 0.0L0.0 27.5M-47.63 6.88L0.0 34.38M-47.63 13.75L0.0 41.25M-47.63 20.62L0.0 48.12M-47.63 27.5L0.0 55.0M47.63 -27.5L0.0 0.0M47.63 -20.62L0.0 6.88M47.63 -13.75L0.0 13.75M47.63 -6.88L0.0 20.62M47.63 0.0L0.0 27.5M47.63 6.88L0.0 34.38M47.63 13.75L0.0 41.25M47.63 20.62L0.0 48.12M47.63 27.5L0.0 55.0M47.63 -27.5L95.26 -55.0M53.59 -24.06L101.22 -51.56M59.54 -20.62L107.17 -48.12M65.49 -17.19L113.12 -44.69M71.45 -13.75L119.08 -41.25M77.4 -10.31L125.03 -37.81M83.35 -6.88L130.99 -34.38M89.31 -3.44L136.94 -30.94M95.26 0.0L142.89 -27.5M47.63 -27.5L95.26 0.0M47.63 -20.62L95.26 6.88M47.63 -13.75L95.26 13.75M47.63 -6.88L95.26 20.62M47.63 0.0L95.26 27.5M47.63 6.88L95.26 34.38M47.63 13.75L95.26 41.25M47.63 20.62L95.26 48.12M47.63 27.5L95.26 55.0M142.89 -27.5L95.26 0.0M142.89 -20.62L95.26 6.88M142.89 -13.75L95.26 13.75M142.89 -6.88L95.26 20.62M142.89 0.0L95.26 27.5M142.89 6.88L95.26 34.38M142.89 13.75L95.26 41.25M142.89 20.62L95.26 48.12M142.89 27.5L95.26 55.0M142.89 -27.5L190.53 -55.0M148.85 -24.06L196.48 -51.56M154.8 -20.62L202.43 -48.12M160.76 -17.19L208.39 -44.69M166.71 -13.75L214.34 -41.25M172.66 -10.31L220.3 -37.81M178.62 -6.88L226.25 -34.38M184.57 -3.44L232.2 -30.94M190.53 0.0L238.16 -27.5M142.89 -27.5L190.53 0.0M142.89 -20.62L190.53 6.88M142.89 -13.75L190.53 13.75M142.89 -6.88L190.53 20.62M142.89 0.0L190.53 27.5M142.89 6.88L190.53 34.38M142.89 13.75L190.53 41.25M142.89 20.62L190.53 48.12M142.89 27.5L190.53 55.0M238.16 -27.5L190.53 0.0M238.16 -20.62L190.53 6.88M238.16 -13.75L190.53 13.75M238.16 -6.88L190.53 20.62M238.16 0.0L190.53 27.5M238.16 6.88L190.53 34.38M238.16 13.75L190.53 41.25M238.16 20.62L190.53 48.12M238.16 27.5L190.53 55.0M238.16 -27.5L285.79 -55.0M244.11 -24.06L291.74 -51.56M250.06 -20.62L297.7 -48.12M256.02 -17.19L303.65 -44.69M261.97 -13.75L309.6 -41.25M267.93 -10.31L315.56 -37.81M273.88 -6.88L321.51 -34.38M279.83 -3.44L327.47 -30.94M285.79 0.0L333.42 -27.5M238.16 -27.5L285.79 0.0M238.16 -20.62L285.79 6.88M238.16 -13.75L285.79 13.75M238.16 -6.88L285.79 20.62M238.16 0.0L285.79 27.5M238.16 6.88L285.79 34.38M238.16 13.75L285.79 41.25M238.16 20.62L285.79 48.12M238.16 27.5L285.79 55.0M333.42 -27.5L285.79 0.0M333.42 -20.62L285.79 6.88M333.42 -13.75L285.79 13.75M333.42 -6.88L285.79 20.62M333.42 0.0L285.79 27.5M333.42 6.88L285.79 34.38M333.42 13.75L285.79 41.25M333.42 20.62L285.79 48.12M333.42 27.5L285.79 55.0M-190.53 55.0L-142.89 27.5M-184.57 58.44L-136.94 30.94M-178.62 61.88L-130.99 34.38M-172.66 65.31L-125.03 37.81M-166.71 68.75L-119.08 41.25M-160.76 72.19L-113.12 44.69M-154.8 75.62L-107.17 48.12M-148.85 79.06L-101.22 51.56M-142.89 82.5L-95.26 55.0M-190.53 55.0L-142.89 82.5M-190.53 61.88L-142.89 89.38M-190.53 68.75L-142.89 96.25M-190.53 75.62L-142.89 103.12M-190.53 82.5L-142.89 110.0M-190.53 89.38L-142.89 116.88M-190.53 96.25L-142.89 123.75M-190.53 103.12L-142.89 130.62M-190.53 110.0L-142.89 137.5M-95.26 55.0L-142.89 82.5M-95.26 61.88L-142.89 89.38M-95.26 68.75L-142.89 96.25M-95.26 75.62L-142.89 103.12M-95.26 82.5L-142.89 110.0M-95.26 89.38L-142.89 116.88M-95.26 96.25L-142.89 123.75M-95.26 103.12L-142.89 130.62M-95.26 110.0L-142.89 137.5M-95.26 55.0L-47.63 27.5M-89.31 58.44L-41.68 30.94M-83.35 61.88L-35.72 34.38M-77.4 65.31L-29.77 37.81M-71.45 68.75L-23.82 41.25M-65.49 72.19L-17.86 44.69M-59.54 75.62L-11.91 48.12M-53.59 79.06L-5.95 51.56M-47.63 82.5L-0.0 55.0M-95.26 55.0L-47.63 82.5M-95.26 61.88L-47.63 89.38M-95.26 68.75L-47.63 96.25M-95.26 75.62L-47.63 103.12M-95.26 82.5L-47.63 110.0M-95.26 89.38L-47.63 116.88M-95.26 96.25L-47.63 123.75M-95.26 103.12L-47.63 130.62M-95.26 110.0L-47.63 137.5M-0.0 55.0L-47.63 82.5M-0.0 61.88L-47.63 89.38M-0.0 68.75L-47.63 96.25M-0.0 75.62L-47.63 103.12M-0.0 82.5L-47.63 110.0M-0.0 89.38L-47.63 116.88M-0.0 96.25L-47.63 123.75M-0.0 103.12L-47.63 130.62M-0.0 110.0L-47.63 137.5M0.0 55.0L47.63 27.5M5.95 58.44L53.59 30.94M11.91 61.88L59.54 34.38M17.86 65.31L65.49 37.81M23.82 68.75L71.45 41.25M29.77 72.19L77.4 44.69M35.72 75.62L83.35 48.12M41.68 79.06L89.31 51.56M47.63 82.5L95.26 55.0M0.0 55.0L47.63 82.5M0.0 61.88L47.63 89.38M0.0 68.75L47.63 96.25M0.0 75.62L47.63 103.12M0.0 82.5L47.63 110.0M0.0 89.38L47.63 116.88M0.0 96.25L47.63 123.75M0.0 103.12L47.63 130.62M0.0 110.0L47.63 137.5M95.26 55.0L47.63 82.5M95.26 61.88L47.63 89.38M95.26 68.75L47.63 96.25M95.26 75.62L47.63 103.12M95.26 82.5L47.63 110.0M95.26 89.38L47.63 116.88M95.26 96.25L47.63 123.75M95.26 103.12L47.63 130.62M95.26 110.0L47.63 137.5M95.26 55.0L142.89 27.5M101.22 58.44L148.85 30.94M107.17 61.88L154.8 34.38M113.12 65.31L160.76 37.81M119.08 68.75L166.71 41.25M125.03 72.19L172.66 44.69M130.99 75.62L178.62 48.12M136.94 79.06L184.57 51.56M142.89 82.5L190.53 55.0M95.26 55.0L142.89 82.5M95.26 61.88L142.89 89.38M95.26 68.75L142.89 96.25M95.26 75.62L142.89 103.12M95.26 82.5L142.89 110.0M95.26 89.38L142.89 116.88M95.26 96.25L142.89 123.75M95.26 103.12L142.89 130.62M95.26 110.0L142.89 137.5M190.53 55.0L142.89 82.5M190.53 61.88L142.89 89.38M190.53 68.75L142.89 96.25M190.53 75.62L142.89 103.12M190.53 82.5L142.89 110.0M190.53 89.38L142.89 116.88M190.53 96.25L142.89 123.75M190.53 103.12L142.89 130.62M190.53 110.0L142.89 137.5M190.53 55.0L238.16 27.5M196.48 58.44L244.11 30.94M202.43 61.88L250.06 34.38M208.39 65.31L256.02 37.81M214.34 68.75L261.97 41.25M220.3 72.19L267.93 44.69M226.25 75.62L273.88 48.12M232.2 79.06L279.83 51.56M238.16 82.5L285.79 55.0M190.53 55.0L238.16 82.5M190.53 61.88L238.16 89.38M190.53 68.75L238.16 96.25M190.53 75.62L238.16 103.12M190.53 82.5L238.16 110.0M190.53 89.38L238.16 116.88M190.53 96.25L238.16 123.75M190.53 103.12L238.16 130.62M190.53 110.0L238.16 137.5M285.79 55.0L238.16 82.5M285.79 61.88L238.16 89.38M285.79 68.75L238.16 96.25M285.79 75.62L238.16 103.12M285.79 82.5L238.16 110.0M285.79 89.38L238.16 116.88M285.79 96.25L238.16 123.75M285.79 103.12L238.16 130.62M285.79 110.0L238.16 137.5M285.79 55.0L333.42 27.5M291.74 58.44L339.37 30.94M297.7 61.88L345.33 34.38M303.65 65.31L351.28 37.81M309.6 68.75L357.24 41.25M315.56 72.19L363.19 44.69M321.51 75.62L369.14 48.12M327.47 79.06L375.1 51.56M333.42 82.5L381.05 55.0M285.79 55.0L333.42 82.5M285.79 61.88L333.42 89.38M285.79 68.75L333.42 96.25M285.79 75.62L333.42 103.12M285.79 82.5L333.42 110.0M285.79 89.38L333.42 116.88M285.79 96.25L333.42 123.75M285.79 103.12L333.42 130.62M285.79 110.0L333.42 137.5M381.05 55.0L333.42 82.5M381.05 61.88L333.42 89.38M381.05 68.75L333.42 96.25M381.05 75.62L333.42 103.12M381.05 82.5L333.42 110.0M381.05 89.38L333.42 116.88M381.05 96.25L333.42 123.75M381.05 103.12L333.42 130.62M381.05 110.0L333.42 137.5M-238.16 137.5L-190.53 110.0M-232.2 140.94L-184.57 113.44M-226.25 144.38L-178.62 116.88M-220.3 147.81L-172.66 120.31M-214.34 151.25L-166.71 123.75M-208.39 154.69L-160.76 127.19M-202.43 158.12L-154.8 130.62M-196.48 161.56L-148.85 134.06M-190.53 165.0L-142.89 137.5M-238.16 137.5L-190.53 165.0M-238.16 144.38L-190.53 171.88M-238.16 151.25L-190.53 178.75M-238.16 158.12L-190.53 185.62M-238.16 165.0L-190.53 192.5M-238.16 171.88L-190.53 199.38M-238.16 178.75L-190.53 206.25M-238.16 185.62L-190.53 213.12M-238.16 192.5L-190.53 220.0M-142.89 137.5L-190.53 165.0M-142.89 144.38L-190.53 171.88M-142.89 151.25L-190.53 178.75M-142.89 158.12L-190.53 185.62M-142.89 165.0L-190.53 192.5M-142.89 171.88L-190.53 199.38M-142.89 178.75L-190.53 206.25M-142.89 185.62L-190.53 213.12M-142.89 192.5L-190.53 220.0M-142.89 137.5L-95.26 110.0M-136.94 140.94L-89.31 113.44M-130.99 144.38L-83.35 116.88M-125.03 147.81L-77.4 120.31M-119.08 151.25L-71.45 123.75M-113.12 154.69L-65.49 127.19M-107.17 158.12L-59.54 130.62M-101.22 161.56L-53.59 134.06M-95.26 165.0L-47.63 137.5M-142.89 137.5L-95.26 165.0M-142.89 144.38L-95.26 171.88M-142.89 151.25L-95.26 178.75M-142.89 158.12L-95.26 185.62M-142.89 165.0L-95.26 192.5M-142.89 171.88L-95.26 199.38M-142.89 178.75L-95.26 206.25M-142.89 185.62L-95.26 213.12M-142.89 192.5L-95.26 220.0M-47.63 137.5L-95.26 165.0M-47.63 144.38L-95.26 171.88M-47.63 151.25L-95.26 178.75M-47.63 158.12L-95.26 185.62M-47.63 165.0L-95.26 192.5M-47.63 171.88L-95.26 199.38M-47.63 178.75L-95.26 206.25M-47.63 185.62L-95.26 213.12M-47.63 192.5L-95.26 220.0M-47.63 137.5L0.0 110.0M-41.68 140.94L5.95 113.44M-35.72 144.38L11.91 116.88M-29.77 147.81L17.86 120.31M-23.82 151.25L23.82 123.75M-17.86 154.69L29.77 127.19M-11.91 158.12L35.72 130.62M-5.95 161.56L41.68 134.06M0.0 165.0L47.63 137.5M-47.63 137.5L0.0 165.0M-47.63 144.38L0.0 171.88M-47.63 151.25L0.0 178.75M-47.63 158.12L0.0 185.62M-47.63 165.0L0.0 192.5M-47.63 171.88L0.0 199.38M-47.63 178.75L0.0 206.25M-47.63 185.62L0.0 213.12M-47.63 192.5L0.0 220.0M47.63 137.5L0.0 165.0M47.63 144.38L0.0 171.88M47.63 151.25L0.0 178.75M47.63 158.12L0.0 185.62M47.63 165.0L0.0 192.5M47.63 171.88L0.0 199.38M47.63 178.75L0.0 206.25M47.63 185.62L0.0 213.12M47.63 192.5L0.0 220.0M47.63 137.5L95.26 110.0M53.59 140.94L101.22 113.44M59.54 144.38L107.17 116.88M65.49 147.81L113.12 120.31M71.45 151.25L119.08 123.75M77.4 154.69L125.03 127.19M83.35 158.12L130.99 130.62M89.31 161.56L136.94 134.06M95.26 165.0L142.89 137.5M47.63 137.5L95.26 165.0M47.63 144.38L95.26 171.88M47.63 151.25L95.26 178.75M47.63 158.12L95.26 185.62M47.63 165.0L95.26 192.5M47.63 171.88L95.26 199.38M47.63 178.75L95.26 206.25M47.63 185.62L95.26 213.12M47.63 192.5L95.26 220.0M142.89 137.5L95.26 165.0M142.89 144.38L95.26 171.88M142.89 151.25L95.26 178.75M142.89 158.12L95.26 185.62M142.89 165.0L95.26 192.5M142.89 171.88L95.26 199.38M142.89 178.75L95.26 206.25M142.89 185.62L95.26 213.12M142.89 192.5L95.26 220.0M142.89 137.5L190.53 110.0M148.85 140.94L196.48 113.44M154.8 144.38L202.43 116.88M160.76 147.81L208.39 120.31M166.71 151.25L214.34 123.75M172.66 154.69L220.3 127.19M178.62 158.12L226.25 130.62M184.57 161.56L232.2 134.06M190.53 165.0L238.16 137.5M142.89 137.5L190.53 165.0M142.89 144.38L190.53 171.88M142.89 151.25L190.53 178.75M142.89 158.12L190.53 185.62M142.89 165.0L190.53 192.5M142.89 171.88L190.53 199.38M142.89 178.75L190.53 206.25M142.89 185.62L190.53 213.12M142.89 192.5L190.53 220.0M238.16 137.5L190.53 165.0M238.16 144.38L190.53 171.88M238.16 151.25L190.53 178.75M238.16 158.12L190.53 185.62M238.16 165.0L190.53 192.5M238.16 171.88L190.53 199.38M238.16 178.75L190.53 206.25M238.16 185.62L190.53 213.12M238.16 192.5L190.53 220.0M238.16 137.5L285.79 110.0M244.11 140.94L291.74 113.44M250.06 144.38L297.7 116.88M256.02 147.81L303.65 120.31M261.97 151.25L309.6 123.75M267.93 154.69L315.56 127.19M273.88 158.12L321.51 130.62M279.83 161.56L327.47 134.06M285.79 165.0L333.42 137.5M238.16 137.5L285.79 165.0M238.16 144.38L285.79 171.88M238.16 151.25L285.79 178.75M238.16 158.12L285.79 185.62M238.16 165.0L285.79 192.5M238.16 171.88L285.79 199.38M238.16 178.75L285.79 206.25M238.16 185.62L285.79 213.12M238.16 192.5L285.79 220.0M333.42 137.5L285.79 165.0M333.42 144.38L285.79 171.88M333.42 151.25L285.79 178.75M333.42 158.12L285.79 185.62M333.42 165.0L285.79 192.5M333.42 171.88L285.79 199.38M333.42 178.75L285.79 206.25M333.42 185.62L285.79 213.12M333.42 192.5L285.79 220.0M-190.53 220.0L-142.89 192.5M-184.57 223.44L-136.94 195.94M-178.62 226.88L-130.99 199.38M-172.66 230.31L-125.03 202.81M-166.71 233.75L-119.08 206.25M-160.76 237.19L-113.12 209.69M-154.8 240.62L-107.17 213.12M-148.85 244.06L-101.22 216.56M-142.89 247.5L-95.26 220.0M-190.53 220.0L-142.89 247.5M-190.53 226.88L-142.89 254.38M-190.53 233.75L-142.89 261.25M-190.53 240.62L-142.89 268.12M-190.53 247.5L-142.89 275.0M-190.53 254.38L-142.89 281.88M-190.53 261.25L-142.89 288.75M-190.53 268.12L-142.89 295.62M-190.53 275.0L-142.89 302.5M-95.26 220.0L-142.89 247.5M-95.26 226.88L-142.89 254.38M-95.26 233.75L-142.89 261.25M-95.26 240.62L-142.89 268.12M-95.26 247.5L-142.89 275.0M-95.26 254.38L-142.89 281.88M-95.26 261.25L-142.89 288.75M-95.26 268.12L-142.89 295.62M-95.26 275.0L-142.89 302.5M-95.26 220.0L-47.63 192.5M-89.31 223.44L-41.68 195.94M-83.35 226.88L-35.72 199.38M-77.4 230.31L-29.77 202.81M-71.45 233.75L-23.82 206.25M-65.49 237.19L-17.86 209.69M-59.54 240.62L-11.91 213.12M-53.59 244.06L-5.95 216.56M-47.63 247.5L-0.0 220.0M-95.26 220.0L-47.63 247.5M-95.26 226.88L-47.63 254.38M-95.26 233.75L-47.63 261.25M-95.26 240.62L-47.63 268.12M-95.26 247.5L-47.63 275.0M-95.26 254.38L-47.63 281.88M-95.26 261.25L-47.63 288.75M-95.26 268.12L-47.63 295.62M-95.26 275.0L-47.63 302.5M-0.0 220.0L-47.63 247.5M-0.0 226.88L-47.63 254.38M-0.0 233.75L-47.63 261.25M-0.0 240.62L-47.63 268.12M-0.0 247.5L-47.63 275.0M-0.0 254.38L-47.63 281.88M-0.0 261.25L-47.63 288.75M-0.0 268.12L-47.63 295.62M-0.0 275.0L-47.63 302.5M0.0 220.0L47.63 192.5M5.95 223.44L53.59 195.94M11.91 226.88L59.54 199.38M17.86 230.31L65.49 202.81M23.82 233.75L71.45 206.25M29.77 237.19L77.4 209.69M35.72 240.62L83.35 213.12M41.68 244.06L89.31 216.56M47.63 247.5L95.26 220.0M0.0 220.0L47.63 247.5M0.0 226.88L47.63 254.38M0.0 233.75L47.63 261.25M0.0 240.62L47.63 268.12M0.0 247.5L47.63 275.0M0.0 254.38L47.63 281.88M0.0 261.25L47.63 288.75M0.0 268.12L47.63 295.62M0.0 275.0L47.63 302.5M95.26 220.0L47.63 247.5M95.26 226.88L47.63 254.38M95.26 233.75L47.63 261.25M95.26 240.62L47.63 268.12M95.26 247.5L47.63 275.0M95.26 254.38L47.63 281.88M95.26 261.25L47.63 288.75M95.26 268.12L47.63 295.62M95.26 275.0L47.63 302.5M95.26 220.0L142.89 192.5M101.22 223.44L148.85 195.94M107.17 226.88L154.8 199.38M113.12 230.31L160.76 202.81M119.08 233.75L166.71 206.25M125.03 237.19L172.66 209.69M130.99 240.62L178.62 213.12M136.94 244.06L184.57 216.56M142.89 247.5L190.53 220.0M95.26 220.0L142.89 247.5M95.26 226.88L142.89 254.38M95.26 233.75L142.89 261.25M95.26 240.62L142.89 268.12M95.26 247.5L142.89 275.0M95.26 254.38L142.89 281.88M95.26 261.25L142.89 288.75M95.26 268.12L142.89 295.62M95.26 275.0L142.89 302.5M190.53 220.0L142.89 247.5M190.53 226.88L142.89 254.38M190.53 233.75L142.89 261.25M190.53 240.62L142.89 268.12M190.53 247.5L142.89 275.0M190.53 254.38L142.89 281.88M190.53 261.25L142.89 288.75M190.53 268.12L142.89 295.62M190.53 275.0L142.89 302.5M190.53 220.0L238.16 192.5M196.48 223.44L244.11 195.94M202.43 226.88L250.06 199.38M208.39 230.31L256.02 202.81M214.34 233.75L261.97 206.25M220.3 237.19L267.93 209.69M226.25 240.62L273.88 213.12M232.2 244.06L279.83 216.56M238.16 247.5L285.79 220.0M190.53 220.0L238.16 247.5M190.53 226.88L238.16 254.38M190.53 233.75L238.16 261.25M190.53 240.62L238.16 268.12M190.53 247.5L238.16 275.0M190.53 254.38L238.16 281.88M190.53 261.25L238.16 288.75M190.53 268.12L238.16 295.62M190.53 275.0L238.16 302.5M285.79 220.0L238.16 247.5M285.79 226.88L238.16 254.38M285.79 233.75L238.16 261.25M285.79 240.62L238.16 268.12M285.79 247.5L238.16 275.0M285.79 254.38L238.16 281.88M285.79 261.25L238.16 288.75M285.79 268.12L238.16 295.62M285.79 275.0L238.16 302.5M285.79 220.0L333.42 192.5M291.74 223.44L339.37 195.94M297.7 226.88L345.33 199.38M303.65 230.31L351.28 202.81M309.6 233.75L357.24 206.25M315.56 237.19L363.19 209.69M321.51 240.62L369.14 213.12M327.47 244.06L375.1 216.56M333.42 247.5L381.05 220.0M285.79 220.0L333.42 247.5M285.79 226.88L333.42 254.38M285.79 233.75L333.42 261.25M285.79 240.62L333.42 268.12M285.79 247.5L333.42 275.0M285.79 254.38L333.42 281.88M285.79 261.25L333.42 288.75M285.79 268.12L333.42 295.62M285.79 275.0L333.42 302.5M381.05 220.0L333.42 247.5M381.05 226.88L333.42 254.38M381.05 233.75L333.42 261.25M381.05 240.62L333.42 268.12M381.05 247.5L333.42 275.0M381.05 254.38L333.42 281.88M381.05 261.25L333.42 288.75M381.05 268.12L333.42 295.62M381.05 275.0L333.42 302.5M-238.16 302.5L-190.53 275.0M-232.2 305.94L-184.57 278.44M-226.25 309.38L-178.62 281.88M-220.3 312.81L-172.66 285.31M-214.34 316.25L-166.71 288.75M-208.39 319.69L-160.76 292.19M-202.43 323.12L-154.8 295.62M-196.48 326.56L-148.85 299.06M-190.53 330.0L-142.89 302.5M-238.16 302.5L-190.53 330.0M-238.16 309.38L-190.53 336.88M-238.16 316.25L-190.53 343.75M-238.16 323.12L-190.53 350.62M-238.16 330.0L-190.53 357.5M-238.16 336.88L-190.53 364.38M-238.16 343.75L-190.53 371.25M-238.16 350.62L-190.53 378.12M-238.16 357.5L-190.53 385.0M-142.89 302.5L-190.53 330.0M-142.89 309.38L-190.53 336.88M-142.89 316.25L-190.53 343.75M-142.89 323.12L-190.53 350.62M-142.89 330.0L-190.53 357.5M-142.89 336.88L-190.53 364.38M-142.89 343.75L-190.53 371.25M-142.89 350.62L-190.53 378.12M-142.89 357.5L-190.53 385.0M-142.89 302.5L-95.26 275.0M-136.94 305.94L-89.31 278.44M-130.99 309.38L-83.35 281.88M-125.03 312.81L-77.4 285.31M-119.08 316.25L-71.45 288.75M-113.12 319.69L-65.49 292.19M-107.17 323.12L-59.54 295.62M-101.22 326.56L-53.59 299.06M-95.26 330.0L-47.63 302.5M-142.89 302.5L-95.26 330.0M-142.89 309.38L-95.26 336.88M-142.89 316.25L-95.26 343.75M-142.89 323.12L-95.26 350.62M-142.89 330.0L-95.26 357.5M-142.89 336.88L-95.26 364.38M-142.89 343.75L-95.26 371.25M-142.89 350.62L-95.26 378.12M-142.89 357.5L-95.26 385.0M-47.63 302.5L-95.26 330.0M-47.63 309.38L-95.26 336.88M-47.63 316.25L-95.26 343.75M-47.63 323.12L-95.26 350.62M-47.63 330.0L-95.26 357.5M-47.63 336.88L-95.26 364.38M-47.63 343.75L-95.26 371.25M-47.63 350.62L-95.26 378.12M-47.63 357.5L-95.26 385.0M-47.63 302.5L0.0 275.0M-41.68 305.94L5.95 278.44M-35.72 309.38L11.91 281.88M-29.77 312.81L17.86 285.31M-23.82 316.25L23.82 288.75M-17.86 319.69L29.77 292.19M-11.91 323.12L35.72 295.62M-5.95 326.56L41.68 299.06M0.0 330.0L47.63 302.5M-47.63 302.5L0.0 330.0M-47.63 309.38L0.0 336.88M-47.63 316.25L0.0 343.75M-47.63 323.12L0.0 350.62M-47.63 330.0L0.0 357.5M-47.63 336.88L0.0 364.38M-47.63 343.75L0.0 371.25M-47.63 350.62L0.0 378.12M-47.63 357.5L0.0 385.0M47.63 302.5L0.0 330.0M47.63 309.38L0.0 336.88M47.63 316.25L0.0 343.75M47.63 323.12L0.0 350.62M47.63 330.0L0.0 357.5M47.63 336.88L0.0 364.38M47.63 343.75L0.0 371.25M47.63 350.62L0.0 378.12M47.63 357.5L0.0 385.0M47.63 302.5L95.26 275.0M53.59 305.94L101.22 278.44M59.54 309.38L107.17 281.88M65.49 312.81L113.12 285.31M71.45 316.25L119.08 288.75M77.4 319.69L125.03 292.19M83.35 323.12L130.99 295.62M89.31 326.56L136.94 299.06M95.26 330.0L142.89 302.5M47.63 302.5L95.26 330.0M47.63 309.38L95.26 336.88M47.63 316.25L95.26 343.75M47.63 323.12L95.26 350.62M47.63 330.0L95.26 357.5M47.63 336.88L95.26 364.38M47.63 343.75L95.26 371.25M47.63 350.62L95.26 378.12M47.63 357.5L95.26 385.0M142.89 302.5L95.26 330.0M142.89 309.38L95.26 336.88M142.89 316.25L95.26 343.75M142.89 323.12L95.26 350.62M142.89 330.0L95.26 357.5M142.89 336.88L95.26 364.38M142.89 343.75L95.26 371.25M142.89 350.62L95.26 378.12M142.89 357.5L95.26 385.0M142.89 302.5L190.53 275.0M148.85 305.94L196.48 278.44M154.8 309.38L202.43 281.88M160.76 312.81L208.39 285.31M166.71 316.25L214.34 288.75M172.66 319.69L220.3 292.19M178.62 323.12L226.25 295.62M184.57 326.56L232.2 299.06M190.53 330.0L238.16 302.5M142.89 302.5L190.53 330.0M142.89 309.38L190.53 336.88M142.89 316.25L190.53 343.75M142.89 323.12L190.53 350.62M142.89 330.0L190.53 357.5M142.89 336.88L190.53 364.38M142.89 343.75L190.53 371.25M142.89 350.62L190.53 378.12M142.89 357.5L190.53 385.0M238.16 302.5L190.53 330.0M238.16 309.38L190.53 336.88M238.16 316.25L190.53 343.75M238.16 323.12L190.53 350.62M238.16 330.0L190.53 357.5M238.16 336.88L190.53 364.38M238.16 343.75L190.53 371.25M238.16 350.62L190.53 378.12M238.16 357.5L190.53 385.0M238.16 302.5L285.79 275.0M244.11 305.94L291.74 278.44M250.06 309.38L297.7 281.88M256.02 312.81L303.65 285.31M261.97 316.25L309.6 288.75M267.93 319.69L315.56 292.19M273.88 323.12L321.51 295.62M279.83 326.56L327.47 299.06M285.79 330.0L333.42 302.5M238.16 302.5L285.79 330.0M238.16 309.38L285.79 336.88M238.16 316.25L285.79 343.75M238.16 323.12L285.79 350.62M238.16 330.0L285.79 357.5M238.16 336.88L285.79 364.38M238.16 343.75L285.79 371.25M238.16 350.62L285.79 378.12M238.16 357.5L285.79 385.0M333.42 302.5L285.79 330.0M333.42 309.38L285.79 336.88M333.42 316.25L285.79 343.75M333.42 323.12L285.79 350.62M333.42 330.0L285.79 357.5M333.42 336.88L285.79 364.38M333.42 343.75L285.79 371.25M333.42 350.62L285.79 378.12M333.42 357.5L285.79 385.0"/></g></svg>