<svg preserveAspectRatio="xMidYMid meet" width="208" height="64" overflow="visible" style="display: block;" viewBox="0 0 208 64" fill="none" xmlns="http://www.w3.org/2000/svg">
<g id="Shriram Group" clip-path="url(#clip0_0_4)">
<path id="Vector" d="M208 43.7906H0V64H208V43.7906Z" fill="var(--fill-0, #FFCB05)"/>
<path id="Vector_2" fill-rule="evenodd" clip-rule="evenodd" d="M49.3899 56.858L48.0173 45.9091L42.9725 46.4387C43.3026 45.5105 43.3759 44.703 43.1664 43.9584L43.5069 43.4864C43.9679 39.7948 44.1617 35.6156 44.5546 31.8086C44.8113 29.2968 43.5697 28.311 42.3282 27.9125L32.7258 23.3399C32.5372 22.2755 32.8043 21.0484 33.9149 20.5293C34.2764 20.3615 34.6379 19.921 34.6955 19.0506C34.8265 17.1051 33.9149 17.0999 33.8416 16.7014C33.7787 16.0249 33.9726 15.4114 34.554 14.8818C35.4813 13.9379 35.8742 12.7476 35.4079 11.7198C34.0721 8.77804 32.1495 10.3145 31.6885 10.1781C31.1594 9.97362 31.0337 9.63802 30.9027 9.37583C29.9912 7.36223 26.5232 6.41311 24.0558 6.41311C21.8242 6.41311 19.9225 6.97419 18.3667 8.83048C16.5908 10.1781 15.6164 12.5378 16.9208 15.4796C17.0622 15.8886 17.1146 16.8272 16.9208 17.037C16.4598 17.4302 16.0093 17.6977 15.5483 17.834C14.3853 15.9515 13.589 13.1251 12.7508 11.3789C12.6775 10.8546 12.8766 9.97362 13.0023 9.30242C13.1961 8.5578 13.0756 7.74502 12.8818 7.28357C12.5465 5.5374 12.0908 3.8594 11.5721 2.11323C11.1007 0.445719 10.6187 -0.0314625 9.92198 0C8.95283 0.04195 8.67518 1.24277 8.74852 2.99418C8.02035 3.13052 7.31837 3.60246 6.85214 4.26841C6.1292 3.9905 5.60534 4.195 5.14434 4.87145C4.65715 4.75084 4.24329 4.88718 3.90802 5.2018C3.54656 5.54789 3.35797 6.0408 3.3632 6.5442C3.37368 7.6821 3.79277 8.44769 4.63095 8.96682C4.23282 9.90021 4.75144 11.1168 5.79917 12.5955C5.79917 12.7266 5.6682 12.8472 5.54771 12.9835L4.96623 13.5289L7.31837 22.7317C7.84224 25.4217 8.35562 28.9141 8.87949 32.7367C8.99998 33.8799 9.06284 34.9444 8.87949 35.9617L6.915 48.1848C7.63793 48.9242 10.7759 49.7999 14.6263 50.6756L14.8882 52.8151L7.17693 54.7605C6.66354 55.0332 6.72641 56.2235 7.43886 56.3022L21.7456 54.8234L22.2747 52.6211C22.5942 52.2225 23.1181 52.1544 23.6524 52.5476L25.2764 57.5816L36.2618 60.5444C36.8538 60.665 37.3724 60.665 37.6344 60.3975C37.9539 60.0724 37.9539 59.3855 37.6344 58.6566L49.3951 56.8423V56.858H49.3899ZM16.3393 51.9027L16.2083 50.1512L17.3137 50.0883L17.5023 51.8292L16.3393 51.9027ZM30.3107 53.9844V52.1124C30.777 51.9027 31.2956 51.6929 31.7514 51.3678C32.16 51.3678 32.4848 51.5671 32.8043 52.0338L33.4539 55.7883C32.3486 55.3845 31.238 54.383 30.316 53.9844" fill="var(--fill-0, #231F20)"/>
<path id="Vector_3" fill-rule="evenodd" clip-rule="evenodd" d="M28.6291 15.2541C29.0849 15.2541 29.4045 15.5949 29.4045 16.0721C29.4045 16.5493 29.0849 16.8639 28.6291 16.8639C28.1734 16.8639 27.8433 16.5283 27.8433 16.0721C27.8433 15.6159 28.1734 15.2541 28.6291 15.2541ZM23.3067 11.1325C24.3387 11.3947 25.1245 11.3947 25.9051 10.8598C26.2351 11.0591 26.6856 11.2374 27.1361 11.1849C28.5348 11.0224 29.7345 10.5924 30.5779 11.6464C30.7036 12.0554 30.5779 12.3385 30.1798 12.5273C28.4353 11.9977 27.7229 12.5273 26.8166 14.1267C26.8742 14.5252 27.4505 14.2525 28.1105 13.7439C28.5034 13.251 29.0849 13.0412 29.4045 13.1985L31.2223 13.5289C31.7409 13.5289 32.2019 14.1948 32.1286 15.1282C32.2019 17.2624 31.6152 19.2079 31.8195 22.9362C31.8457 23.3662 31.7723 23.6808 31.6204 23.9377C31.458 24.2209 31.1646 24.4097 30.8398 24.4674C29.0849 24.782 27.3247 25.1543 25.575 25.5843C24.9307 25.6734 24.3387 25.6734 23.6996 25.4584C22.3952 25.0651 20.7817 24.6719 19.8701 24.0741C19.0215 23.5969 18.5552 22.6635 18.6286 21.3945C18.6967 20.2566 19.0844 19.3285 19.0215 17.8602L18.7019 13.6023C18.8277 12.3962 19.2887 11.5939 20.4621 11.5939C20.6507 11.6464 20.8445 12.0606 20.8445 12.3386C20.525 12.7948 20.2473 13.3191 20.0745 13.854C20.0011 14.3364 20.4621 14.5881 20.8445 14.1948C21.1693 13.5289 21.688 13.1985 22.6571 13.5289C23.3748 14.1267 23.8253 14.7874 23.8253 15.7994C23.7572 16.7905 23.7572 17.4722 23.6996 18.4003C23.6996 18.8093 23.7625 19.0768 24.0872 19.2131C24.2863 19.3914 24.2863 19.6693 24.213 19.8738C23.8882 20.136 23.5634 20.2723 23.2438 20.2094C22.4528 20.0102 21.7508 19.533 21.0855 18.9457C20.8393 18.5419 20.3835 18.9457 20.5197 19.339L21.688 20.4716C22.3899 21.1376 22.8562 23.1354 25.2555 23.1354C27.6548 23.277 28.1105 21.5518 28.6868 20.7443C28.9592 20.3458 29.2159 19.8791 29.6088 19.4805C29.9912 19.4019 30.2479 19.2708 30.3893 18.9509C30.2479 18.6101 29.9231 18.285 29.6088 18.4108C29.4045 18.4108 29.4673 18.5472 29.2787 18.7464L28.9539 19.3442C26.9999 20.6761 26.2298 20.4769 25.9627 19.6746L26.6751 18.9509C26.869 18.4737 26.5494 18.285 26.2822 18.4108C25.4336 18.9509 24.6583 18.9509 24.3335 18.0175C24.4016 17.0737 24.6059 15.9463 24.5325 15.0758C24.3335 14.0008 23.7572 13.1304 22.5209 12.2756C22.0756 11.9295 22.2747 10.8703 23.3015 11.143M21.7508 15.4691C22.2066 15.4691 22.589 15.8047 22.589 16.2714C22.589 16.7381 22.2066 17.0684 21.7508 17.0684C21.3527 17.0684 20.9703 16.7433 20.9703 16.2714C20.9703 15.7994 21.3527 15.4691 21.7508 15.4691ZM23.7625 20.7967H27.068C27.3352 20.7967 27.4557 20.9435 27.4033 21.1952C27.068 22.1391 26.3608 22.5376 25.3812 22.5376C24.4749 22.6058 23.8253 22.202 23.3748 21.599C22.9714 21.0694 23.1705 20.7967 23.7625 20.7967ZM26.8794 26.2083C28.2467 25.9356 29.5511 25.5895 30.7036 25.191C31.1542 25.0075 31.6152 25.1281 31.5366 25.6839C31.2904 26.6645 30.4993 28.0698 29.7293 29.0714C29.2787 29.6062 28.7653 29.6062 28.1105 29.0714C27.3981 28.4788 26.7432 27.7447 26.3556 26.9372C26.2875 26.4023 26.497 26.1506 26.8742 26.2083M23.3748 26.3446C22.0075 26.0143 21.4208 25.5371 20.2473 25.1333C19.8073 24.934 19.2834 25.1333 19.472 25.9356C19.6711 26.9372 20.1845 27.9387 21.4889 29.1448C21.9394 29.5433 21.8137 29.4017 22.3375 29.1448C23.0448 28.547 23.4377 27.944 23.8253 27.1417C23.951 26.6016 23.8253 26.4023 23.3696 26.3446M10.2677 3.62868C10.0058 2.57993 9.87483 1.70422 9.80149 0.96485C9.80149 0.513888 9.90102 0.304138 10.1996 0.3356C10.4196 0.356575 10.5978 0.513888 10.6868 0.718394C11.043 1.56264 11.394 2.63761 11.4988 3.95903L10.2677 3.62343V3.62868ZM9.41383 2.93126C8.83758 2.86309 8.50754 3.04662 8.31371 3.72831C8.11988 4.59353 8.31371 5.60033 9.09951 6.66481C9.49241 6.927 9.681 6.79066 9.80149 6.31872C9.15713 5.04973 9.54479 3.66538 9.41907 2.92601M7.33933 3.98001C6.62164 3.72306 6.38066 4.13208 6.30732 4.79279C6.24445 6.72249 7.08264 7.60344 8.06226 6.66481C7.60126 5.72093 7.33933 4.79279 7.33933 3.98525M5.39056 4.98156C4.94003 4.79279 4.80907 5.04973 4.74097 5.52167C4.68858 6.927 5.45342 7.98624 6.04539 7.32552C5.65773 6.65957 5.45866 5.59508 5.39579 4.98156M8.05702 7.46186C8.50754 7.06333 8.69613 7.33077 8.8952 7.86038C8.95807 8.26415 9.1519 8.65744 9.6129 9.0612C9.86435 9.38632 10.3254 9.72716 10.5139 10.0575C10.7863 9.99459 10.9645 9.65899 10.7864 9.33388C9.99008 8.73609 9.86435 8.53159 9.93769 7.72929C9.99008 7.20492 10.4563 6.927 11.1688 6.72773C10.6554 6.13519 10.252 5.52692 10.3253 4.93437C10.3882 4.46243 10.9068 4.3261 11.2945 4.65645C11.7503 4.93437 12.0803 5.4535 12.5937 6.85883C12.7823 7.33077 12.8556 7.79222 12.7246 8.32708C12.337 10.6658 10.3882 11.3999 9.03665 10.5295C8.63851 11.1377 7.86319 11.2688 7.27646 11.0643C6.24445 10.5295 6.10825 9.7324 6.10825 8.73609C6.04539 8.19074 6.24445 7.92855 6.56401 7.79222C6.96215 7.65063 7.78461 7.65063 8.05702 7.46186ZM36.9324 47.1571L47.2053 46.3548L48.1745 54.3567L38.1058 55.825L36.9324 47.1571ZM33.433 47.3458L35.8951 47.2252L36.9271 55.825C36.2147 56.1501 35.3713 56.0872 34.4702 55.6939L33.4277 47.3458H33.433ZM35.5127 43.6228C35.3713 42.2804 36.0313 41.2841 36.7543 40.744C37.1996 40.4084 37.9068 40.3402 38.4935 40.8069C38.8759 40.744 39.3369 40.8803 39.7927 41.2841C40.1908 41.2054 40.5732 41.4152 40.9609 41.756C42.0086 42.1545 42.8311 42.1755 42.5272 43.6175C42.4225 44.1 42.0872 44.5037 41.6105 44.897C40.9661 45.4266 40.3113 45.5525 40.1908 44.8184C40.1908 44.8184 39.3526 45.542 39.0121 45.6783C37.9801 46.0873 38.2892 44.8131 38.1635 43.8902C37.9906 42.6002 37.1995 42.4849 36.9271 43.1508C36.7962 44.4198 35.6542 44.5614 35.5127 43.6752C35.5127 43.6647 35.5075 43.6228 35.5075 43.6228H35.5127Z" fill="var(--fill-0, white)"/>
<path id="Vector_4" d="M72.8065 32.8574C72.8327 35.9197 72.5551 38.9978 68.8566 40.0098C67.9818 40.3087 65.1005 40.4241 62.895 40.4241C62.586 40.4241 62.2926 40.4241 62.015 40.4188C59.7257 40.4188 58.0755 40.3035 57.1116 40.0728C56.132 39.8368 55.299 39.4225 54.6442 38.8352C52.7111 37.2044 52.7373 34.378 52.7583 31.8873V31.7771H55.9643V31.882C55.9748 32.1652 55.9801 32.4483 55.9801 32.7315C56.001 34.4567 56.0167 36.0875 57.2897 36.895C57.6564 37.0943 58.2484 37.2411 59.0447 37.3303C59.8619 37.4194 61.5854 37.4666 64.1628 37.4666C64.3985 37.4561 64.629 37.4509 64.8543 37.4456C66.625 37.3984 67.9032 37.367 69.0138 36.3916C69.5062 35.7257 69.5219 34.8919 69.5481 33.8379C69.5481 33.6701 69.5481 33.5023 69.5638 33.3293C69.5534 33.0986 69.5429 32.8678 69.5376 32.6581C69.4433 30.2564 69.4172 29.6115 67.0074 29.344L59.3747 28.762C57.0435 28.5837 55.3986 27.9964 54.487 27.0158C52.9731 25.6944 52.795 20.7548 53.5598 18.6468C54.8485 15.2855 57.3473 15.2541 60.8048 15.2069C61.1977 15.2016 61.6011 15.1964 62.0202 15.1859C66.0068 15.1702 69.4433 15.1597 71.2088 17.037C72.2879 18.1853 72.6965 20.0206 72.4556 22.632L72.4451 22.7317H69.2548V22.6268C69.2443 22.3751 69.2443 22.1234 69.2443 21.8664C69.2443 20.781 69.2443 19.6641 68.6471 18.9771C68.3432 18.6835 67.767 18.4685 66.9393 18.3374C66.0749 18.2063 64.3985 18.1381 61.9573 18.1381C59.5161 18.1381 57.9079 18.4056 57.295 18.9299C56.9125 19.1607 56.6192 19.8791 56.4777 20.9016C56.2472 22.5534 56.4672 24.331 56.9754 24.8711C57.3631 25.3483 58.1436 25.6367 59.2961 25.7311L67.086 26.3656C71.3607 26.7798 72.7542 28.3582 72.8118 32.8678V32.8574H72.8065ZM93.2582 15.1597V25.8674H79.4334V15.1597H76.2588V40.4241H79.4334V28.914H93.2582V40.4241H96.4328V15.1597H93.2582ZM116.235 29.2601C118.362 30.0782 118.765 31.494 118.833 34.2155V40.4241H115.522V35.0702C115.522 33.3607 115.26 32.1966 114.737 31.6146C114.223 31.0378 113.175 30.7494 111.62 30.7494H103.06V40.4241H99.885V15.1597H111.29C114.108 15.1597 116.093 15.5949 117.178 16.4497C118.278 17.3149 118.833 18.867 118.833 21.0484V24.7977C118.812 27.2151 117.985 28.6466 116.235 29.2601ZM115.522 21.5308C115.522 20.2619 115.239 19.3914 114.684 18.9404C114.113 18.4737 112.783 18.243 110.739 18.243H103.06V27.7185H110.739C112.741 27.7185 114.056 27.4773 114.653 27.0001C115.234 26.5386 115.528 25.6734 115.528 24.4254V21.5308H115.522ZM122.28 15.1597V40.4241H125.491V15.1597H122.28ZM145.288 29.2601C147.415 30.0782 147.819 31.494 147.887 34.2155V40.4241H144.576V35.0702C144.576 33.3607 144.314 32.1966 143.795 31.6146C143.282 31.0378 142.234 30.7494 140.678 30.7494H132.118V40.4241H128.944V15.1597H140.348C143.172 15.1597 145.152 15.5949 146.236 16.4497C147.337 17.3149 147.897 18.867 147.897 21.0484V24.7977C147.871 27.2151 147.043 28.6466 145.299 29.2601H145.288ZM144.576 21.5308C144.576 20.2619 144.293 19.3914 143.738 18.9404C143.167 18.4737 141.841 18.243 139.793 18.243H132.113V27.7185H139.793C141.794 27.7185 143.109 27.4773 143.706 27.0001C144.288 26.5386 144.581 25.6734 144.581 24.4254V21.5308H144.576ZM174.798 40.4241H171.492L169.15 34.0634H156.934L154.645 40.4241H151.339L151.376 40.3297C151.428 40.1934 160.522 15.4691 160.611 15.2331L160.638 15.1597H165.457L174.803 40.4241H174.798ZM168.103 31.1636L163.325 18.2378H162.754L158.013 31.1636H168.103ZM204.632 15.1597H199.712L191.462 36.8531L183.132 15.1597H178.245V40.4241H181.419V18.9195C182.729 22.3646 189.544 40.3507 189.565 40.4084V40.4241H193.3L201.452 18.9195V40.4241H204.626V15.1597H204.632Z" fill="var(--fill-0, #231F20)"/>
<path id="Vector_5" d="M168.873 51.9027C168.873 49.48 169.753 48.6778 172.262 48.6778H173.451C175.725 48.6778 176.841 49.4171 176.841 51.1109V51.5146H175.767V51.3993C175.767 49.9782 175.07 49.6636 173.388 49.6636H172.561C171.628 49.6636 170.968 49.6898 170.455 50.1303C169.988 50.534 169.962 51.1528 169.962 52.1596V54.8392C169.962 55.8512 169.988 56.47 170.455 56.8737C170.984 57.3247 171.644 57.3404 172.561 57.3404H173.388C174.227 57.3404 174.824 57.3299 175.3 56.9262C175.725 56.5644 175.767 55.9823 175.767 55.0646V54.4826H173.158V53.523H176.841V55.1014C176.841 57.5187 175.961 58.321 173.451 58.321H172.262C169.753 58.321 168.873 57.5187 168.873 55.1014V51.9027ZM178.601 58.2057V51.5513H179.559V52.4585C179.842 51.7611 180.424 51.4622 181.382 51.4622C182.881 51.4622 183.347 52.1334 183.347 53.8428V53.8953H182.352V53.7013C182.352 52.6787 182.116 52.3536 181.147 52.3536C180.01 52.3536 179.596 52.9881 179.596 54.3358V58.2057H178.601ZM187.066 58.3C185.076 58.3 184.389 57.6131 184.389 55.6729V54.0946C184.389 52.1544 185.06 51.4674 187.051 51.4674H187.517C189.508 51.4674 190.194 52.1544 190.194 54.0946V55.6729C190.194 57.6131 189.523 58.3 187.533 58.3H187.066ZM189.172 55.4527V54.3148C189.172 52.7626 188.979 52.3746 187.517 52.3746H187.051C185.589 52.3746 185.406 52.7626 185.406 54.3148V55.4527C185.406 57.0048 185.589 57.4086 187.051 57.4086H187.517C188.979 57.4086 189.172 57.0101 189.172 55.4527ZM197.387 51.5566V58.2109H196.444V57.3037C196.119 57.9907 195.412 58.3 194.259 58.3C192.488 58.3 191.907 57.6551 191.907 55.9194V51.5566H192.892V55.7096C192.892 57.0048 193.138 57.4034 194.406 57.4034C195.789 57.4034 196.396 56.7951 196.396 55.4212V51.5513H197.392H197.387V51.5566ZM199.435 51.5566H200.378V52.5896C200.703 51.7978 201.373 51.4622 202.484 51.4622C204.412 51.4622 205.072 52.1858 205.072 54.0893V55.6677C205.072 57.5712 204.412 58.2948 202.484 58.2948C201.436 58.2948 200.802 58.0221 200.414 57.2565V60.7489H199.43V51.5461V51.5566H199.435ZM200.414 55.4265C200.414 56.8108 201.022 57.4086 202.447 57.4086C203.872 57.4086 204.05 56.9576 204.05 55.4527V54.3148C204.05 52.8151 203.882 52.3589 202.447 52.3589C201.012 52.3589 200.414 52.9567 200.414 54.341V55.4265Z" fill="var(--fill-0, #010101)"/>
</g>
<defs>
<clipPath id="clip0_0_4">
<rect width="208" height="64" fill="white"/>
</clipPath>
</defs>
</svg>
