<svg width="54" height="54" viewBox="0 0 54 54" fill="none" xmlns="http://www.w3.org/2000/svg">
<rect width="54" height="54" rx="27" fill="#FFF0D7"/>
<path fill-rule="evenodd" clip-rule="evenodd" d="M41.4218 44.4534L40.5387 37.2695L37.2904 37.6154C37.5018 37.0046 37.5516 36.4775 37.4143 35.9889L37.6323 35.6773C37.9298 33.2562 38.0537 30.5111 38.3068 28.0144C38.4737 26.3673 37.6727 25.7181 36.8718 25.4587L30.6848 22.4569C30.5623 21.7583 30.7346 20.9513 31.4494 20.6122C31.6836 20.5011 31.9138 20.2142 31.9502 19.6418C32.0323 18.364 31.4494 18.3613 31.3996 18.1005C31.3579 17.6571 31.4858 17.2536 31.8573 16.9077C32.455 16.2887 32.7081 15.5063 32.4079 14.8324C31.5477 12.9026 30.3092 13.9087 30.0117 13.8209C29.6698 13.6877 29.589 13.4681 29.5055 13.2938C28.9173 11.972 26.684 11.3503 25.0942 11.3503C23.6551 11.3503 22.4314 11.7167 21.4299 12.9369C20.2857 13.8209 19.6583 15.3691 20.4984 17.3016C20.5899 17.5707 20.6235 18.1856 20.4984 18.3228C20.2022 18.5795 19.9101 18.7552 19.6139 18.8471C18.8655 17.6132 18.3526 15.7575 17.8128 14.6114C17.7656 14.2656 17.8949 13.6877 17.9729 13.2499C18.0968 12.7626 18.0214 12.2301 17.8949 11.9254C17.6795 10.7793 17.3833 9.67988 17.0508 8.5338C16.7547 7.43576 16.4437 7.12419 15.9954 7.1434C15.3722 7.17086 15.1931 7.9587 15.2389 9.11027C14.7691 9.20086 14.3181 9.50831 14.0179 9.94752C13.5521 9.7636 13.2129 9.89948 12.9181 10.3442C12.6031 10.2632 12.3379 10.3538 12.1225 10.5611C11.8883 10.7862 11.7698 11.1128 11.7725 11.4409C11.7792 12.1889 12.0498 12.6899 12.5883 13.0303C12.3312 13.6424 12.6664 14.4399 13.3394 15.413C13.3394 15.4981 13.256 15.5791 13.1766 15.6683L12.8023 16.0279L14.3181 22.0671C14.6546 23.8336 14.9858 26.1258 15.3237 28.6334C15.4018 29.3842 15.4435 30.0828 15.3237 30.7485L14.0569 38.7711C14.5227 39.2583 16.5433 39.8293 19.0256 40.4071L19.1926 41.8113L14.2225 43.0864C13.8914 43.2648 13.9331 44.0485 14.3908 44.0979L23.6066 43.1262L23.9486 41.6809C24.1545 41.4187 24.4924 41.3748 24.8357 41.6328L25.8817 44.9379L32.9598 46.8842C33.3394 46.9638 33.6733 46.9638 33.8442 46.7895C34.0502 46.5767 34.0502 46.1265 33.8442 45.6462L41.4191 44.4562L41.4218 44.4534ZM20.1308 41.2018L20.0447 40.053L20.7582 40.0105L20.8793 41.1524L20.1308 41.2018ZM29.13 42.5675V41.3405C29.4315 41.2018 29.764 41.0646 30.0561 40.8505C30.32 40.8505 30.5286 40.9809 30.7359 41.2869L31.1533 43.752C30.4398 43.4871 29.725 42.8311 29.13 42.5675Z" fill="black"/>
<path fill-rule="evenodd" clip-rule="evenodd" d="M28.0491 17.1557C28.3425 17.1557 28.5485 17.378 28.5485 17.6924C28.5485 18.0067 28.3439 18.2126 28.0491 18.2126C27.7543 18.2126 27.5416 17.9916 27.5416 17.6924C27.5416 17.3931 27.7556 17.1557 28.0491 17.1557ZM24.6177 14.4504C25.2827 14.6233 25.7875 14.6233 26.2923 14.2733C26.505 14.4051 26.7945 14.5231 27.0852 14.4875C27.9885 14.379 28.7572 14.0976 29.3024 14.7894C29.3845 15.0598 29.3024 15.2437 29.0479 15.3659C27.9239 15.0173 27.4662 15.3659 26.8806 16.4159C26.9183 16.678 27.2898 16.4982 27.7152 16.1647C27.9697 15.8422 28.3425 15.7035 28.5472 15.8078L29.717 16.0247C30.0522 16.0247 30.3483 16.4626 30.3012 17.0747C30.3483 18.4761 29.9714 19.7526 30.102 22.1998C30.1195 22.4812 30.0697 22.6898 29.9754 22.8586C29.8704 23.0453 29.6806 23.1675 29.472 23.2045C28.3425 23.4118 27.2077 23.6575 26.0783 23.9388C25.6637 23.9978 25.28 23.9978 24.8694 23.8551C24.0281 23.5971 22.9915 23.3376 22.4019 22.9451C21.8554 22.6335 21.5538 22.02 21.6023 21.1869C21.6454 20.4416 21.8971 19.8322 21.8554 18.8673L21.6481 16.0714C21.7302 15.2794 22.025 14.7524 22.7815 14.7524C22.9027 14.788 23.0292 15.0584 23.0292 15.2424C22.8219 15.5416 22.6442 15.8861 22.5325 16.2388C22.4867 16.5545 22.7815 16.7192 23.0292 16.4626C23.2365 16.0247 23.5731 15.8078 24.1977 16.0247C24.6581 16.4173 24.9502 16.8496 24.9502 17.5139C24.9071 18.1659 24.9071 18.6106 24.8681 19.2214C24.8681 19.489 24.9085 19.6647 25.1198 19.7539C25.2464 19.872 25.2464 20.0531 25.2019 20.1863C24.9919 20.3592 24.7833 20.4471 24.5773 20.4059C24.0671 20.2769 23.6135 19.9626 23.1881 19.5769C23.0306 19.312 22.7344 19.5769 22.8233 19.8349L23.5744 20.5761C24.0281 21.0139 24.3256 22.3233 25.8737 22.3233C27.4204 22.418 27.7139 21.2843 28.0841 20.7545C28.2577 20.4937 28.4247 20.1876 28.6777 19.9255C28.9241 19.8733 29.0883 19.7896 29.1799 19.5782C29.0883 19.3545 28.8783 19.1404 28.6777 19.2227C28.5458 19.2227 28.5876 19.312 28.465 19.4424L28.2577 19.8363C26.9977 20.7106 26.5037 20.5775 26.3327 20.0545L26.7918 19.5782C26.9183 19.2653 26.7123 19.1404 26.5373 19.2227C25.9921 19.5782 25.4914 19.5782 25.28 18.9647C25.3258 18.3457 25.4564 17.6059 25.4093 17.0363C25.28 16.3322 24.9098 15.7598 24.1142 15.1984C23.8262 14.9733 23.954 14.2761 24.6164 14.4545L24.6177 14.4504ZM23.6162 17.2943C23.9096 17.2943 24.156 17.5139 24.156 17.82C24.156 18.1261 23.9096 18.3429 23.6162 18.3429C23.359 18.3429 23.1113 18.1288 23.1113 17.82C23.1113 17.5112 23.359 17.2943 23.6162 17.2943ZM24.9112 20.7916H27.0408C27.2145 20.7916 27.2898 20.889 27.2562 21.0537C27.0408 21.6714 26.5831 21.9335 25.9545 21.9335C25.3716 21.9802 24.9529 21.7126 24.6608 21.3186C24.4023 20.9714 24.5289 20.7902 24.9098 20.7902L24.9112 20.7916ZM26.9197 24.3437C27.8014 24.1639 28.6414 23.9388 29.3845 23.6767C29.6753 23.5545 29.9728 23.6369 29.9216 23.9992C29.7614 24.6429 29.2552 25.5639 28.7585 26.2227C28.4677 26.5755 28.1366 26.5755 27.7166 26.2227C27.2575 25.8357 26.8375 25.3512 26.5845 24.8214C26.54 24.4714 26.6747 24.3039 26.9197 24.3437ZM24.6621 24.4316C23.7804 24.2147 23.4021 23.9018 22.6483 23.6369C22.3656 23.5051 22.029 23.6369 22.1502 24.1653C22.2781 24.8214 22.6092 25.4816 23.4506 26.2708C23.7414 26.5329 23.6606 26.4396 23.9971 26.2708C24.4535 25.8769 24.7052 25.4816 24.9543 24.9559C25.0364 24.6004 24.9543 24.4714 24.6621 24.4329V24.4316ZM16.2163 9.52432C16.0467 8.8353 15.9632 8.26157 15.9148 7.77706C15.9148 7.48196 15.9794 7.34471 16.1705 7.3653C16.3119 7.38039 16.4276 7.48333 16.4828 7.61784C16.7117 8.17235 16.9365 8.87647 17.0078 9.7453L16.2163 9.52432ZM15.6671 9.06451C15.2969 9.02059 15.0842 9.14 14.9563 9.58745C14.8297 10.1543 14.9563 10.8159 15.4611 11.5159C15.7142 11.6888 15.8367 11.5969 15.9134 11.2908C15.4974 10.459 15.7492 9.54902 15.6657 9.06588L15.6671 9.06451ZM14.329 9.7549C13.8686 9.58608 13.7111 9.85373 13.664 10.2861C13.6236 11.5543 14.1647 12.1294 14.7934 11.5145C14.4972 10.8955 14.329 10.2861 14.329 9.7549ZM13.0757 10.411C12.7863 10.2861 12.7015 10.4576 12.657 10.7665C12.622 11.6875 13.1174 12.3833 13.4957 11.951C13.2467 11.5145 13.1161 10.8145 13.0757 10.411ZM14.7934 12.0375C15.0842 11.7753 15.2067 11.951 15.3346 12.2982C15.3749 12.5631 15.5001 12.8212 15.7963 13.0875C15.9592 13.3016 16.254 13.5253 16.3778 13.7408C16.5515 13.701 16.6673 13.48 16.5515 13.2659C16.0386 12.872 15.9578 12.7388 16.0049 12.2131C16.0399 11.8686 16.3401 11.6875 16.7978 11.5543C16.4667 11.1645 16.2082 10.7665 16.254 10.3794C16.2944 10.0692 16.6282 9.97863 16.8786 10.1969C17.1721 10.3794 17.3834 10.7198 17.7146 11.6422C17.8357 11.951 17.8828 12.2543 17.798 12.6043C17.549 14.1388 16.293 14.6206 15.4221 14.0482C15.1649 14.4463 14.6669 14.5327 14.2886 14.401C13.6236 14.0482 13.5361 13.5267 13.5361 12.872C13.4957 12.5151 13.6236 12.3422 13.8309 12.2543C14.0853 12.1624 14.617 12.1624 14.7934 12.0375ZM33.3947 38.0857L40.0125 37.56L40.6357 42.8114L34.1486 43.7749L33.3934 38.0857H33.3947ZM31.1412 38.2092L32.7284 38.131L33.3947 43.7735C32.937 43.9877 32.3932 43.9451 31.813 43.6871L31.1412 38.2078V38.2092ZM32.4793 35.7675C32.3891 34.8876 32.8118 34.2329 33.2803 33.8788C33.5684 33.6578 34.0234 33.6139 34.4016 33.92C34.648 33.8788 34.9441 33.9694 35.2403 34.2316C35.4947 34.1808 35.7451 34.3167 35.9915 34.5404C36.6659 34.8026 37.1976 34.8149 36.9997 35.7606C36.9338 36.079 36.7157 36.3439 36.4088 36.5992C35.9942 36.9451 35.5715 37.0288 35.4947 36.5484C35.4947 36.5484 34.9536 37.0233 34.7341 37.1126C34.0691 37.3829 34.2684 36.5443 34.1889 35.9404C34.0772 35.0949 33.5684 35.0194 33.3934 35.4573C33.3099 36.2918 32.5722 36.3837 32.4834 35.8031C32.4834 35.7976 32.4793 35.7675 32.4793 35.7675Z" fill="white"/>
</svg>
