<?xml version="1.0" encoding="UTF-8"?>
<svg id="Layer_1" xmlns="http://www.w3.org/2000/svg" version="1.1" viewBox="0 0 397.17 158.81">
  <!-- Generator: Adobe Illustrator 30.5.1, SVG Export Plug-In . SVG Version: 2.1.4 Build 3)  -->
  <path d="M397.05,83.51H0v38.54h397.05v-38.54Z" fill="#ffcb05"/>
  <path d="M94.28,108.43l-2.62-20.88-9.63,1.01c.63-1.77.77-3.31.37-4.73l.65-.9c.88-7.04,1.25-15.01,2-22.27.49-4.79-1.88-6.67-4.25-7.43l-18.33-8.72c-.36-2.03.15-4.37,2.27-5.36.69-.32,1.38-1.16,1.49-2.82.25-3.71-1.49-3.72-1.63-4.48-.12-1.29.25-2.46,1.36-3.47,1.77-1.8,2.52-4.07,1.63-6.03-2.55-5.61-6.22-2.68-7.1-2.94-1.01-.39-1.25-1.03-1.5-1.53-1.74-3.84-8.36-5.65-13.07-5.65-4.26,0-7.89,1.07-10.86,4.61-3.39,2.57-5.25,7.07-2.76,12.68.27.78.37,2.57,0,2.97-.88.75-1.74,1.26-2.62,1.52-2.22-3.59-3.74-8.98-5.34-12.31-.14-1,.24-2.68.48-3.96.37-1.42.14-2.97-.23-3.85-.64-3.33-1.51-6.53-2.5-9.86C21.19.85,20.27-.06,18.94,0c-1.85.08-2.38,2.37-2.24,5.71-1.39.26-2.73,1.16-3.62,2.43-1.38-.53-2.38-.14-3.26,1.15-.93-.23-1.72.03-2.36.63-.69.66-1.05,1.6-1.04,2.56.02,2.17.82,3.63,2.42,4.62-.76,1.78.23,4.1,2.23,6.92,0,.25-.25.48-.48.74l-1.11,1.04,4.49,17.55c1,5.13,1.98,11.79,2.98,19.08.23,2.18.35,4.21,0,6.15l-3.75,23.31c1.38,1.41,7.37,3.08,14.72,4.75l.5,4.08-14.72,3.71c-.98.52-.86,2.79.5,2.94l27.31-2.82,1.01-4.2c.61-.76,1.61-.89,2.63-.14l3.1,9.6,20.97,5.65c1.13.23,2.12.23,2.62-.28.61-.62.61-1.93,0-3.32l22.45-3.46v.03ZM31.19,98.98l-.25-3.34,2.11-.12.36,3.32-2.22.14ZM57.86,102.95v-3.57c.89-.4,1.88-.8,2.75-1.42.78,0,1.4.38,2.01,1.27l1.24,7.16c-2.11-.77-4.23-2.68-5.99-3.44" fill="#231f20" fill-rule="evenodd"/>
  <path d="M54.65,29.09c.87,0,1.48.65,1.48,1.56s-.61,1.51-1.48,1.51-1.5-.64-1.5-1.51.63-1.56,1.5-1.56ZM44.49,21.23c1.97.5,3.47.5,4.96-.52.63.38,1.49.72,2.35.62,2.67-.31,4.96-1.13,6.57.88.24.78,0,1.32-.76,1.68-3.33-1.01-4.69,0-6.42,3.05.11.76,1.21.24,2.47-.73.75-.94,1.86-1.34,2.47-1.04l3.47.63c.99,0,1.87,1.27,1.73,3.05.14,4.07-.98,7.78-.59,14.89.05.82-.09,1.42-.38,1.91-.31.54-.87.9-1.49,1.01-3.35.6-6.71,1.31-10.05,2.13-1.23.17-2.36.17-3.58-.24-2.49-.75-5.57-1.5-7.31-2.64-1.62-.91-2.51-2.69-2.37-5.11.13-2.17.87-3.94.75-6.74l-.61-8.12c.24-2.3,1.12-3.83,3.36-3.83.36.1.73.89.73,1.42-.61.87-1.14,1.87-1.47,2.89-.14.92.74,1.4,1.47.65.62-1.27,1.61-1.9,3.46-1.27,1.37,1.14,2.23,2.4,2.23,4.33-.13,1.89-.13,3.19-.24,4.96,0,.78.12,1.29.74,1.55.38.34.38.87.24,1.26-.62.5-1.24.76-1.85.64-1.51-.38-2.85-1.29-4.12-2.41-.47-.77-1.34,0-1.08.75l2.23,2.16c1.34,1.27,2.23,5.08,6.81,5.08,4.58.27,5.45-3.02,6.55-4.56.52-.76,1.01-1.65,1.76-2.41.73-.15,1.22-.4,1.49-1.01-.27-.65-.89-1.27-1.49-1.03-.39,0-.27.26-.63.64l-.62,1.14c-3.73,2.54-5.2,2.16-5.71.63l1.36-1.38c.37-.91-.24-1.27-.75-1.03-1.62,1.03-3.1,1.03-3.72-.75.13-1.8.52-3.95.38-5.61-.38-2.05-1.48-3.71-3.84-5.34-.85-.66-.47-2.68,1.49-2.16M41.52,29.5c.87,0,1.6.64,1.6,1.53s-.73,1.52-1.6,1.52c-.76,0-1.49-.62-1.49-1.52s.73-1.53,1.49-1.53ZM45.36,39.66h6.31c.51,0,.74.28.64.76-.64,1.8-1.99,2.56-3.86,2.56-1.73.13-2.97-.64-3.83-1.79-.77-1.01-.39-1.53.74-1.53ZM51.31,49.98c2.61-.52,5.1-1.18,7.3-1.94.86-.35,1.74-.12,1.59.94-.47,1.87-1.98,4.55-3.45,6.46-.86,1.02-1.84,1.02-3.09,0-1.36-1.13-2.61-2.53-3.35-4.07-.13-1.02.27-1.5.99-1.39M44.62,50.24c-2.61-.63-3.73-1.54-5.97-2.31-.84-.38-1.84,0-1.48,1.53.38,1.91,1.36,3.82,3.85,6.12.86.76.62.49,1.62,0,1.35-1.14,2.1-2.29,2.84-3.82.24-1.03,0-1.41-.87-1.52M19.6,6.92c-.5-2-.75-3.67-.89-5.08,0-.86.19-1.26.76-1.2.42.04.76.34.93.73.68,1.61,1.35,3.66,1.55,6.18l-2.35-.64h0ZM17.97,5.59c-1.1-.13-1.73.22-2.1,1.52-.37,1.65,0,3.57,1.5,5.6.75.5,1.11.24,1.34-.66-1.23-2.42-.49-5.06-.73-6.47M14.01,7.59c-1.37-.49-1.83.29-1.97,1.55-.12,3.68,1.48,5.36,3.35,3.57-.88-1.8-1.38-3.57-1.38-5.11M10.29,9.5c-.86-.36-1.11.13-1.24,1.03-.1,2.68,1.36,4.7,2.49,3.44-.74-1.27-1.12-3.3-1.24-4.47M15.38,14.23c.86-.76,1.22-.25,1.6.76.12.77.49,1.52,1.37,2.29.48.62,1.36,1.27,1.72,1.9.52-.12.86-.76.52-1.38-1.52-1.14-1.76-1.53-1.62-3.06.1-1,.99-1.53,2.35-1.91-.98-1.13-1.75-2.29-1.61-3.42.12-.9,1.11-1.16,1.85-.53.87.53,1.5,1.52,2.48,4.2.36.9.5,1.78.25,2.8-.74,4.46-4.46,5.86-7.04,4.2-.76,1.16-2.24,1.41-3.36,1.02-1.97-1.02-2.23-2.54-2.23-4.44-.12-1.04.26-1.54.87-1.8.76-.27,2.33-.27,2.85-.63ZM70.5,89.93l19.61-1.53,1.85,15.26-19.22,2.8-2.24-16.53ZM63.82,90.29l4.7-.23,1.97,16.4c-1.36.62-2.97.5-4.69-.25l-1.99-15.92h.01ZM67.79,83.19c-.27-2.56.99-4.46,2.37-5.49.85-.64,2.2-.77,3.32.12.73-.12,1.61.14,2.48.91.76-.15,1.49.25,2.23.9,2,.76,3.57.8,2.99,3.55-.2.92-.84,1.69-1.75,2.44-1.23,1.01-2.48,1.25-2.71-.15,0,0-1.6,1.38-2.25,1.64-1.97.78-1.38-1.65-1.62-3.41-.33-2.46-1.84-2.68-2.36-1.41-.25,2.42-2.43,2.69-2.7,1,0-.02-.01-.1-.01-.1h.01Z" fill="#fff" fill-rule="evenodd"/>
  <path d="M138.98,62.66c.05,5.84-.48,11.71-7.54,13.64-1.67.57-7.17.79-11.38.79-.59,0-1.15,0-1.68-.01-4.37,0-7.52-.22-9.36-.66-1.87-.45-3.46-1.24-4.71-2.36-3.69-3.11-3.64-8.5-3.6-13.25v-.21h6.12v.2c.02.54.03,1.08.03,1.62.04,3.29.07,6.4,2.5,7.94.7.38,1.83.66,3.35.83,1.56.17,4.85.26,9.77.26.45-.02.89-.03,1.32-.04,3.38-.09,5.82-.15,7.94-2.01.94-1.27.97-2.86,1.02-4.87,0-.32.01-.64.03-.97-.02-.44-.04-.88-.05-1.28-.18-4.58-.23-5.81-4.83-6.32l-14.57-1.11c-4.45-.34-7.59-1.46-9.33-3.33-2.89-2.52-3.23-11.94-1.77-15.96,2.46-6.41,7.23-6.47,13.83-6.56.75-.01,1.52-.02,2.32-.04,7.61-.03,14.17-.05,17.54,3.53,2.06,2.19,2.84,5.69,2.38,10.67l-.02.19h-6.09v-.2c-.02-.48-.02-.96-.02-1.45,0-2.07,0-4.2-1.14-5.51-.58-.56-1.68-.97-3.26-1.22-1.65-.25-4.85-.38-9.51-.38s-7.73.51-8.9,1.51c-.73.44-1.29,1.81-1.56,3.76-.44,3.15-.02,6.54.95,7.57.74.91,2.23,1.46,4.43,1.64l14.87,1.21c8.16.79,10.82,3.8,10.93,12.4v-.02ZM178.02,28.91v20.42h-26.39v-20.42h-6.06v48.18h6.06v-21.95h26.39v21.95h6.06V28.91h-6.06ZM221.88,55.8c4.06,1.56,4.83,4.26,4.96,9.45v11.84h-6.32v-10.21c0-3.26-.5-5.48-1.5-6.59-.98-1.1-2.98-1.65-5.95-1.65h-16.34v18.45h-6.06V28.91h21.77c5.38,0,9.17.83,11.24,2.46,2.1,1.65,3.16,4.61,3.16,8.77v7.15c-.04,4.61-1.62,7.34-4.96,8.51ZM220.52,41.06c0-2.42-.54-4.08-1.6-4.94-1.09-.89-3.63-1.33-7.53-1.33h-14.66v18.07h14.66c3.82,0,6.33-.46,7.47-1.37,1.11-.88,1.67-2.53,1.67-4.91v-5.52h0ZM233.42,28.91v48.18h6.13V28.91h-6.13ZM277.34,55.8c4.06,1.56,4.83,4.26,4.96,9.45v11.84h-6.32v-10.21c0-3.26-.5-5.48-1.49-6.59-.98-1.1-2.98-1.65-5.95-1.65h-16.34v18.45h-6.06V28.91h21.77c5.39,0,9.17.83,11.24,2.46,2.1,1.65,3.17,4.61,3.17,8.77v7.15c-.05,4.61-1.63,7.34-4.96,8.51h-.02ZM275.98,41.06c0-2.42-.54-4.08-1.6-4.94-1.09-.89-3.62-1.33-7.53-1.33h-14.66v18.07h14.66c3.82,0,6.33-.46,7.47-1.37,1.11-.88,1.67-2.53,1.67-4.91v-5.52h0ZM333.67,77.09h-6.31l-4.47-12.13h-23.32l-4.37,12.13h-6.31l.07-.18c.1-.26,17.46-47.41,17.63-47.86l.05-.14h9.2l17.84,48.18h0ZM320.89,59.43l-9.12-24.65h-1.09l-9.05,24.65h19.26ZM390.62,28.91h-9.39l-15.75,41.37-15.9-41.37h-9.33v48.18h6.06v-41.01c2.5,6.57,15.51,40.87,15.55,40.98v.03h7.13l15.56-41.01v41.01h6.06V28.91h.01Z" fill="#231f20"/>
  <path d="M181.62,111v-17.94h11.21v1.9h-9.23v5.87h8.96v1.83h-8.96v8.34h-1.97ZM196.03,111v-12.69h1.88v12.69h-1.88ZM196.03,95.18v-2.12h1.88v2.12h-1.88ZM201.81,111v-12.69h1.8v1.73c.62-1.31,1.95-1.9,4.15-1.9,3.38,0,4.49,1.23,4.49,4.54v8.32h-1.88v-7.92c0-2.47-.44-3.23-2.86-3.23-2.64,0-3.83,1.16-3.83,3.78v7.38h-1.88ZM224.42,109.67c-.62,1.11-1.9,1.51-4,1.51-3.7,0-5.01-.72-5.01-4.02,0-1.6.22-2.64,1.01-3.31.69-.57,1.95-.72,3.9-.72,2.07,0,3.33.27,4,1.23v-2.2c0-2.25-.67-2.47-3.63-2.47-2.12,0-2.91.27-2.94,1.75h-1.88v-.3c0-2.3,1.46-3.01,4.69-3.01,2.37,0,3.88.15,4.61.72.96.74,1.01,1.75,1.01,3.26v8.89h-1.7l-.07-1.33ZM224.32,107.77v-1.33c0-1.26-1.28-1.75-3.85-1.75-2.37,0-3.09.42-3.09,2.25,0,2.02.69,2.49,3.28,2.49,2.44,0,3.65-.62,3.65-1.65ZM229.99,111v-12.69h1.8v1.73c.62-1.31,1.95-1.9,4.15-1.9,3.38,0,4.49,1.23,4.49,4.54v8.32h-1.88v-7.92c0-2.47-.45-3.23-2.86-3.23-2.64,0-3.83,1.16-3.83,3.78v7.38h-1.88ZM248.8,111.18c-3.8,0-5.11-1.31-5.11-5.01v-3.01c0-3.7,1.28-5.01,5.08-5.01h.89c3.5,0,5.04,1.21,5.11,4.42h-1.95c-.07-2.22-.91-2.69-3.16-2.69h-.89c-2.79,0-3.13.74-3.13,3.7v2.17c0,2.96.34,3.73,3.13,3.73h.89c2.32,0,3.16-.57,3.16-2.94v-.22h1.95v.25c0,3.36-1.51,4.62-5.08,4.62h-.89ZM258.16,111v-12.69h1.88v12.69h-1.88ZM258.16,95.18v-2.12h1.88v2.12h-1.88ZM272.34,109.67c-.62,1.11-1.9,1.51-4,1.51-3.7,0-5.01-.72-5.01-4.02,0-1.6.22-2.64,1.01-3.31.69-.57,1.95-.72,3.9-.72,2.07,0,3.33.27,4,1.23v-2.2c0-2.25-.67-2.47-3.63-2.47-2.12,0-2.91.27-2.94,1.75h-1.88v-.3c0-2.3,1.46-3.01,4.69-3.01,2.37,0,3.88.15,4.61.72.96.74,1.01,1.75,1.01,3.26v8.89h-1.7l-.07-1.33ZM272.24,107.77v-1.33c0-1.26-1.28-1.75-3.85-1.75-2.37,0-3.09.42-3.09,2.25,0,2.02.69,2.49,3.28,2.49,2.44,0,3.65-.62,3.65-1.65ZM277.9,111v-17.94h1.88v17.94h-1.88ZM291.78,105.15h1.97v.35c0,1.88.2,2.96,1.04,3.43.79.44,2.44.44,5.06.44,1.85,0,3.04-.2,3.63-.84.32-.35.44-1.13.44-2.39,0-2.22-.1-2.96-2-3.11l-5.53-.44c-3.18-.25-4.39-1.33-4.39-4.76,0-1.93.32-3.21,1.33-4.1.94-.84,2.57-.89,4.96-.89h.64c2.62,0,4.44.05,5.78,1.18.69.59,1.01,1.65,1.01,3.23,0,.27,0,.57-.02.86h-2v-.44c0-1.16-.1-1.9-.49-2.3-.62-.62-2.22-.67-4.96-.67-3.21,0-4.19.25-4.19,3.13,0,2.07.49,2.67,2.25,2.81l5.65.47c3.04.27,4,1.53,4,4.66,0,1.85-.12,3.16-.99,4.12-1.14,1.28-2.96,1.33-5.77,1.33h-.89c-2.35,0-4.02-.05-5.23-1.14-.94-.81-1.31-2.15-1.31-4.07,0-.3,0-.59.02-.89ZM314.21,111.18c-3.8,0-5.11-1.31-5.11-5.01v-3.01c0-3.7,1.28-5.01,5.08-5.01h.89c3.8,0,5.11,1.31,5.11,5.01v1.93h-9.13c-.02.39-.02.76-.02,1.09,0,2.69.69,3.31,3.16,3.31h.89c2.02,0,2.96-.39,3.14-2.2h1.95c-.2,2.84-1.75,3.9-5.06,3.9h-.89ZM311.05,103.43h7.18v-.49c0-2.49-.76-3.06-3.16-3.06h-.89c-2.39,0-3.13.57-3.13,3.06v.49ZM323.55,111v-12.69h1.83v1.73c.54-1.33,1.65-1.9,3.48-1.9,2.86,0,3.75,1.28,3.75,4.54v.1h-1.9v-.37c0-1.95-.44-2.57-2.29-2.57-2.17,0-2.96,1.21-2.96,3.78v7.38h-1.9ZM333.34,98.32h1.88l3.78,10.91,3.78-10.91h1.83l-4.37,12.69h-2.44l-4.44-12.69ZM346.76,111v-12.69h1.88v12.69h-1.88ZM346.76,95.18v-2.12h1.88v2.12h-1.88ZM357.14,111.18c-3.8,0-5.11-1.31-5.11-5.01v-3.01c0-3.7,1.28-5.01,5.08-5.01h.89c3.51,0,5.04,1.21,5.11,4.42h-1.95c-.07-2.22-.91-2.69-3.16-2.69h-.89c-2.79,0-3.13.74-3.13,3.7v2.17c0,2.96.35,3.73,3.13,3.73h.89c2.32,0,3.16-.57,3.16-2.94v-.22h1.95v.25c0,3.36-1.51,4.62-5.08,4.62h-.89ZM371.09,111.18c-3.8,0-5.11-1.31-5.11-5.01v-3.01c0-3.7,1.28-5.01,5.08-5.01h.89c3.8,0,5.11,1.31,5.11,5.01v1.93h-9.13c-.02.39-.02.76-.02,1.09,0,2.69.69,3.31,3.16,3.31h.89c2.02,0,2.96-.39,3.14-2.2h1.95c-.2,2.84-1.75,3.9-5.06,3.9h-.89ZM367.93,103.43h7.18v-.49c0-2.49-.77-3.06-3.16-3.06h-.89c-2.39,0-3.14.57-3.14,3.06v.49ZM379.98,107.23h1.9v.3c0,1.73,1.04,2.05,3.63,2.05s3.58-.05,3.58-2.17c0-1.85-.57-2.05-2.79-2.17-2.57-.12-4.22-.05-4.89-.42-1.04-.57-1.33-1.48-1.33-3.06,0-3.18,1.53-3.6,5.8-3.6,3.33,0,4.84.54,4.84,3.21h-1.88v-.12c0-1.26-1.09-1.48-3.63-1.48s-3.26.25-3.26,2c0,.79.05,1.26.49,1.5.69.37,1.75.32,3.26.37,1.95.07,3.23.2,3.8.44,1.19.54,1.56,1.48,1.56,3.21s-.32,2.62-1.6,3.41c-.59.37-1.9.49-3.92.49-3.9,0-5.55-.49-5.55-3.6v-.35Z" fill="#010101"/>
  <path d="M367.89,147.89h.9v7c0,.52-.05,1.01-.16,1.49-.1.47-.29.89-.56,1.25-.27.36-.64.65-1.11.86-.47.21-1.07.32-1.81.32-.57,0-1.06-.07-1.47-.22-.41-.14-.74-.33-1-.55-.26-.22-.46-.46-.59-.73-.14-.26-.21-.51-.22-.74h.96c.07.29.18.53.33.71.15.18.33.33.53.43.2.1.43.18.68.22.25.04.51.06.78.06.61,0,1.1-.1,1.46-.31.37-.21.65-.48.84-.82s.31-.72.37-1.15c.05-.43.08-.87.07-1.32-.29.48-.69.84-1.19,1.08s-1.03.37-1.58.37c-.59,0-1.1-.11-1.53-.34-.43-.22-.79-.52-1.08-.9-.28-.37-.5-.81-.64-1.31-.14-.5-.21-1.02-.21-1.55,0-.57.06-1.1.19-1.6s.34-.93.62-1.29.65-.65,1.08-.86c.44-.21.97-.31,1.6-.31.25,0,.5.04.76.1s.51.17.76.3c.24.13.47.29.67.49.2.2.37.42.5.67h.03v-1.36h.02ZM367.89,151.79c0-.47-.06-.9-.17-1.31-.11-.4-.28-.75-.5-1.05-.22-.29-.49-.53-.82-.7-.33-.17-.7-.25-1.12-.25-.38,0-.73.07-1.05.2-.32.13-.6.33-.84.59-.24.26-.43.57-.56.95-.13.37-.2.8-.2,1.29-.02.49.02.94.12,1.37.1.42.26.8.48,1.11s.5.57.84.76.74.28,1.21.28c.41,0,.78-.09,1.1-.26s.6-.41.82-.7c.22-.29.4-.64.52-1.03.12-.39.18-.81.18-1.25h0Z" fill="#323e48"/>
  <path d="M371.31,155.63h-.9v-7.74h.9v1.45h.03c.25-.62.57-1.05.96-1.29.39-.24.91-.37,1.56-.37v.97c-.51,0-.93.07-1.26.24-.33.17-.59.4-.78.69s-.33.63-.4,1.02c-.07.39-.11.81-.11,1.23v3.8Z" fill="#323e48"/>
  <path d="M377.76,155.84c-.5-.01-.96-.1-1.4-.27-.43-.17-.81-.42-1.14-.76-.33-.34-.58-.76-.77-1.27s-.28-1.1-.28-1.78c0-.57.07-1.1.22-1.59.15-.49.37-.92.67-1.29.3-.37.67-.66,1.12-.87.45-.21.97-.32,1.57-.32s1.14.11,1.58.32c.45.21.82.5,1.12.87.3.36.52.79.66,1.29.14.5.22,1.03.22,1.6,0,.62-.08,1.18-.25,1.67-.17.49-.41.93-.72,1.29-.31.36-.69.64-1.14.83-.44.19-.93.29-1.47.29h.01ZM380.39,151.76c0-.46-.05-.89-.15-1.29-.1-.4-.25-.74-.46-1.04-.21-.29-.48-.53-.81-.7s-.73-.25-1.21-.25-.87.09-1.2.28c-.33.19-.6.43-.81.73s-.36.65-.46,1.05c-.1.39-.15.8-.15,1.22,0,.48.06.92.17,1.32.11.4.28.75.5,1.04.22.29.49.51.82.67.33.16.71.24,1.14.24.47,0,.87-.09,1.2-.28.33-.19.6-.43.81-.74s.36-.66.46-1.05c.1-.39.15-.79.15-1.21h0Z" fill="#323e48"/>
  <path d="M387.56,147.89h.9v7.74h-.9v-1.08c-.12.14-.25.28-.4.43-.15.15-.32.29-.52.41-.19.12-.42.23-.68.31-.26.08-.56.13-.9.13-.52,0-.95-.07-1.3-.22-.35-.14-.63-.35-.84-.61-.21-.26-.37-.56-.46-.9-.09-.34-.14-.72-.14-1.13v-5.1h.9v5.08c0,.67.15,1.18.46,1.53.31.35.82.53,1.52.53.37,0,.7-.07.99-.22.29-.14.54-.35.74-.61.2-.26.35-.57.46-.93.11-.36.16-.75.16-1.18v-4.22.04Z" fill="#323e48"/>
  <path d="M390.96,158.68h-.9v-10.79h.9v1.36h.03c.13-.25.3-.47.5-.67.2-.2.43-.36.67-.49.24-.13.49-.23.76-.3.26-.07.51-.1.76-.1.63,0,1.16.1,1.6.31.44.21.8.5,1.08.86.28.36.49.79.62,1.29.13.5.19,1.03.19,1.6,0,.54-.07,1.06-.21,1.55-.14.5-.35.93-.64,1.31-.28.37-.64.67-1.08.9-.43.22-.94.34-1.53.34-.55,0-1.07-.12-1.58-.37-.5-.24-.9-.61-1.19-1.08v4.29h.02ZM390.96,151.79c0,.44.06.85.18,1.25.12.39.29.74.52,1.03.22.29.5.53.82.7.32.17.69.26,1.1.26.46,0,.86-.09,1.2-.28.34-.19.62-.44.84-.76.22-.32.38-.69.48-1.11.1-.42.14-.88.12-1.37,0-.49-.07-.92-.2-1.29-.14-.37-.32-.69-.56-.95-.24-.26-.52-.46-.84-.59-.32-.14-.67-.2-1.05-.2-.42,0-.79.08-1.12.25-.33.17-.6.4-.82.7-.22.29-.39.64-.5,1.05-.11.4-.17.84-.17,1.31Z" fill="#323e48"/>
  <path d="M259.93,149.56c.12,1.22.59,2.07,1.39,2.56.8.49,1.77.73,2.89.73.39,0,.84-.03,1.34-.09s.97-.18,1.41-.35.8-.42,1.08-.75.41-.76.38-1.3c-.02-.54-.22-.97-.58-1.32-.37-.34-.84-.62-1.41-.82-.57-.21-1.23-.38-1.96-.53-.73-.15-1.48-.3-2.23-.48-.78-.17-1.53-.38-2.25-.62-.72-.24-1.37-.57-1.94-.99-.57-.41-1.03-.94-1.37-1.59-.34-.65-.51-1.44-.51-2.4,0-1.02.25-1.88.75-2.58.5-.7,1.13-1.26,1.9-1.68.77-.43,1.62-.72,2.56-.9.94-.17,1.83-.26,2.69-.26.97,0,1.91.1,2.8.31.89.21,1.69.54,2.41,1.01.72.46,1.32,1.07,1.79,1.81.48.74.77,1.64.9,2.69h-4.35c-.2-1-.65-1.67-1.37-2.01-.72-.34-1.54-.51-2.47-.51-.29,0-.64.02-1.04.07-.4.05-.78.14-1.13.27-.35.13-.65.33-.9.59-.24.26-.37.59-.37,1.01,0,.51.18.93.53,1.24.35.32.82.58,1.39.79.58.21,1.23.38,1.96.53.73.15,1.49.31,2.27.48.76.17,1.5.38,2.24.62.73.24,1.39.57,1.96.99.57.41,1.04.94,1.39,1.57.35.63.53,1.41.53,2.34,0,1.12-.26,2.07-.77,2.85s-1.18,1.41-2,1.9c-.82.49-1.73.84-2.73,1.06s-1.99.33-2.97.33c-1.2,0-2.3-.13-3.32-.4-1.01-.27-1.89-.68-2.64-1.23-.74-.55-1.33-1.23-1.76-2.05-.43-.82-.65-1.79-.68-2.91h4.17l.02.02Z" fill="#0075c9"/>
  <path d="M274.74,142.34c.44-.66,1-1.2,1.69-1.6.68-.4,1.45-.69,2.31-.86.85-.17,1.71-.26,2.58-.26.78,0,1.58.06,2.38.17.8.11,1.54.33,2.2.65.66.32,1.21.77,1.63,1.34.42.57.63,1.33.63,2.28v8.11c0,.7.04,1.38.12,2.02s.22,1.13.42,1.45h-4.34c-.08-.24-.15-.49-.2-.74-.05-.25-.09-.51-.11-.77-.68.7-1.49,1.2-2.41,1.48-.92.28-1.87.42-2.83.42-.74,0-1.44-.09-2.08-.27-.64-.18-1.21-.46-1.69-.84-.48-.38-.86-.86-1.13-1.45-.27-.58-.41-1.28-.41-2.08,0-.88.16-1.61.47-2.19.31-.57.71-1.03,1.21-1.37.49-.34,1.06-.6,1.69-.77s1.27-.31,1.91-.41c.64-.1,1.28-.18,1.9-.24s1.18-.15,1.66-.27c.48-.12.86-.3,1.15-.53.28-.23.41-.57.39-1.01,0-.46-.07-.83-.23-1.1-.15-.27-.35-.48-.6-.63-.25-.15-.54-.25-.87-.3-.33-.05-.69-.08-1.07-.08-.84,0-1.51.18-1.99.54-.48.36-.76.96-.84,1.81h-4.28c.06-1,.31-1.84.75-2.5h-.01ZM283.2,148.38c-.27.09-.56.17-.87.23-.31.06-.64.11-.98.15-.34.04-.68.09-1.02.15-.32.06-.64.14-.95.24s-.58.24-.81.41c-.23.17-.42.39-.56.65-.14.26-.21.59-.21.99s.07.7.21.96c.14.26.33.47.57.62.24.15.52.26.84.32.32.06.65.09.99.09.84,0,1.5-.14,1.96-.42s.8-.62,1.02-1.01c.22-.39.36-.79.41-1.19.05-.4.07-.72.07-.96v-1.6c-.18.16-.41.29-.68.38h.01Z" fill="#0075c9"/>
  <path d="M293.92,140.04v2.17h.09c.54-.9,1.25-1.56,2.11-1.97.86-.41,1.75-.62,2.65-.62,1.15,0,2.08.16,2.82.47.73.31,1.31.74,1.73,1.3.42.55.72,1.23.89,2.02.17.79.26,1.67.26,2.64v9.59h-4.28v-8.8c0-1.29-.2-2.25-.6-2.88s-1.12-.95-2.14-.95c-1.17,0-2.01.35-2.53,1.04-.52.69-.78,1.83-.78,3.42v8.17h-4.28v-15.58h4.07v-.02Z" fill="#0075c9"/>
  <path d="M310.39,134.11v21.52h-4.28v-21.52h4.28Z" fill="#0075c9"/>
  <path d="M312.88,142.34c.44-.66,1-1.2,1.69-1.6.68-.4,1.45-.69,2.31-.86.85-.17,1.71-.26,2.58-.26.78,0,1.58.06,2.38.17.8.11,1.54.33,2.2.65.66.32,1.21.77,1.63,1.34.42.57.63,1.33.63,2.28v8.11c0,.7.04,1.38.12,2.02.08.64.22,1.13.42,1.45h-4.34c-.08-.24-.15-.49-.2-.74-.05-.25-.09-.51-.11-.77-.68.7-1.49,1.2-2.41,1.48-.92.28-1.87.42-2.83.42-.74,0-1.44-.09-2.08-.27-.64-.18-1.21-.46-1.69-.84-.48-.38-.86-.86-1.13-1.45-.27-.58-.41-1.28-.41-2.08,0-.88.16-1.61.47-2.19.31-.57.71-1.03,1.21-1.37.49-.34,1.05-.6,1.69-.77.63-.17,1.27-.31,1.91-.41.64-.1,1.28-.18,1.9-.24.62-.06,1.18-.15,1.66-.27.48-.12.86-.3,1.15-.53.28-.23.41-.57.39-1.01,0-.46-.08-.83-.23-1.1-.15-.27-.35-.48-.6-.63-.25-.15-.54-.25-.87-.3-.33-.05-.69-.08-1.07-.08-.84,0-1.51.18-1.99.54-.48.36-.76.96-.84,1.81h-4.28c.06-1,.31-1.84.75-2.5h0ZM321.34,148.38c-.27.09-.56.17-.87.23-.31.06-.64.11-.98.15-.34.04-.68.09-1.02.15-.32.06-.64.14-.95.24s-.58.24-.81.41-.42.39-.56.65c-.14.26-.21.59-.21.99s.07.7.21.96c.14.26.33.47.57.62.24.15.52.26.84.32s.65.09.99.09c.84,0,1.5-.14,1.96-.42.46-.28.8-.62,1.03-1.01.22-.39.36-.79.41-1.19.05-.4.08-.72.08-.96v-1.6c-.18.16-.41.29-.68.38h-.01Z" fill="#0075c9"/>
  <path d="M331.97,140.04v2.11h.06c.56-.8,1.24-1.43,2.03-1.87.79-.44,1.7-.66,2.73-.66s1.88.19,2.7.57c.81.38,1.43,1.06,1.85,2.02.46-.68,1.09-1.29,1.88-1.81s1.73-.78,2.82-.78c.82,0,1.59.1,2.29.3.7.2,1.31.52,1.81.96s.89,1.02,1.18,1.73c.28.71.42,1.57.42,2.58v10.43h-4.28v-8.83c0-.52-.02-1.01-.06-1.48-.04-.46-.15-.86-.33-1.21-.18-.34-.45-.61-.8-.81-.35-.2-.83-.3-1.43-.3s-1.09.12-1.46.35c-.37.23-.66.53-.87.9-.21.37-.35.79-.42,1.27-.07.47-.11.95-.11,1.43v8.68h-4.28v-8.74c0-.46-.01-.92-.03-1.37-.02-.45-.11-.87-.26-1.25s-.4-.69-.75-.92c-.35-.23-.87-.35-1.55-.35-.2,0-.47.05-.8.14-.33.09-.65.26-.96.51s-.58.61-.8,1.09c-.22.47-.33,1.09-.33,1.85v9.04h-4.28v-15.58h4.04-.01Z" fill="#0075c9"/>
  <path d="M240.63,143.17c0-2.48-2.03-4.49-4.54-4.49s-4.54,2.01-4.54,4.49,2.03,4.49,4.54,4.49,4.54-2.01,4.54-4.49Z" fill="#0075c9"/>
  <path d="M234.46,149.44c-1.12-1.03-2.15-1.69-2.94-2.93-.68-.9-1.13-2.15-1.13-3.27s.34-2.03.9-2.82c.73-1.18,1.51-2.35,2.14-3.39.3-.51.61-1.03.92-1.63.68-1.24,1.69-2.71.45-4.4,0,0-.34.56-9.82,13.31,0,.01-.02.02-.03.04-.13.2-.21.43-.21.72v.02c0,.36.1.66.27.92l3.57,5.8c.33.62.43,1.78.45,2.71v1.94c0,1.02.86,1.61,1.97,1.62h4.38v-4.94c0-.34,0-1.98-.1-2.35-.13-.58-.38-.94-.83-1.36h.01Z" fill="#0075c9"/>
  <path d="M237.71,149.44c1.12-1.03,2.14-1.69,2.94-2.93.68-.9,1.13-2.15,1.13-3.27s-.34-2.03-.9-2.82c-.73-1.18-1.51-2.35-2.14-3.39-.3-.51-.61-1.03-.92-1.63-.68-1.24-1.69-2.71-.45-4.4,0,0,.34.56,9.82,13.31,0,.01.02.02.03.04.13.2.21.43.21.72v.02c0,.36-.1.66-.27.92l-3.57,5.8c-.33.62-.43,1.78-.45,2.71v1.94c0,1.02-.86,1.61-1.97,1.62h-4.38v-4.94c0-.34,0-1.98.1-2.35.13-.58.38-.94.83-1.36h0Z" fill="#0075c9"/>
  <path d="M126.96,151.18c.17-.02.37-.05.6-.09.23-.04.43-.09.57-.16.14-.07.24-.19.28-.35.04-.16.05-.32.05-.46,0-.46-.15-.83-.44-1.13-.29-.29-.79-.44-1.49-.44-.31,0-.59.03-.85.08-.26.06-.49.15-.68.28-.19.13-.35.31-.48.54-.13.23-.21.51-.25.84h-.91c.03-.46.13-.85.31-1.17.18-.32.41-.59.69-.79s.61-.35.99-.45c.37-.09.77-.14,1.19-.14.39,0,.75.04,1.1.13.34.09.64.22.9.4.25.18.45.43.6.74.14.31.22.69.22,1.13v4.21c0,.35.06.57.19.66.12.09.38.07.75-.07v.7c-.07.02-.17.05-.31.09-.13.04-.27.06-.4.06-.14,0-.27-.02-.4-.05-.15-.02-.27-.07-.36-.14-.09-.07-.16-.16-.22-.27s-.09-.22-.11-.34c-.02-.12-.03-.26-.03-.4-.38.42-.81.74-1.3.96-.49.22-1.02.33-1.58.33-.34,0-.66-.04-.98-.13s-.59-.23-.83-.42-.43-.42-.57-.69-.21-.6-.21-.98c0-1.31.9-2.09,2.7-2.33l1.24-.16h.02ZM128.47,151.63c-.38.16-.76.26-1.15.31s-.78.09-1.16.12c-.69.05-1.22.2-1.61.46-.38.26-.57.65-.57,1.18,0,.24.05.45.14.62.09.17.22.32.37.43s.33.2.54.25c.2.06.41.08.62.08.36,0,.71-.04,1.05-.13.34-.09.64-.23.9-.41.26-.18.48-.42.63-.7.16-.28.24-.62.24-1.01v-1.21h0Z" fill="#323e48"/>
  <path d="M131.56,153.27c.14.67.39,1.14.75,1.41.36.27.88.41,1.56.41.33,0,.61-.04.85-.12s.44-.19.59-.32c.15-.13.27-.29.35-.46s.12-.35.12-.54c0-.38-.12-.66-.37-.84-.24-.18-.55-.33-.92-.43-.37-.1-.77-.19-1.19-.27s-.83-.19-1.19-.34c-.36-.15-.67-.36-.92-.64-.24-.28-.37-.67-.37-1.18,0-.65.24-1.18.71-1.59s1.14-.62,2.01-.62,1.52.19,2.04.56c.52.37.84,1,.95,1.87h-.91c-.08-.6-.31-1.02-.68-1.26-.37-.24-.84-.37-1.41-.37s-1,.12-1.3.37c-.3.24-.45.56-.45.96,0,.35.12.62.37.8.24.18.55.33.92.45.37.11.77.22,1.19.31.43.09.83.22,1.19.38.37.16.67.39.92.66.24.28.37.67.37,1.16,0,.37-.08.69-.24.98-.16.28-.38.52-.66.71-.28.19-.61.33-.99.43-.38.09-.8.14-1.26.14s-.86-.07-1.22-.2-.65-.32-.9-.56c-.25-.24-.44-.52-.58-.84-.14-.32-.22-.66-.24-1.03h.91Z" fill="#323e48"/>
  <path d="M138.36,153.27c.14.67.39,1.14.75,1.41.36.27.88.41,1.56.41.33,0,.61-.04.85-.12.24-.08.44-.19.59-.32.15-.13.27-.29.35-.46.08-.17.12-.35.12-.54,0-.38-.12-.66-.37-.84-.24-.18-.55-.33-.92-.43-.37-.1-.77-.19-1.19-.27-.42-.08-.83-.19-1.19-.34-.36-.15-.67-.36-.92-.64-.24-.28-.37-.67-.37-1.18,0-.65.24-1.18.71-1.59s1.14-.62,2.01-.62,1.52.19,2.04.56c.52.37.84,1,.95,1.87h-.91c-.08-.6-.31-1.02-.68-1.26-.37-.24-.84-.37-1.41-.37s-1,.12-1.3.37c-.3.24-.45.56-.45.96,0,.35.12.62.37.8.24.18.55.33.92.45.37.11.77.22,1.19.31.43.09.83.22,1.19.38.37.16.67.39.92.66.24.28.37.67.37,1.16,0,.37-.08.69-.24.98-.16.28-.38.52-.66.71-.28.19-.61.33-.99.43-.38.09-.8.14-1.26.14s-.86-.07-1.22-.2-.65-.32-.9-.56c-.25-.24-.44-.52-.58-.84-.14-.32-.22-.66-.24-1.03h.91Z" fill="#323e48"/>
  <path d="M147.7,155.9c-.5,0-.96-.1-1.4-.27-.43-.17-.81-.42-1.14-.76-.33-.34-.58-.76-.77-1.27-.19-.51-.28-1.1-.28-1.78,0-.57.07-1.1.22-1.59.15-.49.37-.92.67-1.29s.67-.66,1.12-.87c.45-.21.97-.32,1.57-.32s1.13.11,1.58.32c.45.21.82.5,1.12.87.3.36.52.79.66,1.29s.22,1.03.22,1.6c0,.62-.08,1.17-.25,1.67s-.41.93-.72,1.28c-.31.36-.69.63-1.13.83-.44.19-.93.29-1.47.29ZM150.33,151.82c0-.46-.05-.89-.15-1.28-.1-.4-.25-.74-.46-1.04-.21-.29-.48-.53-.81-.69s-.73-.25-1.21-.25-.87.09-1.2.28c-.33.18-.6.43-.81.73-.21.3-.36.65-.46,1.05-.1.39-.15.8-.15,1.22,0,.48.06.92.17,1.32.11.4.28.75.5,1.04.22.29.49.51.82.67.33.16.71.24,1.14.24.47,0,.87-.09,1.2-.28s.6-.43.81-.74c.21-.31.36-.66.46-1.05.1-.39.15-.79.15-1.21h0Z" fill="#323e48"/>
  <path d="M157.74,150.39c-.16-.58-.43-1.03-.82-1.35-.39-.32-.88-.49-1.48-.49-.46,0-.85.09-1.18.28s-.6.44-.81.75c-.21.31-.36.67-.46,1.06-.1.39-.15.79-.15,1.19s.05.81.14,1.19c.09.39.25.74.46,1.05.21.31.48.55.81.74s.73.28,1.19.28c.67,0,1.2-.18,1.61-.55.4-.37.66-.88.77-1.52h.96c-.08.43-.21.82-.38,1.17-.17.35-.4.66-.67.91-.27.25-.6.45-.98.59s-.81.21-1.3.21c-.62,0-1.15-.1-1.6-.31-.45-.21-.82-.49-1.1-.86-.29-.36-.5-.79-.64-1.29s-.21-1.03-.21-1.6c0-.54.08-1.05.23-1.55.15-.5.38-.93.68-1.31.3-.38.67-.68,1.11-.9s.95-.34,1.53-.34c.9,0,1.62.21,2.17.64.55.43.9,1.1,1.04,2h-.92Z" fill="#323e48"/>
  <path d="M166.08,151.18c.17-.02.37-.05.6-.09.23-.04.43-.09.57-.16.14-.07.24-.19.28-.35.04-.16.05-.32.05-.46,0-.46-.15-.83-.44-1.13-.29-.29-.79-.44-1.49-.44-.31,0-.59.03-.85.08-.26.06-.49.15-.68.28-.19.13-.35.31-.48.54s-.21.51-.25.84h-.91c.03-.46.13-.85.31-1.17.18-.32.41-.59.69-.79s.61-.35.99-.45c.37-.09.77-.14,1.19-.14.39,0,.75.04,1.1.13.34.09.64.22.9.4.25.18.45.43.6.74.14.31.22.69.22,1.13v4.21c0,.35.06.57.19.66.12.09.38.07.75-.07v.7c-.07.02-.17.05-.31.09-.13.04-.27.06-.4.06-.14,0-.27-.02-.4-.05-.15-.02-.27-.07-.36-.14-.09-.07-.16-.16-.22-.27s-.09-.22-.11-.34c-.02-.12-.03-.26-.03-.4-.38.42-.81.74-1.3.96-.49.22-1.02.33-1.58.33-.34,0-.66-.04-.98-.13-.32-.09-.59-.23-.83-.42-.24-.19-.43-.42-.57-.69s-.21-.6-.21-.98c0-1.31.9-2.09,2.7-2.33l1.24-.16h.02ZM167.59,151.63c-.38.16-.76.26-1.15.31s-.78.09-1.16.12c-.69.05-1.22.2-1.61.46-.38.26-.57.65-.57,1.18,0,.24.05.45.14.62.09.17.22.32.37.43s.33.2.54.25c.2.06.41.08.62.08.36,0,.71-.04,1.05-.13.34-.09.64-.23.9-.41.26-.18.48-.42.63-.7.16-.28.24-.62.24-1.01v-1.21h0Z" fill="#323e48"/>
  <path d="M172.88,155.72c-.11.02-.25.05-.43.1-.18.05-.38.07-.6.07-.45,0-.79-.11-1.02-.34-.23-.22-.35-.63-.35-1.2v-5.87h-1.09v-.75h1.09v-2.56h.9v2.56h1.45v.75h-1.45v5.51c0,.19,0,.35.02.49,0,.14.04.25.09.34.05.09.13.16.23.19.1.04.25.06.44.06.12,0,.24,0,.37-.03.13-.03.25-.05.37-.07v.73l-.02.02Z" fill="#323e48"/>
  <path d="M208.67,155.72c-.11.02-.25.05-.43.1-.18.05-.38.07-.6.07-.45,0-.79-.11-1.02-.34-.23-.22-.35-.63-.35-1.2v-5.87h-1.09v-.75h1.09v-2.56h.9v2.56h1.45v.75h-1.45v5.51c0,.19,0,.35.02.49,0,.14.04.25.09.34.05.09.13.16.23.19.1.04.25.06.44.06.12,0,.24,0,.37-.03.13-.03.25-.05.37-.07v.73l-.02.02Z" fill="#323e48"/>
  <path d="M174.19,152.03c0,.42.05.81.16,1.19.11.37.27.7.49.97.21.27.49.49.81.66.33.16.71.25,1.14.25.59,0,1.09-.15,1.51-.46s.7-.75.84-1.31h1c-.11.37-.25.71-.43,1.02-.18.31-.4.59-.67.82-.27.23-.59.42-.96.55s-.8.19-1.28.19c-.62,0-1.15-.1-1.6-.31-.45-.21-.82-.49-1.1-.86-.29-.36-.5-.79-.64-1.28-.14-.49-.21-1.02-.21-1.59s.08-1.1.25-1.6c.16-.5.4-.93.7-1.31.3-.37.67-.67,1.11-.88s.94-.32,1.49-.32c1.07,0,1.9.37,2.51,1.1s.91,1.79.9,3.19h-6l-.02-.02ZM179.24,151.29c0-.38-.05-.73-.16-1.07-.1-.33-.26-.62-.46-.87-.2-.24-.46-.44-.77-.58-.31-.14-.66-.22-1.06-.22s-.75.07-1.05.22c-.3.15-.56.35-.78.6-.22.25-.39.54-.51.87-.13.33-.21.68-.25,1.05h5.05,0Z" fill="#323e48"/>
  <path d="M187.24,145.18h.9v10.51h-.9v-1.36h-.03c-.13.26-.3.49-.5.68-.2.19-.43.36-.67.49-.24.13-.5.23-.75.3-.26.07-.51.1-.76.1-.63,0-1.16-.1-1.6-.31-.44-.21-.8-.49-1.08-.86-.28-.37-.49-.79-.62-1.29-.13-.5-.19-1.03-.19-1.6,0-.54.07-1.06.21-1.55.14-.49.35-.93.63-1.31.28-.38.64-.67,1.08-.9.43-.22.94-.34,1.53-.34.55,0,1.07.12,1.58.37.5.24.9.6,1.19,1.08v-4.01h-.02ZM187.24,151.79c0-.44-.06-.85-.18-1.25-.12-.39-.29-.74-.51-1.03-.22-.29-.5-.53-.82-.7-.32-.17-.69-.26-1.1-.26-.47,0-.87.09-1.21.28-.34.18-.62.44-.84.75-.22.32-.38.69-.48,1.11-.1.42-.14.88-.12,1.37,0,.49.07.92.2,1.29.13.37.32.69.56.95.24.26.52.46.84.59.32.13.67.2,1.05.2.42,0,.79-.08,1.12-.25s.6-.4.82-.69c.22-.29.39-.64.5-1.05.11-.4.17-.84.17-1.31Z" fill="#323e48"/>
  <path d="M199.74,154.5l2.03-6.77h.91l-2.51,7.96h-.96l-1.69-6.5h-.03l-1.72,6.5h-1.08l-2.36-7.96h.9l2,6.83,1.79-6.83h1l1.7,6.77h.02Z" fill="#323e48"/>
  <path d="M209.43,155.69v-10.51h.9v3.85c.36-.38.73-.69,1.11-.93.38-.24.84-.36,1.38-.36.48,0,.92.08,1.33.25s.75.45,1.03.86c.19.28.3.56.34.86.03.29.05.6.05.92v5.06h-.9v-5.05c0-.7-.15-1.22-.46-1.57-.31-.35-.82-.52-1.54-.52-.28,0-.53.04-.76.13-.23.08-.44.2-.62.34-.18.14-.34.3-.47.48-.13.18-.23.37-.3.57-.09.25-.14.49-.16.72-.02.23-.03.48-.03.75v4.17h-.9v-.02Z" fill="#323e48"/>
  <path d="M160.92,147.75h-.9v7.94h.9v-7.94Z" fill="#323e48"/>
  <path d="M160.47,146.64c.4,0,.73-.33.73-.73s-.33-.73-.73-.73-.73.33-.73.73.33.73.73.73Z" fill="#323e48"/>
  <path d="M204.34,147.74h-.9v7.95h.9v-7.95Z" fill="#323e48"/>
  <path d="M203.89,146.64c.4,0,.73-.33.73-.73s-.33-.73-.73-.73-.73.33-.73.73.33.73.73.73Z" fill="#323e48"/>
</svg>