<svg width="170" height="141" viewBox="0 0 170 141" fill="none" xmlns="http://www.w3.org/2000/svg">
<path d="M161.707 51.7232C142.942 47.3353 124.398 43.0376 106.012 38.8076C99.1027 61.4522 100.964 87.7854 91.28 109.262C110.044 113.65 128.589 117.948 146.975 122.178C153.884 99.5334 152.023 73.2003 161.707 51.7232Z" fill="white" stroke="#121212" stroke-width="0.43933" stroke-linecap="round" stroke-linejoin="round"/>
<path d="M139.299 96.3259C131.375 94.5042 123.502 92.7163 115.662 90.9453L139.299 96.3259Z" fill="white"/>
<path d="M139.299 96.3259C131.375 94.5042 123.502 92.7163 115.662 90.9453" stroke="#121212" stroke-width="0.43933" stroke-linecap="round" stroke-linejoin="round"/>
<path d="M138.346 103.683C132.351 102.301 126.389 100.947 120.45 99.6105L138.346 103.683Z" fill="white"/>
<path d="M138.346 103.683C132.351 102.301 126.389 100.947 120.45 99.6105" stroke="#121212" stroke-width="0.43933" stroke-linecap="round" stroke-linejoin="round"/>
<path d="M140.454 89.716C132.468 87.8604 124.544 86.0387 116.654 84.2395L140.454 89.716Z" fill="white"/>
<path d="M140.454 89.716C132.468 87.8604 124.544 86.0387 116.654 84.2395" stroke="#121212" stroke-width="0.43933" stroke-linecap="round" stroke-linejoin="round"/>
<mask id="path-8-inside-1_185_3470" fill="white">
<path d="M118.277 18.3298C118.711 17.7883 119.185 17.2695 119.704 16.807C119.766 16.7393 119.777 16.6378 119.721 16.5701C119.67 16.5024 119.568 16.4911 119.501 16.5532C118.976 17.0326 118.48 17.5571 118.04 18.1155C118.017 18.1437 118.006 18.1719 118.001 18.2057C117.995 18.2565 118.012 18.3185 118.057 18.3523C118.119 18.4144 118.221 18.4031 118.277 18.3298ZM121.069 15.7072C121.633 15.3124 122.219 14.9627 122.834 14.6638C122.913 14.6243 122.947 14.5228 122.913 14.4382C122.879 14.3536 122.789 14.3197 122.704 14.3592C122.078 14.6638 121.475 15.0304 120.905 15.4308C120.866 15.4534 120.843 15.5041 120.837 15.5436C120.832 15.5831 120.837 15.6226 120.86 15.6564C120.905 15.7354 121.001 15.7579 121.069 15.7072ZM124.413 13.9983C125.045 13.7783 125.699 13.6035 126.359 13.485C126.444 13.4681 126.5 13.3779 126.489 13.2876C126.472 13.1974 126.393 13.1353 126.314 13.1466C125.648 13.2707 124.977 13.4512 124.323 13.6768C124.267 13.6993 124.227 13.7501 124.216 13.8178C124.216 13.8403 124.216 13.8629 124.216 13.8855C124.244 13.9757 124.334 14.0265 124.408 13.9983H124.413ZM130.025 13.3609C130.11 13.3722 130.189 13.3102 130.2 13.2143C130.211 13.1184 130.149 13.0395 130.07 13.0282C129.405 12.9436 128.717 12.9267 128.034 12.9549C127.961 12.9549 127.899 13.0169 127.887 13.0959V13.1241C127.887 13.2199 127.955 13.2876 128.045 13.2876C128.717 13.2538 129.382 13.2763 130.031 13.3609H130.025ZM130.437 21.7702V21.742C130.527 21.1159 130.786 20.4843 131.215 19.8582C131.266 19.7793 131.255 19.6721 131.187 19.6213C131.114 19.5649 131.018 19.5819 130.961 19.6665C130.504 20.3376 130.228 21.0201 130.132 21.7025V21.7307C130.115 21.8153 130.172 21.9055 130.256 21.9168C130.341 21.9281 130.42 21.8604 130.431 21.7702H130.437ZM133.747 14.3085C133.787 14.2182 133.747 14.128 133.674 14.0885C133.082 13.7952 132.439 13.547 131.757 13.3666C131.672 13.3384 131.587 13.3948 131.565 13.485V13.5076C131.553 13.5865 131.599 13.6655 131.672 13.6824C132.332 13.8685 132.958 14.1054 133.533 14.3931C133.606 14.4325 133.702 14.3931 133.742 14.3141L133.747 14.3085ZM132.005 25.1824C132.055 25.1091 132.027 25.0019 131.96 24.9568C131.401 24.5845 130.944 24.0544 130.679 23.4509C130.64 23.3719 130.55 23.3381 130.471 23.3776C130.425 23.4058 130.392 23.4565 130.386 23.5073C130.386 23.5411 130.386 23.575 130.397 23.6032C130.685 24.2574 131.181 24.8327 131.79 25.2388C131.864 25.2839 131.96 25.2613 131.999 25.1824H132.005ZM132.366 18.5328C132.428 18.4651 132.495 18.4087 132.557 18.3523C133.003 17.9575 133.488 17.5853 133.99 17.2525C134.063 17.2018 134.086 17.0946 134.041 17.0156C133.996 16.9367 133.905 16.9141 133.832 16.9649C133.319 17.3033 132.822 17.6868 132.371 18.0929C132.304 18.1493 132.23 18.2113 132.168 18.2734C132.134 18.3072 132.117 18.3411 132.112 18.3805C132.106 18.42 132.112 18.4708 132.146 18.5103C132.196 18.5779 132.298 18.5836 132.36 18.5272L132.366 18.5328ZM133.911 25.8253C134.452 25.7802 134.983 25.611 135.49 25.3234C135.569 25.2839 135.597 25.1767 135.564 25.0978C135.518 25.0132 135.428 24.985 135.355 25.0245C134.881 25.3008 134.39 25.4531 133.894 25.4926C133.759 25.5038 133.623 25.4982 133.488 25.4926C133.409 25.4926 133.33 25.5546 133.319 25.6392V25.6561C133.313 25.752 133.375 25.8253 133.46 25.831C133.606 25.8422 133.759 25.8422 133.905 25.831L133.911 25.8253ZM136.404 16.7167C136.455 16.79 136.556 16.7957 136.624 16.7393C136.692 16.6829 136.703 16.5757 136.646 16.5081C136.567 16.3953 136.477 16.2881 136.393 16.1866C136.353 16.1358 136.314 16.0851 136.263 16.0399C136.629 15.882 137.002 15.7523 137.368 15.6339C137.453 15.6113 137.498 15.5154 137.475 15.4308C137.453 15.3406 137.368 15.2898 137.289 15.318C136.855 15.4477 136.438 15.6057 136.026 15.7861C135.755 15.5154 135.473 15.256 135.163 15.0135C135.095 14.9627 135 14.974 134.949 15.0586C134.932 15.0811 134.921 15.1037 134.921 15.1263C134.909 15.1939 134.937 15.256 134.983 15.2898C135.248 15.4872 135.49 15.7015 135.716 15.9271C135.597 15.9835 135.485 16.0343 135.372 16.0963C135.293 16.1358 135.253 16.2317 135.287 16.3219C135.327 16.4009 135.411 16.4404 135.496 16.4009C135.648 16.3276 135.8 16.2542 135.958 16.1866C136.032 16.2599 136.099 16.3445 136.167 16.4291C136.246 16.5306 136.331 16.6265 136.404 16.7336V16.7167ZM138.011 20.3376C138.011 20.3376 138.039 20.2812 138.034 20.253C137.983 19.5255 137.82 18.7979 137.543 18.0985C137.509 18.0139 137.419 17.9801 137.334 18.0196C137.284 18.0421 137.25 18.0985 137.244 18.1436C137.244 18.1718 137.244 18.2113 137.25 18.2339C137.521 18.8994 137.673 19.5931 137.724 20.2756C137.724 20.2812 137.724 20.2925 137.724 20.2981C137.735 20.3827 137.808 20.4391 137.882 20.4279C137.938 20.4222 137.983 20.3827 138.006 20.332L138.011 20.3376ZM136.866 24.1164C137.334 23.5355 137.673 22.8474 137.859 22.1368C137.876 22.0465 137.836 21.9506 137.752 21.9337C137.667 21.9055 137.583 21.9619 137.56 22.0522C137.38 22.7177 137.064 23.355 136.629 23.9021C136.613 23.9303 136.601 23.9585 136.596 23.9923C136.59 24.0431 136.607 24.1051 136.641 24.139C136.708 24.201 136.804 24.1897 136.861 24.1164H136.866ZM141.012 15.0022C141.102 15.0022 141.17 14.9232 141.164 14.8273C141.164 14.7371 141.096 14.6638 141.012 14.6694C140.335 14.692 139.647 14.7709 138.981 14.8894C138.914 14.9007 138.863 14.9627 138.852 15.036C138.852 15.0529 138.852 15.0699 138.852 15.0868C138.857 15.177 138.942 15.2391 139.021 15.2221C139.681 15.0981 140.346 15.0304 141.012 15.0078V15.0022ZM144.661 15.3913C144.745 15.4083 144.83 15.3575 144.847 15.2616C144.87 15.177 144.819 15.0811 144.74 15.0642C144.266 14.9401 143.781 14.8442 143.296 14.7766C143.11 14.7484 142.924 14.7258 142.738 14.7145C142.659 14.7033 142.58 14.7709 142.568 14.8612C142.557 14.9571 142.619 15.0304 142.709 15.0416C142.89 15.0586 143.076 15.0755 143.256 15.1037C143.73 15.1657 144.204 15.2616 144.666 15.3857L144.661 15.3913ZM148.265 16.7562C148.31 16.6829 148.282 16.5757 148.208 16.5306C148.107 16.4629 148 16.4065 147.893 16.3389C147.407 16.0625 146.9 15.8143 146.381 15.6056C146.296 15.5718 146.212 15.6113 146.178 15.7015C146.167 15.7128 146.167 15.7241 146.167 15.7354C146.155 15.8087 146.195 15.8877 146.263 15.9102C146.77 16.1189 147.272 16.3614 147.74 16.6378C147.842 16.6942 147.949 16.7562 148.05 16.8183C148.124 16.8634 148.22 16.8352 148.265 16.7506V16.7562ZM151.124 19.2435C151.186 19.1758 151.186 19.0686 151.13 19.0009C150.667 18.4764 150.154 17.9857 149.635 17.5458C149.568 17.495 149.466 17.5063 149.415 17.5796C149.398 17.6022 149.387 17.6248 149.387 17.6586C149.382 17.715 149.398 17.7771 149.449 17.8165C149.962 18.2452 150.459 18.7246 150.916 19.2435C150.972 19.3111 151.068 19.3111 151.13 19.2435H151.124ZM153.262 22.4752C153.262 22.4752 153.301 22.4413 153.318 22.4244C153.346 22.368 153.352 22.306 153.329 22.2496C153.002 21.6122 152.641 20.9975 152.235 20.4222C152.185 20.3433 152.094 20.332 152.015 20.3827C151.982 20.4166 151.965 20.4561 151.959 20.5012C151.953 20.5463 151.959 20.5801 151.982 20.6196C152.365 21.178 152.72 21.7645 153.036 22.3849C153.042 22.3906 153.048 22.4075 153.053 22.4188C153.093 22.4977 153.189 22.5259 153.262 22.4752ZM154.672 26.0002C154.508 25.2952 154.3 24.6015 154.051 23.919C154.018 23.8344 153.927 23.7893 153.848 23.8344C153.798 23.857 153.764 23.9134 153.758 23.9698C153.758 23.9923 153.758 24.0205 153.769 24.0544C154.012 24.7199 154.215 25.4023 154.373 26.0904C154.395 26.1807 154.474 26.2371 154.559 26.2089C154.644 26.1863 154.689 26.096 154.677 26.0058L154.672 26.0002ZM155.055 30.0215C155.078 29.2883 155.055 28.5551 154.976 27.8219C154.971 27.7316 154.892 27.664 154.807 27.6809C154.739 27.6809 154.683 27.7542 154.672 27.8219V27.867C154.745 28.5833 154.773 29.3052 154.745 30.0159C154.745 30.1117 154.813 30.185 154.897 30.185C154.976 30.185 155.05 30.1117 155.055 30.0215Z"/>
</mask>
<path d="M118.277 18.3298C118.711 17.7883 119.185 17.2695 119.704 16.807C119.766 16.7393 119.777 16.6378 119.721 16.5701C119.67 16.5024 119.568 16.4911 119.501 16.5532C118.976 17.0326 118.48 17.5571 118.04 18.1155C118.017 18.1437 118.006 18.1719 118.001 18.2057C117.995 18.2565 118.012 18.3185 118.057 18.3523C118.119 18.4144 118.221 18.4031 118.277 18.3298ZM121.069 15.7072C121.633 15.3124 122.219 14.9627 122.834 14.6638C122.913 14.6243 122.947 14.5228 122.913 14.4382C122.879 14.3536 122.789 14.3197 122.704 14.3592C122.078 14.6638 121.475 15.0304 120.905 15.4308C120.866 15.4534 120.843 15.5041 120.837 15.5436C120.832 15.5831 120.837 15.6226 120.86 15.6564C120.905 15.7354 121.001 15.7579 121.069 15.7072ZM124.413 13.9983C125.045 13.7783 125.699 13.6035 126.359 13.485C126.444 13.4681 126.5 13.3779 126.489 13.2876C126.472 13.1974 126.393 13.1353 126.314 13.1466C125.648 13.2707 124.977 13.4512 124.323 13.6768C124.267 13.6993 124.227 13.7501 124.216 13.8178C124.216 13.8403 124.216 13.8629 124.216 13.8855C124.244 13.9757 124.334 14.0265 124.408 13.9983H124.413ZM130.025 13.3609C130.11 13.3722 130.189 13.3102 130.2 13.2143C130.211 13.1184 130.149 13.0395 130.07 13.0282C129.405 12.9436 128.717 12.9267 128.034 12.9549C127.961 12.9549 127.899 13.0169 127.887 13.0959V13.1241C127.887 13.2199 127.955 13.2876 128.045 13.2876C128.717 13.2538 129.382 13.2763 130.031 13.3609H130.025ZM130.437 21.7702V21.742C130.527 21.1159 130.786 20.4843 131.215 19.8582C131.266 19.7793 131.255 19.6721 131.187 19.6213C131.114 19.5649 131.018 19.5819 130.961 19.6665C130.504 20.3376 130.228 21.0201 130.132 21.7025V21.7307C130.115 21.8153 130.172 21.9055 130.256 21.9168C130.341 21.9281 130.42 21.8604 130.431 21.7702H130.437ZM133.747 14.3085C133.787 14.2182 133.747 14.128 133.674 14.0885C133.082 13.7952 132.439 13.547 131.757 13.3666C131.672 13.3384 131.587 13.3948 131.565 13.485V13.5076C131.553 13.5865 131.599 13.6655 131.672 13.6824C132.332 13.8685 132.958 14.1054 133.533 14.3931C133.606 14.4325 133.702 14.3931 133.742 14.3141L133.747 14.3085ZM132.005 25.1824C132.055 25.1091 132.027 25.0019 131.96 24.9568C131.401 24.5845 130.944 24.0544 130.679 23.4509C130.64 23.3719 130.55 23.3381 130.471 23.3776C130.425 23.4058 130.392 23.4565 130.386 23.5073C130.386 23.5411 130.386 23.575 130.397 23.6032C130.685 24.2574 131.181 24.8327 131.79 25.2388C131.864 25.2839 131.96 25.2613 131.999 25.1824H132.005ZM132.366 18.5328C132.428 18.4651 132.495 18.4087 132.557 18.3523C133.003 17.9575 133.488 17.5853 133.99 17.2525C134.063 17.2018 134.086 17.0946 134.041 17.0156C133.996 16.9367 133.905 16.9141 133.832 16.9649C133.319 17.3033 132.822 17.6868 132.371 18.0929C132.304 18.1493 132.23 18.2113 132.168 18.2734C132.134 18.3072 132.117 18.3411 132.112 18.3805C132.106 18.42 132.112 18.4708 132.146 18.5103C132.196 18.5779 132.298 18.5836 132.36 18.5272L132.366 18.5328ZM133.911 25.8253C134.452 25.7802 134.983 25.611 135.49 25.3234C135.569 25.2839 135.597 25.1767 135.564 25.0978C135.518 25.0132 135.428 24.985 135.355 25.0245C134.881 25.3008 134.39 25.4531 133.894 25.4926C133.759 25.5038 133.623 25.4982 133.488 25.4926C133.409 25.4926 133.33 25.5546 133.319 25.6392V25.6561C133.313 25.752 133.375 25.8253 133.46 25.831C133.606 25.8422 133.759 25.8422 133.905 25.831L133.911 25.8253ZM136.404 16.7167C136.455 16.79 136.556 16.7957 136.624 16.7393C136.692 16.6829 136.703 16.5757 136.646 16.5081C136.567 16.3953 136.477 16.2881 136.393 16.1866C136.353 16.1358 136.314 16.0851 136.263 16.0399C136.629 15.882 137.002 15.7523 137.368 15.6339C137.453 15.6113 137.498 15.5154 137.475 15.4308C137.453 15.3406 137.368 15.2898 137.289 15.318C136.855 15.4477 136.438 15.6057 136.026 15.7861C135.755 15.5154 135.473 15.256 135.163 15.0135C135.095 14.9627 135 14.974 134.949 15.0586C134.932 15.0811 134.921 15.1037 134.921 15.1263C134.909 15.1939 134.937 15.256 134.983 15.2898C135.248 15.4872 135.49 15.7015 135.716 15.9271C135.597 15.9835 135.485 16.0343 135.372 16.0963C135.293 16.1358 135.253 16.2317 135.287 16.3219C135.327 16.4009 135.411 16.4404 135.496 16.4009C135.648 16.3276 135.8 16.2542 135.958 16.1866C136.032 16.2599 136.099 16.3445 136.167 16.4291C136.246 16.5306 136.331 16.6265 136.404 16.7336V16.7167ZM138.011 20.3376C138.011 20.3376 138.039 20.2812 138.034 20.253C137.983 19.5255 137.82 18.7979 137.543 18.0985C137.509 18.0139 137.419 17.9801 137.334 18.0196C137.284 18.0421 137.25 18.0985 137.244 18.1436C137.244 18.1718 137.244 18.2113 137.25 18.2339C137.521 18.8994 137.673 19.5931 137.724 20.2756C137.724 20.2812 137.724 20.2925 137.724 20.2981C137.735 20.3827 137.808 20.4391 137.882 20.4279C137.938 20.4222 137.983 20.3827 138.006 20.332L138.011 20.3376ZM136.866 24.1164C137.334 23.5355 137.673 22.8474 137.859 22.1368C137.876 22.0465 137.836 21.9506 137.752 21.9337C137.667 21.9055 137.583 21.9619 137.56 22.0522C137.38 22.7177 137.064 23.355 136.629 23.9021C136.613 23.9303 136.601 23.9585 136.596 23.9923C136.59 24.0431 136.607 24.1051 136.641 24.139C136.708 24.201 136.804 24.1897 136.861 24.1164H136.866ZM141.012 15.0022C141.102 15.0022 141.17 14.9232 141.164 14.8273C141.164 14.7371 141.096 14.6638 141.012 14.6694C140.335 14.692 139.647 14.7709 138.981 14.8894C138.914 14.9007 138.863 14.9627 138.852 15.036C138.852 15.0529 138.852 15.0699 138.852 15.0868C138.857 15.177 138.942 15.2391 139.021 15.2221C139.681 15.0981 140.346 15.0304 141.012 15.0078V15.0022ZM144.661 15.3913C144.745 15.4083 144.83 15.3575 144.847 15.2616C144.87 15.177 144.819 15.0811 144.74 15.0642C144.266 14.9401 143.781 14.8442 143.296 14.7766C143.11 14.7484 142.924 14.7258 142.738 14.7145C142.659 14.7033 142.58 14.7709 142.568 14.8612C142.557 14.9571 142.619 15.0304 142.709 15.0416C142.89 15.0586 143.076 15.0755 143.256 15.1037C143.73 15.1657 144.204 15.2616 144.666 15.3857L144.661 15.3913ZM148.265 16.7562C148.31 16.6829 148.282 16.5757 148.208 16.5306C148.107 16.4629 148 16.4065 147.893 16.3389C147.407 16.0625 146.9 15.8143 146.381 15.6056C146.296 15.5718 146.212 15.6113 146.178 15.7015C146.167 15.7128 146.167 15.7241 146.167 15.7354C146.155 15.8087 146.195 15.8877 146.263 15.9102C146.77 16.1189 147.272 16.3614 147.74 16.6378C147.842 16.6942 147.949 16.7562 148.05 16.8183C148.124 16.8634 148.22 16.8352 148.265 16.7506V16.7562ZM151.124 19.2435C151.186 19.1758 151.186 19.0686 151.13 19.0009C150.667 18.4764 150.154 17.9857 149.635 17.5458C149.568 17.495 149.466 17.5063 149.415 17.5796C149.398 17.6022 149.387 17.6248 149.387 17.6586C149.382 17.715 149.398 17.7771 149.449 17.8165C149.962 18.2452 150.459 18.7246 150.916 19.2435C150.972 19.3111 151.068 19.3111 151.13 19.2435H151.124ZM153.262 22.4752C153.262 22.4752 153.301 22.4413 153.318 22.4244C153.346 22.368 153.352 22.306 153.329 22.2496C153.002 21.6122 152.641 20.9975 152.235 20.4222C152.185 20.3433 152.094 20.332 152.015 20.3827C151.982 20.4166 151.965 20.4561 151.959 20.5012C151.953 20.5463 151.959 20.5801 151.982 20.6196C152.365 21.178 152.72 21.7645 153.036 22.3849C153.042 22.3906 153.048 22.4075 153.053 22.4188C153.093 22.4977 153.189 22.5259 153.262 22.4752ZM154.672 26.0002C154.508 25.2952 154.3 24.6015 154.051 23.919C154.018 23.8344 153.927 23.7893 153.848 23.8344C153.798 23.857 153.764 23.9134 153.758 23.9698C153.758 23.9923 153.758 24.0205 153.769 24.0544C154.012 24.7199 154.215 25.4023 154.373 26.0904C154.395 26.1807 154.474 26.2371 154.559 26.2089C154.644 26.1863 154.689 26.096 154.677 26.0058L154.672 26.0002ZM155.055 30.0215C155.078 29.2883 155.055 28.5551 154.976 27.8219C154.971 27.7316 154.892 27.664 154.807 27.6809C154.739 27.6809 154.683 27.7542 154.672 27.8219V27.867C154.745 28.5833 154.773 29.3052 154.745 30.0159C154.745 30.1117 154.813 30.185 154.897 30.185C154.976 30.185 155.05 30.1117 155.055 30.0215Z" fill="#010101" stroke="#121212" stroke-width="1.46443" mask="url(#path-8-inside-1_185_3470)"/>
<path d="M158.258 13.0606C158.151 13.0606 158.05 13.0042 157.999 12.9083L157.807 12.5586C157.807 12.5586 157.79 12.5417 157.785 12.5361L157.435 12.3443C157.339 12.2935 157.283 12.192 157.283 12.0849C157.283 11.9777 157.339 11.8762 157.435 11.8254L157.785 11.6337C157.785 11.6337 157.802 11.6167 157.813 11.6111L158.005 11.2614C158.055 11.1655 158.157 11.1091 158.264 11.1091C158.371 11.1091 158.473 11.1655 158.524 11.2614L158.715 11.6111C158.715 11.6111 158.732 11.628 158.738 11.6337L159.088 11.8254C159.183 11.8762 159.24 11.9777 159.24 12.0849C159.24 12.192 159.183 12.2935 159.088 12.3443L158.738 12.5361C158.738 12.5361 158.721 12.5473 158.715 12.5586L158.524 12.9083C158.473 13.0042 158.371 13.0606 158.264 13.0606H158.258ZM158.202 11.3686L158.01 11.7183C157.982 11.769 157.943 11.8085 157.892 11.8367L157.542 12.0285C157.514 12.0454 157.508 12.0736 157.508 12.0849C157.508 12.0961 157.508 12.1243 157.542 12.1413L157.892 12.333C157.943 12.3612 157.982 12.4007 158.01 12.4515L158.202 12.8011C158.219 12.8293 158.247 12.835 158.258 12.835C158.258 12.835 158.298 12.835 158.315 12.8011L158.507 12.4515C158.535 12.4007 158.574 12.3612 158.625 12.333L158.975 12.1413C159.003 12.1243 159.009 12.0961 159.009 12.0849C159.009 12.0736 159.009 12.0454 158.975 12.0285L158.625 11.8367C158.574 11.8085 158.535 11.769 158.507 11.7183L158.315 11.3686C158.298 11.3404 158.27 11.3347 158.258 11.3347C158.258 11.3347 158.219 11.3347 158.202 11.3686Z" fill="#121212"/>
<path d="M52.8832 30.3146C52.776 30.3146 52.6745 30.2582 52.6237 30.1623L52.432 29.8126C52.432 29.8126 52.4151 29.7957 52.4094 29.7901L52.0597 29.5983C51.9639 29.5476 51.9075 29.446 51.9075 29.3389C51.9075 29.2317 51.9639 29.1302 52.0597 29.0794L52.4094 28.8877C52.4094 28.8877 52.4264 28.8707 52.4376 28.8651L52.6294 28.5154C52.6801 28.4196 52.7817 28.3632 52.8888 28.3632C52.996 28.3632 53.0975 28.4196 53.1483 28.5154L53.34 28.8651C53.34 28.8651 53.3569 28.882 53.3626 28.8877L53.7123 29.0794C53.8081 29.1302 53.8646 29.2317 53.8646 29.3389C53.8646 29.446 53.8081 29.5476 53.7123 29.5983L53.3626 29.7901C53.3626 29.7901 53.3457 29.8013 53.34 29.8126L53.1483 30.1623C53.0975 30.2582 52.996 30.3146 52.8888 30.3146H52.8832ZM52.8268 28.6282L52.635 28.9779C52.6068 29.0287 52.5673 29.0682 52.5166 29.0964L52.1669 29.2881C52.1387 29.305 52.1331 29.3332 52.1331 29.3445C52.1331 29.3558 52.1331 29.384 52.1669 29.4009L52.5166 29.5927C52.5673 29.6209 52.6068 29.6603 52.635 29.7111L52.8268 30.0608C52.8437 30.089 52.8719 30.0946 52.8832 30.0946C52.8832 30.0946 52.9227 30.0946 52.9396 30.0608L53.1313 29.7111C53.1595 29.6603 53.199 29.6209 53.2498 29.5927L53.5995 29.4009C53.6277 29.384 53.6333 29.3558 53.6333 29.3445C53.6333 29.3332 53.6333 29.305 53.5995 29.2881L53.2498 29.0964C53.199 29.0682 53.1595 29.0287 53.1313 28.9779L52.9396 28.6282C52.9227 28.6 52.8945 28.5944 52.8832 28.5944C52.8832 28.5944 52.8437 28.5944 52.8268 28.6282Z" fill="#121212"/>
<path d="M106.721 21.0981L66.1862 21.1263C62.3172 21.1263 59.1588 24.1494 59.1418 27.8548L58.8147 123.199C58.8034 126.91 61.9393 129.922 65.8083 129.922L106.343 129.894C110.212 129.894 113.37 126.871 113.387 123.165L113.714 27.821C113.726 24.1099 110.59 21.0981 106.721 21.0981Z" fill="white" stroke="#121212" stroke-width="0.43933" stroke-linecap="round" stroke-linejoin="round"/>
<path d="M111.643 113.132C111.631 115.619 109.268 117.633 106.364 117.633L65.829 117.655C62.9187 117.655 60.5725 115.642 60.5781 113.16L60.8883 28.1258C60.8996 25.6386 63.2628 23.6251 66.173 23.6251H75.5072C76.3532 23.6251 77.0356 24.206 77.03 24.9279V25.0125C77.03 26.1575 78.1072 27.0824 79.4439 27.0824H94.3843C95.7209 27.0768 96.8095 26.1462 96.8151 25.0012C96.8151 24.973 96.8151 24.9448 96.8151 24.9166C96.8151 24.1947 97.5032 23.6082 98.3492 23.6082H106.713C109.624 23.6025 111.97 25.616 111.964 28.1032L111.654 113.137L111.643 113.132Z" fill="white" stroke="#121212" stroke-width="0.468619" stroke-miterlimit="10"/>
<path d="M85.4827 127.612C87.5752 128.04 89.6168 126.67 90.0511 124.555C90.4854 122.44 89.1374 120.381 87.0506 119.953C84.9582 119.524 82.9165 120.894 82.4822 123.009C82.048 125.124 83.3959 127.183 85.4827 127.612Z" fill="white" stroke="#121212" stroke-width="0.468619" stroke-miterlimit="10"/>
<mask id="path-14-inside-2_185_3470" fill="white">
<path d="M48.8975 15.5747C48.8411 15.6311 48.8523 15.7326 48.9144 15.7834C49.3994 16.2064 49.8337 16.6745 50.2003 17.1821C50.2511 17.2498 50.347 17.261 50.409 17.2159C50.4598 17.1764 50.4823 17.1201 50.471 17.0637C50.471 17.0467 50.4598 17.0185 50.4428 17.0016C50.0537 16.4771 49.6137 15.992 49.1118 15.5578C49.0441 15.5014 48.9539 15.507 48.8975 15.5747ZM45.7842 13.8601C45.756 13.9391 45.8011 14.0237 45.8801 14.0519C46.4779 14.2493 47.0588 14.5144 47.6115 14.8415C47.6792 14.8866 47.7751 14.8584 47.8146 14.7907C47.8315 14.7625 47.8428 14.7174 47.8371 14.6779C47.8315 14.6384 47.8033 14.6046 47.7638 14.5821C47.1998 14.2493 46.5964 13.9729 45.976 13.7642C45.9026 13.7417 45.8124 13.7812 45.7898 13.8601H45.7842ZM42.2479 13.5274C42.2479 13.6063 42.3269 13.6684 42.4115 13.6571C42.9416 13.6063 43.4774 13.6063 44.0076 13.6514C44.1091 13.6627 44.2106 13.674 44.3121 13.6909C44.3911 13.7022 44.4644 13.6458 44.4814 13.5612L44.4701 13.5104C44.4588 13.454 44.408 13.4033 44.346 13.3977C44.2388 13.3807 44.126 13.3751 44.0245 13.3638C43.4831 13.3131 42.9304 13.313 42.372 13.3694C42.293 13.3694 42.231 13.4484 42.2423 13.533H42.2479V13.5274ZM38.926 14.4298C38.8583 14.4692 38.8301 14.5595 38.8639 14.6328C38.9034 14.7005 38.9993 14.7287 39.067 14.6892C39.6253 14.3959 40.2175 14.1478 40.8266 13.9673C40.9 13.9447 40.9451 13.8714 40.9281 13.7924C40.9112 13.7022 40.8266 13.6571 40.7477 13.6797C40.1216 13.8658 39.5069 14.1139 38.926 14.4241V14.4298ZM37.5385 15.3491C37.093 15.7044 36.6869 16.1049 36.3316 16.5335C36.2752 16.6012 36.2188 16.6688 36.1511 16.7422C36.106 16.8042 36.1116 16.9001 36.1793 16.9565C36.2413 17.0072 36.3372 16.996 36.3936 16.9283C36.4444 16.855 36.5008 16.7929 36.5571 16.7196C36.9012 16.3079 37.296 15.9187 37.7303 15.5747C37.7754 15.5352 37.7867 15.4844 37.7754 15.4337C37.7754 15.4111 37.7641 15.3886 37.7472 15.366C37.6964 15.304 37.6006 15.2927 37.5385 15.3434V15.3491ZM35.1979 18.0958L35.102 18.2311C34.7806 18.7218 34.4478 19.2181 34.0868 19.675C34.0361 19.737 34.0474 19.8272 34.115 19.8836C34.1771 19.9344 34.273 19.9288 34.3237 19.8667C34.6847 19.4043 35.0287 18.8967 35.3502 18.406L35.4461 18.265C35.4686 18.2255 35.4743 18.186 35.4686 18.1465C35.463 18.1127 35.4404 18.0789 35.4066 18.0563C35.3389 18.0112 35.243 18.0337 35.1979 18.1014V18.0958ZM32.9701 20.8199C32.6035 21.1075 32.2256 21.3162 31.8196 21.4572C31.6786 21.508 31.5263 21.5587 31.374 21.5869L31.3007 21.6038C31.2161 21.6208 31.171 21.6997 31.1879 21.7731C31.1992 21.8577 31.2838 21.9084 31.3627 21.8915L31.4473 21.8746C31.6109 21.8407 31.7744 21.79 31.9324 21.7336C32.3666 21.5756 32.7784 21.3557 33.1675 21.0511C33.2183 21.0117 33.2296 20.9496 33.2183 20.8988C33.2183 20.8763 33.207 20.8537 33.1901 20.8368C33.1393 20.7691 33.0491 20.7635 32.9814 20.8086L32.9701 20.8199ZM27.629 21.5418C27.6121 21.6264 27.6685 21.6997 27.7531 21.711C27.9167 21.7336 28.0859 21.7561 28.2494 21.7787C28.7232 21.852 29.2026 21.9253 29.682 21.9648C29.761 21.9648 29.8343 21.9084 29.8399 21.8238C29.8399 21.8125 29.8399 21.7956 29.8399 21.7843C29.8287 21.7223 29.7666 21.6715 29.7102 21.6659C29.2421 21.6208 28.757 21.5531 28.2946 21.4798C28.131 21.4572 27.9674 21.4346 27.7926 21.4064C27.7136 21.4008 27.6403 21.4516 27.629 21.5362V21.5418ZM24.1886 21.5587C24.1097 21.5813 24.0589 21.6715 24.0815 21.7392C24.0984 21.8238 24.183 21.8689 24.262 21.8464C24.3917 21.8182 24.527 21.773 24.6624 21.7448C25.1474 21.6377 25.6438 21.5813 26.1344 21.5813C26.219 21.5813 26.2867 21.508 26.2811 21.429C26.2811 21.4177 26.2811 21.4064 26.2811 21.3952C26.2698 21.3331 26.2078 21.2767 26.1344 21.2824C25.6212 21.288 25.1023 21.3444 24.5947 21.4572C24.4481 21.4911 24.3127 21.5249 24.183 21.5644L24.1886 21.5587ZM21.002 23.2676C20.94 23.3184 20.9344 23.4143 20.9908 23.4763C21.0415 23.5384 21.1374 23.5497 21.1995 23.4989C21.6845 23.0815 22.2147 22.7262 22.773 22.4386C22.8407 22.4047 22.8689 22.337 22.8576 22.275C22.8576 22.2637 22.8463 22.2524 22.8407 22.2412C22.8069 22.1678 22.711 22.1396 22.6376 22.1735C22.0511 22.478 21.504 22.8503 21.002 23.2789V23.2676ZM19.8515 24.4746C19.4398 25.0048 19.1014 25.5744 18.8476 26.1666C18.8194 26.2456 18.8476 26.3302 18.9265 26.364C19.0055 26.3978 19.0901 26.364 19.1239 26.2907C19.3777 25.721 19.6992 25.1683 20.094 24.6607C20.1166 24.6212 20.1279 24.5818 20.1222 24.5366C20.1166 24.5028 20.094 24.4746 20.0715 24.4577C19.9981 24.4069 19.9079 24.4126 19.8571 24.4859L19.8515 24.4746ZM20.314 34.3502C20.2519 34.401 20.2463 34.4969 20.3027 34.5589C20.7426 35.0665 21.2446 35.5008 21.786 35.8618C21.8481 35.9069 21.9439 35.8843 21.989 35.8223C22.0116 35.7828 22.0173 35.7433 22.0116 35.7038C22.006 35.6644 21.9834 35.6305 21.9496 35.6136C21.4307 35.2696 20.9513 34.8466 20.5283 34.3672C20.4775 34.3051 20.3816 34.2995 20.314 34.3559V34.3502ZM18.3738 27.7684C18.261 28.4057 18.2328 29.0712 18.2836 29.7424C18.2836 29.827 18.3625 29.8834 18.4471 29.8777C18.5261 29.8777 18.5881 29.7988 18.5825 29.7142C18.5261 29.0768 18.5599 28.4339 18.6671 27.8191C18.6671 27.7966 18.6671 27.7796 18.6615 27.7627C18.6502 27.7063 18.6051 27.6612 18.543 27.6499C18.4584 27.633 18.3851 27.6894 18.3682 27.7684H18.3738ZM18.5769 31.378C18.763 32.0096 19.0168 32.6244 19.3382 33.194C19.3777 33.2617 19.4736 33.2899 19.5413 33.2561C19.5977 33.2166 19.6315 33.1489 19.6146 33.0869V33.0474C19.2931 32.4947 19.0506 31.9081 18.8701 31.299C18.8532 31.2144 18.7686 31.1693 18.6896 31.1918C18.6107 31.2144 18.5656 31.299 18.5825 31.3723H18.5769V31.378Z"/>
</mask>
<path d="M48.8975 15.5747C48.8411 15.6311 48.8523 15.7326 48.9144 15.7834C49.3994 16.2064 49.8337 16.6745 50.2003 17.1821C50.2511 17.2498 50.347 17.261 50.409 17.2159C50.4598 17.1764 50.4823 17.1201 50.471 17.0637C50.471 17.0467 50.4598 17.0185 50.4428 17.0016C50.0537 16.4771 49.6137 15.992 49.1118 15.5578C49.0441 15.5014 48.9539 15.507 48.8975 15.5747ZM45.7842 13.8601C45.756 13.9391 45.8011 14.0237 45.8801 14.0519C46.4779 14.2493 47.0588 14.5144 47.6115 14.8415C47.6792 14.8866 47.7751 14.8584 47.8146 14.7907C47.8315 14.7625 47.8428 14.7174 47.8371 14.6779C47.8315 14.6384 47.8033 14.6046 47.7638 14.5821C47.1998 14.2493 46.5964 13.9729 45.976 13.7642C45.9026 13.7417 45.8124 13.7812 45.7898 13.8601H45.7842ZM42.2479 13.5274C42.2479 13.6063 42.3269 13.6684 42.4115 13.6571C42.9416 13.6063 43.4774 13.6063 44.0076 13.6514C44.1091 13.6627 44.2106 13.674 44.3121 13.6909C44.3911 13.7022 44.4644 13.6458 44.4814 13.5612L44.4701 13.5104C44.4588 13.454 44.408 13.4033 44.346 13.3977C44.2388 13.3807 44.126 13.3751 44.0245 13.3638C43.4831 13.3131 42.9304 13.313 42.372 13.3694C42.293 13.3694 42.231 13.4484 42.2423 13.533H42.2479V13.5274ZM38.926 14.4298C38.8583 14.4692 38.8301 14.5595 38.8639 14.6328C38.9034 14.7005 38.9993 14.7287 39.067 14.6892C39.6253 14.3959 40.2175 14.1478 40.8266 13.9673C40.9 13.9447 40.9451 13.8714 40.9281 13.7924C40.9112 13.7022 40.8266 13.6571 40.7477 13.6797C40.1216 13.8658 39.5069 14.1139 38.926 14.4241V14.4298ZM37.5385 15.3491C37.093 15.7044 36.6869 16.1049 36.3316 16.5335C36.2752 16.6012 36.2188 16.6688 36.1511 16.7422C36.106 16.8042 36.1116 16.9001 36.1793 16.9565C36.2413 17.0072 36.3372 16.996 36.3936 16.9283C36.4444 16.855 36.5008 16.7929 36.5571 16.7196C36.9012 16.3079 37.296 15.9187 37.7303 15.5747C37.7754 15.5352 37.7867 15.4844 37.7754 15.4337C37.7754 15.4111 37.7641 15.3886 37.7472 15.366C37.6964 15.304 37.6006 15.2927 37.5385 15.3434V15.3491ZM35.1979 18.0958L35.102 18.2311C34.7806 18.7218 34.4478 19.2181 34.0868 19.675C34.0361 19.737 34.0474 19.8272 34.115 19.8836C34.1771 19.9344 34.273 19.9288 34.3237 19.8667C34.6847 19.4043 35.0287 18.8967 35.3502 18.406L35.4461 18.265C35.4686 18.2255 35.4743 18.186 35.4686 18.1465C35.463 18.1127 35.4404 18.0789 35.4066 18.0563C35.3389 18.0112 35.243 18.0337 35.1979 18.1014V18.0958ZM32.9701 20.8199C32.6035 21.1075 32.2256 21.3162 31.8196 21.4572C31.6786 21.508 31.5263 21.5587 31.374 21.5869L31.3007 21.6038C31.2161 21.6208 31.171 21.6997 31.1879 21.7731C31.1992 21.8577 31.2838 21.9084 31.3627 21.8915L31.4473 21.8746C31.6109 21.8407 31.7744 21.79 31.9324 21.7336C32.3666 21.5756 32.7784 21.3557 33.1675 21.0511C33.2183 21.0117 33.2296 20.9496 33.2183 20.8988C33.2183 20.8763 33.207 20.8537 33.1901 20.8368C33.1393 20.7691 33.0491 20.7635 32.9814 20.8086L32.9701 20.8199ZM27.629 21.5418C27.6121 21.6264 27.6685 21.6997 27.7531 21.711C27.9167 21.7336 28.0859 21.7561 28.2494 21.7787C28.7232 21.852 29.2026 21.9253 29.682 21.9648C29.761 21.9648 29.8343 21.9084 29.8399 21.8238C29.8399 21.8125 29.8399 21.7956 29.8399 21.7843C29.8287 21.7223 29.7666 21.6715 29.7102 21.6659C29.2421 21.6208 28.757 21.5531 28.2946 21.4798C28.131 21.4572 27.9674 21.4346 27.7926 21.4064C27.7136 21.4008 27.6403 21.4516 27.629 21.5362V21.5418ZM24.1886 21.5587C24.1097 21.5813 24.0589 21.6715 24.0815 21.7392C24.0984 21.8238 24.183 21.8689 24.262 21.8464C24.3917 21.8182 24.527 21.773 24.6624 21.7448C25.1474 21.6377 25.6438 21.5813 26.1344 21.5813C26.219 21.5813 26.2867 21.508 26.2811 21.429C26.2811 21.4177 26.2811 21.4064 26.2811 21.3952C26.2698 21.3331 26.2078 21.2767 26.1344 21.2824C25.6212 21.288 25.1023 21.3444 24.5947 21.4572C24.4481 21.4911 24.3127 21.5249 24.183 21.5644L24.1886 21.5587ZM21.002 23.2676C20.94 23.3184 20.9344 23.4143 20.9908 23.4763C21.0415 23.5384 21.1374 23.5497 21.1995 23.4989C21.6845 23.0815 22.2147 22.7262 22.773 22.4386C22.8407 22.4047 22.8689 22.337 22.8576 22.275C22.8576 22.2637 22.8463 22.2524 22.8407 22.2412C22.8069 22.1678 22.711 22.1396 22.6376 22.1735C22.0511 22.478 21.504 22.8503 21.002 23.2789V23.2676ZM19.8515 24.4746C19.4398 25.0048 19.1014 25.5744 18.8476 26.1666C18.8194 26.2456 18.8476 26.3302 18.9265 26.364C19.0055 26.3978 19.0901 26.364 19.1239 26.2907C19.3777 25.721 19.6992 25.1683 20.094 24.6607C20.1166 24.6212 20.1279 24.5818 20.1222 24.5366C20.1166 24.5028 20.094 24.4746 20.0715 24.4577C19.9981 24.4069 19.9079 24.4126 19.8571 24.4859L19.8515 24.4746ZM20.314 34.3502C20.2519 34.401 20.2463 34.4969 20.3027 34.5589C20.7426 35.0665 21.2446 35.5008 21.786 35.8618C21.8481 35.9069 21.9439 35.8843 21.989 35.8223C22.0116 35.7828 22.0173 35.7433 22.0116 35.7038C22.006 35.6644 21.9834 35.6305 21.9496 35.6136C21.4307 35.2696 20.9513 34.8466 20.5283 34.3672C20.4775 34.3051 20.3816 34.2995 20.314 34.3559V34.3502ZM18.3738 27.7684C18.261 28.4057 18.2328 29.0712 18.2836 29.7424C18.2836 29.827 18.3625 29.8834 18.4471 29.8777C18.5261 29.8777 18.5881 29.7988 18.5825 29.7142C18.5261 29.0768 18.5599 28.4339 18.6671 27.8191C18.6671 27.7966 18.6671 27.7796 18.6615 27.7627C18.6502 27.7063 18.6051 27.6612 18.543 27.6499C18.4584 27.633 18.3851 27.6894 18.3682 27.7684H18.3738ZM18.5769 31.378C18.763 32.0096 19.0168 32.6244 19.3382 33.194C19.3777 33.2617 19.4736 33.2899 19.5413 33.2561C19.5977 33.2166 19.6315 33.1489 19.6146 33.0869V33.0474C19.2931 32.4947 19.0506 31.9081 18.8701 31.299C18.8532 31.2144 18.7686 31.1693 18.6896 31.1918C18.6107 31.2144 18.5656 31.299 18.5825 31.3723H18.5769V31.378Z" fill="#010101" stroke="#121212" stroke-width="1.46443" mask="url(#path-14-inside-2_185_3470)"/>
<path d="M15.4213 13.5264L14.7783 14.0735C14.7219 14.1186 14.6543 14.1525 14.5809 14.1581L13.7462 14.2709C13.4473 14.3104 13.3119 14.6657 13.5093 14.8913L14.0564 15.5343C14.1015 15.5907 14.1354 15.6583 14.141 15.7317L14.2538 16.5664C14.2933 16.8653 14.6486 17.0007 14.8742 16.8033L15.5172 16.2562C15.5736 16.2111 15.6413 16.1772 15.7146 16.1716L16.5493 16.0588C16.8482 16.0193 16.9836 15.664 16.7862 15.4384L16.2391 14.7954C16.194 14.739 16.1601 14.6713 16.1545 14.598L16.0417 13.7633C16.0022 13.4644 15.6469 13.329 15.4213 13.5264Z" fill="#858867"/>
<path d="M13.881 16.7281C13.819 16.7281 13.7626 16.7168 13.7005 16.6943C13.5257 16.6266 13.4129 16.4799 13.3847 16.2938L13.2719 15.4591C13.2663 15.4084 13.2437 15.3632 13.2099 15.3237L12.6628 14.6808C12.5444 14.5398 12.5105 14.3537 12.5782 14.1788C12.6459 14.004 12.7925 13.8912 12.9786 13.863L13.8134 13.7502C13.8641 13.7446 13.9092 13.722 13.9487 13.6881L14.5917 13.1411C14.7327 13.0226 14.9188 12.9888 15.0936 13.0565C15.2685 13.1241 15.3813 13.2708 15.4095 13.4513L15.5223 14.286C15.5279 14.3367 15.5505 14.3819 15.5843 14.4214L16.1314 15.0643C16.2498 15.2053 16.2837 15.3914 16.216 15.5663C16.1483 15.7411 16.0017 15.8539 15.8212 15.8821L14.9865 15.9949C14.9357 16.0005 14.8906 16.0231 14.8511 16.057L14.2082 16.604C14.1179 16.683 14.0051 16.7225 13.8867 16.7225L13.881 16.7281ZM14.7496 13.3272L14.1066 13.8743C14.0333 13.9363 13.9487 13.9758 13.8528 13.9871L13.0181 14.0999C12.9222 14.1112 12.8433 14.1732 12.8094 14.2634C12.7756 14.3537 12.7925 14.4552 12.8546 14.5285L13.4016 15.1715C13.4637 15.2448 13.5032 15.335 13.5144 15.4253L13.6272 16.26C13.6385 16.3559 13.7006 16.4348 13.7908 16.4687C13.881 16.5025 13.9769 16.4856 14.0559 16.4235L14.6988 15.8765C14.7722 15.8144 14.8624 15.7749 14.9526 15.7637L15.7874 15.6509C15.8832 15.6396 15.9622 15.5775 15.996 15.4873C16.0299 15.3971 16.013 15.2955 15.9509 15.2222L15.4038 14.5793C15.3418 14.506 15.3023 14.4157 15.291 14.3255L15.1782 13.4907C15.167 13.3949 15.1049 13.3159 15.0147 13.2821C14.9244 13.2482 14.8229 13.2652 14.7496 13.3272Z" fill="#121212"/>
<path d="M95.6708 11.7122L95.0278 12.2593C94.9714 12.3044 94.9038 12.3383 94.8305 12.3439L93.9957 12.4567C93.6968 12.4962 93.5615 12.8515 93.7589 13.0771L94.3059 13.7201C94.351 13.7765 94.3849 13.8441 94.3905 13.9175L94.5033 14.7522C94.5428 15.0511 94.8981 15.1865 95.1237 14.9891L95.7667 14.442C95.8231 14.3969 95.8908 14.363 95.9641 14.3574L96.7988 14.2446C97.0977 14.2051 97.2331 13.8498 97.0357 13.6242L96.4886 12.9812C96.4435 12.9248 96.4097 12.8571 96.404 12.7838L96.2912 11.9491C96.2517 11.6502 95.8964 11.5148 95.6708 11.7122Z" fill="#858867"/>
<path d="M94.131 14.918C94.069 14.918 94.0126 14.9068 93.9506 14.8842C93.7757 14.8165 93.6629 14.6699 93.6347 14.4838L93.5219 13.649C93.5163 13.5983 93.4937 13.5532 93.4599 13.5137L92.9128 12.8707C92.7944 12.7297 92.7605 12.5436 92.8282 12.3688C92.8959 12.1939 93.0425 12.0811 93.2286 12.0529L94.0634 11.9401C94.1141 11.9345 94.1593 11.9119 94.1987 11.8781L94.8417 11.331C94.9827 11.2126 95.1688 11.1787 95.3436 11.2464C95.5185 11.3141 95.6313 11.4607 95.6595 11.6412L95.7723 12.4759C95.7779 12.5267 95.8005 12.5718 95.8343 12.6113L96.3814 13.2542C96.4999 13.3952 96.5337 13.5814 96.466 13.7562C96.3983 13.931 96.2517 14.0438 96.0712 14.072L95.2365 14.1848C95.1857 14.1905 95.1406 14.2131 95.1011 14.2469L94.4582 14.794C94.3679 14.8729 94.2551 14.9124 94.1367 14.9124L94.131 14.918ZM94.9996 11.5171L94.3566 12.0642C94.2833 12.1262 94.1987 12.1657 94.1028 12.177L93.2681 12.2898C93.1722 12.3011 93.0933 12.3631 93.0595 12.4534C93.0256 12.5436 93.0425 12.6451 93.1046 12.7184L93.6516 13.3614C93.7137 13.4347 93.7532 13.525 93.7645 13.6152L93.8773 14.4499C93.8885 14.5458 93.9506 14.6248 94.0408 14.6586C94.131 14.6924 94.2269 14.6755 94.3059 14.6135L94.9488 14.0664C95.0222 14.0044 95.1124 13.9649 95.2026 13.9536L96.0374 13.8408C96.1332 13.8295 96.2122 13.7675 96.246 13.6772C96.2799 13.587 96.263 13.4855 96.2009 13.4122L95.6538 12.7692C95.5918 12.6959 95.5523 12.6056 95.541 12.5154L95.4283 11.6807C95.417 11.5848 95.3549 11.5058 95.2647 11.472C95.1744 11.4382 95.0729 11.4551 94.9996 11.5171Z" fill="#121212"/>
<path d="M150.095 121.397H155.408C156.26 121.397 156.909 122.158 156.773 122.999L155.645 129.953H149.859L148.731 122.999C148.595 122.158 149.244 121.397 150.095 121.397Z" fill="white" stroke="#121212" stroke-width="0.468619" stroke-linecap="round" stroke-linejoin="round"/>
<path d="M153.446 121.393L159.357 98.9968C159.357 98.9968 152.115 110.181 153.446 121.393Z" fill="white" stroke="#121212" stroke-width="0.468619" stroke-linecap="round" stroke-linejoin="round"/>
<path d="M153.521 121.323L163.667 100.5C163.667 100.5 154.395 110.065 153.521 121.323Z" fill="#121212"/>
<path d="M153.346 121.238L146.223 106.613C146.223 106.613 152.737 113.331 153.346 121.238Z" fill="white" stroke="#121212" stroke-width="0.468619" stroke-linecap="round" stroke-linejoin="round"/>
<path d="M153.344 122.858C154.636 122.819 155.668 122.633 155.025 124.951L153.344 122.858Z" fill="white"/>
<path d="M153.344 122.858C154.636 122.819 155.668 122.633 155.025 124.951" stroke="#121212" stroke-width="0.468619" stroke-linecap="round" stroke-linejoin="round"/>
<path d="M154.005 115.286C154.005 115.286 157.135 103.193 159.109 99.6007L154.005 115.286Z" fill="white"/>
<path d="M154.005 115.286C154.005 115.286 157.135 103.193 159.109 99.6007" stroke="#121212" stroke-width="0.468619" stroke-linecap="round" stroke-linejoin="round"/>
<path d="M78.377 64.5727C78.879 64.5727 79.1553 64.443 79.1553 63.8959V52.2437C79.1553 51.6966 78.879 51.5669 78.377 51.5669H76.9727C76.4707 51.5669 76.1943 51.6966 76.1943 52.2437V63.8959C76.1943 64.443 76.4707 64.5727 76.9727 64.5727H78.377Z" fill="white" stroke="#121212" stroke-width="0.43933" stroke-linecap="round" stroke-linejoin="round"/>
<path d="M79.662 51.3861V53.1119C79.662 53.7493 79.5605 53.9016 78.8837 53.9016H76.4585C75.7817 53.9016 75.6802 53.7493 75.6802 53.1119V51.3861H79.662Z" fill="white" stroke="#121212" stroke-width="0.43933" stroke-linecap="round" stroke-linejoin="round"/>
<path d="M79.662 51.3861V53.1119C79.662 53.7493 79.5605 53.9016 78.8837 53.9016H76.4585C75.7817 53.9016 75.6802 53.7493 75.6802 53.1119V51.3861H79.662Z" fill="white" stroke="#121212" stroke-width="0.43933" stroke-linecap="round" stroke-linejoin="round"/>
<path d="M87.2718 64.5692C87.7737 64.5692 88.0501 64.4339 88.0501 63.8868V52.1218C88.0501 51.569 87.7737 51.4393 87.2718 51.4393H85.8674C85.3655 51.4393 85.0891 51.5747 85.0891 52.1218V63.8868C85.0891 64.4395 85.3655 64.5692 85.8674 64.5692H87.2718Z" fill="white" stroke="#121212" stroke-width="0.43933" stroke-linecap="round" stroke-linejoin="round"/>
<path d="M88.56 51.2543V52.997C88.56 53.64 88.4585 53.7979 87.7817 53.7979H85.3564C84.6796 53.7979 84.5781 53.64 84.5781 52.997V51.2543H88.56Z" fill="white" stroke="#121212" stroke-width="0.43933" stroke-linecap="round" stroke-linejoin="round"/>
<path d="M88.56 51.2543V52.997C88.56 53.64 88.4585 53.7979 87.7817 53.7979H85.3564C84.6796 53.7979 84.5781 53.64 84.5781 52.997V51.2543H88.56Z" fill="white" stroke="#121212" stroke-width="0.43933" stroke-linecap="round" stroke-linejoin="round"/>
<path d="M96.1661 64.5692C96.668 64.5692 96.9444 64.4339 96.9444 63.8868V52.1218C96.9444 51.569 96.668 51.4393 96.1661 51.4393H94.7617C94.2598 51.4393 93.9834 51.5747 93.9834 52.1218V63.8868C93.9834 64.4395 94.2598 64.5692 94.7617 64.5692H96.1661Z" fill="white" stroke="#121212" stroke-width="0.43933" stroke-linecap="round" stroke-linejoin="round"/>
<path d="M97.4506 51.2543V52.997C97.4506 53.64 97.3491 53.7979 96.6723 53.7979H94.2471C93.5703 53.7979 93.4688 53.64 93.4688 52.997V51.2543H97.4506Z" fill="white" stroke="#121212" stroke-width="0.43933" stroke-linecap="round" stroke-linejoin="round"/>
<path d="M97.4506 51.2543V52.997C97.4506 53.64 97.3491 53.7979 96.6723 53.7979H94.2471C93.5703 53.7979 93.4688 53.64 93.4688 52.997V51.2543H97.4506Z" fill="white" stroke="#121212" stroke-width="0.43933" stroke-linecap="round" stroke-linejoin="round"/>
<path d="M74.7874 65.1626C74.4828 65.1626 74.229 64.9145 74.229 64.6043V64.2828C74.229 63.95 74.4997 63.6793 74.8325 63.6793H98.0411C98.3456 63.6793 98.5994 63.9275 98.5994 64.2377V64.6099C98.5994 64.9145 98.3513 65.1683 98.0411 65.1683H74.7817L74.7874 65.1626Z" fill="white" stroke="#121212" stroke-width="0.43933" stroke-linecap="round" stroke-linejoin="round"/>
<path d="M73.5721 51.0729C73.2958 50.5709 73.7131 50.2664 73.8993 50.0746C76.3696 47.5592 78.885 45.275 81.3215 42.7257C82.7146 41.2649 85.5402 38.2926 85.5571 38.2701C86.4031 37.3846 87.7736 37.3846 88.614 38.2701C88.9862 38.6592 89.3585 39.054 89.7307 39.4432C90.6613 40.4189 91.5919 41.4003 92.5225 42.376C93.6562 43.566 94.7898 44.7561 95.9235 45.9518C96.9612 47.0459 97.9933 48.1344 99.0367 49.2173C99.3977 49.5895 99.7079 49.849 100.069 50.2212C100.402 50.5596 100.345 51.1405 99.8996 51.18C98.9578 51.2703 98.3937 51.2533 97.5196 51.2477C95.2636 51.2477 93.0132 51.2421 90.7572 51.2477C88.1741 51.2477 85.5853 51.2477 83.0022 51.2477C80.7913 51.2477 78.5748 51.321 76.3639 51.321C75.5743 51.321 74.7453 51.4564 73.9613 51.2985C73.8147 51.2703 73.6511 51.1969 73.5778 51.0672L73.5721 51.0729Z" fill="#ECD6B1" stroke="#121212" stroke-width="0.43933" stroke-miterlimit="10"/>
<path d="M47.7312 45.8473C48.3355 41.4122 45.2301 37.3269 40.795 36.7225C36.3599 36.1181 32.2746 39.2235 31.6703 43.6586C31.0659 48.0937 34.1713 52.179 38.6064 52.7834C43.0415 53.3878 47.1268 50.2824 47.7312 45.8473Z" fill="#ECD6B1" stroke="#333333" stroke-width="0.43933" stroke-miterlimit="10"/>
<path d="M46.4335 45.6725C46.9398 41.9566 44.3379 38.5337 40.622 38.0273C36.906 37.5209 33.4831 40.1228 32.9767 43.8388C32.4703 47.5547 35.0722 50.9776 38.7882 51.484C42.5042 51.9904 45.9271 49.3885 46.4335 45.6725Z" fill="#ECD6B1" stroke="#333333" stroke-width="0.43933" stroke-miterlimit="10"/>
<path d="M37.5166 44.736V44.0649H39.9418C39.908 43.8618 39.8459 43.6757 39.75 43.5009C39.6542 43.326 39.5583 43.1794 39.4624 43.0609H37.5166V42.3898H41.8989V43.0609H40.3592C40.4325 43.1568 40.5114 43.2922 40.596 43.4614C40.675 43.6306 40.7427 43.8336 40.7878 44.0705H41.8989V44.7416H40.8216C40.8104 44.9672 40.754 45.1759 40.6637 45.3677C40.5735 45.5651 40.4438 45.7399 40.2802 45.8922C40.1166 46.0445 39.9249 46.1686 39.6993 46.2588C39.4737 46.349 39.2255 46.3998 38.9548 46.4167L40.7596 48.6276L40.0659 49.1014L38.639 47.1725C38.5205 47.0146 38.4134 46.8736 38.3118 46.7551C38.2103 46.6367 38.1201 46.5295 38.0355 46.4393L37.7704 46.1686L38.0242 45.6553C38.1201 45.6892 38.2103 45.7174 38.2949 45.7343C38.3795 45.7512 38.481 45.7625 38.6051 45.7625C39.0281 45.7625 39.3496 45.6666 39.5808 45.4692C39.8121 45.2718 39.9418 45.0349 39.97 44.7473H37.5166V44.736Z" fill="#333333"/>
<path d="M43.9354 38.4091L43.4786 39.1705C43.4786 39.1705 43.4391 39.2212 43.4109 39.2325L42.6157 39.6273C42.4972 39.6837 42.4916 39.8529 42.6044 39.9206L43.3658 40.3774C43.3658 40.3774 43.4166 40.4169 43.4278 40.4451L43.8226 41.2403C43.879 41.3588 44.0482 41.3644 44.1159 41.2516L44.5727 40.4902C44.5727 40.4902 44.6122 40.4395 44.6404 40.4282L45.4357 40.0334C45.5541 39.977 45.5597 39.8078 45.4469 39.7401L44.6855 39.2833C44.6855 39.2833 44.6348 39.2438 44.6235 39.2156L44.2287 38.4203C44.1723 38.3019 44.0031 38.2963 43.9354 38.4091Z" fill="white"/>
<path d="M33.8391 47.4382L33.5853 47.8556C33.5853 47.8556 33.5628 47.8837 33.5458 47.8894L33.1059 48.1093C33.0382 48.1432 33.0383 48.2334 33.1003 48.2729L33.5177 48.5267C33.5177 48.5267 33.5458 48.5493 33.5515 48.5662L33.7715 49.0061C33.8053 49.0738 33.8955 49.0738 33.935 49.0117L34.1888 48.5944C34.1888 48.5944 34.2114 48.5662 34.2283 48.5606L34.6682 48.3406C34.7359 48.3067 34.7359 48.2165 34.6738 48.177L34.2565 47.9232C34.2565 47.9232 34.2283 47.9007 34.2227 47.8837L34.0027 47.4438C33.9688 47.3761 33.8786 47.3761 33.8391 47.4382Z" fill="white"/>
<path d="M137.517 70.8541C138.082 66.7091 135.18 62.891 131.035 62.3262C126.89 61.7613 123.072 64.6636 122.507 68.8086C121.942 72.9536 124.845 76.7716 128.99 77.3365C133.134 77.9013 136.953 74.999 137.517 70.8541Z" fill="#ECD6B1" stroke="#121212" stroke-width="0.43933" stroke-miterlimit="10"/>
<path d="M136.299 70.6883C136.772 67.2161 134.341 64.0178 130.869 63.5447C127.397 63.0715 124.198 65.5027 123.725 68.9748C123.252 72.447 125.683 75.6453 129.155 76.1184C132.627 76.5916 135.826 74.1604 136.299 70.6883Z" fill="#ECD6B1" stroke="#121212" stroke-width="0.43933" stroke-miterlimit="10"/>
<path d="M130.478 73.3732L130.451 73.3907L130.051 72.8507L130.478 73.3732ZM130.523 68.7784H130.524C130.584 68.9076 130.638 69.0659 130.678 69.2657L130.718 69.465L130.7 69.7999C130.691 69.9614 130.652 70.113 130.587 70.2511C130.523 70.3868 130.434 70.5129 130.314 70.629C130.305 70.6378 130.294 70.6449 130.284 70.6534C130.491 70.4344 130.62 70.1655 130.646 69.8507L130.671 69.5597H130.679L130.673 69.5294L130.68 69.4542H130.66L130.603 69.13C130.576 68.9795 130.535 68.8337 130.478 68.6915C130.492 68.7186 130.508 68.7473 130.523 68.7784Z" fill="#010101" stroke="#121212" stroke-width="0.732217"/>
<path d="M134.284 64.8279L134.285 64.8298C134.322 64.9024 134.38 64.9577 134.387 64.9646C134.398 64.9753 134.407 64.9846 134.414 64.991C134.418 64.9942 134.421 64.9977 134.423 64.9998C134.424 65.0008 134.426 65.0019 134.427 65.0027L134.428 65.0037L134.669 64.7283L134.429 65.0037L134.452 65.0251L134.481 65.0417L134.86 65.2703L134.463 65.4656L134.461 65.4666C134.389 65.5028 134.333 65.5613 134.326 65.5681C134.316 65.5788 134.306 65.5885 134.3 65.5955C134.297 65.599 134.293 65.6019 134.291 65.6042C134.29 65.6054 134.289 65.6073 134.288 65.6082L134.287 65.6091L134.563 65.8503L134.287 65.6101L134.266 65.6335L134.249 65.6619L134.02 66.0408L133.825 65.6443L133.824 65.6423L133.762 65.5496C133.743 65.5264 133.727 65.5112 133.723 65.5076C133.712 65.4967 133.703 65.4867 133.696 65.4802C133.692 65.4769 133.688 65.4745 133.686 65.4724L133.682 65.4685H133.681L133.656 65.447L133.629 65.4304L133.249 65.2009L133.647 65.0066L133.649 65.0056C133.721 64.9694 133.776 64.911 133.783 64.9041C133.794 64.8933 133.803 64.8837 133.81 64.8767C133.813 64.8731 133.816 64.8693 133.819 64.8669L133.823 64.863V64.8621L133.844 64.8376L133.861 64.8103L134.089 64.4304L134.284 64.8279Z" fill="#010101" stroke="#121212" stroke-width="0.732217"/>
<path d="M124.928 72.7939L124.7 73.0791L124.705 73.083C124.674 73.1034 124.651 73.1202 124.646 73.125C124.632 73.138 124.621 73.1504 124.614 73.1582C124.606 73.1665 124.6 73.1745 124.595 73.1797C124.593 73.1822 124.591 73.1847 124.59 73.1865C124.589 73.1874 124.588 73.1888 124.588 73.1895L124.587 73.1904H124.586V73.1914L124.581 73.1963C124.561 73.1655 124.545 73.1428 124.54 73.1377C124.527 73.1237 124.514 73.1125 124.507 73.1055C124.498 73.0977 124.49 73.0913 124.485 73.0869C124.482 73.0846 124.48 73.0826 124.478 73.0811L124.475 73.0781L124.474 73.0771L124.469 73.0723C124.5 73.052 124.522 73.036 124.527 73.0312C124.541 73.0181 124.553 73.0059 124.56 72.998C124.568 72.9896 124.574 72.9818 124.579 72.9766C124.581 72.9739 124.583 72.9715 124.585 72.9697L124.588 72.9668V72.9658L124.592 72.959C124.612 72.9902 124.628 73.0129 124.634 73.0186C124.647 73.0326 124.659 73.0446 124.667 73.0518C124.675 73.0594 124.683 73.0659 124.688 73.0703C124.691 73.0725 124.693 73.0747 124.695 73.0762C124.696 73.0769 124.697 73.0776 124.698 73.0781L124.699 73.0791L124.928 72.7939Z" fill="#010101" stroke="#121212" stroke-width="0.732217"/>
<path d="M138.804 49.1464L138.307 49.6427L141.877 53.2128C141.968 53.2974 142.064 53.3594 142.165 53.4046C142.267 53.444 142.379 53.4666 142.492 53.4666C142.605 53.4666 142.718 53.444 142.819 53.4046C142.921 53.3651 143.017 53.303 143.107 53.2128L146.316 50.0036C146.406 49.9134 146.463 49.8175 146.508 49.716C146.547 49.6145 146.57 49.5017 146.57 49.3889C146.57 49.2761 146.547 49.1633 146.508 49.0618C146.468 48.9602 146.406 48.8644 146.316 48.7741L138.928 41.3914C138.843 41.3011 138.747 41.2391 138.64 41.1996C138.539 41.1601 138.426 41.1376 138.313 41.1376C138.2 41.1376 138.087 41.1601 137.986 41.1996C137.884 41.2391 137.788 41.3011 137.698 41.3914L136.773 42.3163L138.804 44.3467C139.131 44.6739 139.385 45.063 139.548 45.4691C139.712 45.8808 139.796 46.3095 139.796 46.7437C139.796 47.178 139.712 47.6123 139.548 48.0184C139.385 48.4301 139.131 48.8136 138.804 49.1407V49.1464Z" fill="white" stroke="#121212" stroke-width="0.468619" stroke-miterlimit="10"/>
<path d="M129.632 38.744C129.542 38.6538 129.446 38.5974 129.344 38.5523C129.243 38.5128 129.13 38.4902 129.017 38.4902C128.904 38.4902 128.792 38.5128 128.69 38.5523C128.589 38.5917 128.493 38.6538 128.402 38.744L125.413 41.7332L125.188 41.9588C125.103 42.0434 125.041 42.1393 124.996 42.2465C124.956 42.348 124.934 42.4608 124.934 42.5736C124.934 42.6864 124.956 42.7992 124.996 42.9007C125.035 43.0022 125.097 43.0981 125.188 43.1883L132.57 50.5711C132.655 50.6557 132.751 50.7178 132.858 50.7629C132.96 50.8024 133.072 50.8249 133.185 50.8249C133.298 50.8249 133.411 50.8024 133.512 50.7629C133.614 50.7178 133.71 50.6557 133.8 50.5711L134.725 49.6405L132.694 47.6101C132.367 47.283 132.114 46.8995 131.95 46.4877C131.786 46.076 131.702 45.6474 131.702 45.2131C131.702 44.7788 131.786 44.3446 131.95 43.9385C132.114 43.5268 132.367 43.1432 132.694 42.8161L133.191 42.3198L129.621 38.7497L129.632 38.744Z" fill="white" stroke="#121212" stroke-width="0.468619" stroke-miterlimit="10"/>
<path d="M134.988 44.1046L134.711 44.381L134.486 44.6066C134.401 44.6912 134.339 44.7871 134.294 44.8942C134.254 44.9957 134.232 45.1085 134.232 45.2213C134.232 45.3341 134.254 45.4469 134.294 45.5485C134.333 45.65 134.396 45.7459 134.486 45.8361L136.516 47.8665L137.012 47.3702C137.097 47.2856 137.159 47.1897 137.204 47.0825C137.244 46.981 137.266 46.8682 137.266 46.7554C137.266 46.6426 137.244 46.5298 137.204 46.4283C137.165 46.3268 137.103 46.2309 137.012 46.1407L134.982 44.1103L134.988 44.1046Z" fill="white" stroke="#121212" stroke-width="0.468619" stroke-miterlimit="10"/>
<path d="M125.192 41.9604L125.417 41.7348L128.406 38.7456C128.491 38.6554 128.587 38.599 128.694 38.5538C128.796 38.5144 128.908 38.4918 129.021 38.4918C129.134 38.4918 129.247 38.5144 129.348 38.5538C129.45 38.5933 129.546 38.6554 129.636 38.7456L133.206 42.3157L134.994 40.5278L131.424 36.9577C131.097 36.6306 130.713 36.3768 130.301 36.2132C129.89 36.0497 129.455 35.9651 129.027 35.9651C128.598 35.9651 128.158 36.0497 127.752 36.2132C127.34 36.3768 126.957 36.6306 126.63 36.9577L123.421 40.1669C123.094 40.494 122.84 40.8832 122.676 41.2892C122.513 41.701 122.428 42.1353 122.428 42.5639C122.428 42.9925 122.513 43.4325 122.676 43.8385C122.845 44.2503 123.094 44.6338 123.421 44.9609L130.803 52.3436C131.13 52.6708 131.52 52.9246 131.926 53.0881C132.337 53.2517 132.772 53.3363 133.2 53.3363C133.629 53.3363 134.069 53.2517 134.475 53.0881C134.887 52.9246 135.27 52.6708 135.597 52.3436L136.528 51.413L138.316 49.6252L138.812 49.1288C139.139 48.8017 139.393 48.4126 139.557 48.0065C139.72 47.5948 139.805 47.1605 139.805 46.7318C139.805 46.3032 139.72 45.8633 139.557 45.4572C139.393 45.0455 139.139 44.662 138.812 44.3348L136.782 42.3045L134.994 44.0923L137.024 46.1227C137.109 46.2073 137.171 46.3032 137.216 46.4104C137.256 46.5119 137.278 46.6247 137.278 46.7375C137.278 46.8503 137.256 46.9631 137.216 47.0646C137.177 47.1661 137.115 47.262 137.024 47.3522L136.528 47.8486L134.74 49.6365L133.815 50.567C133.725 50.6516 133.635 50.7137 133.527 50.7588C133.426 50.7983 133.313 50.8208 133.2 50.8208C133.088 50.8208 132.975 50.7983 132.873 50.7588C132.772 50.7193 132.676 50.6516 132.586 50.567L125.203 43.1843C125.118 43.0941 125.056 43.0038 125.011 42.8966C124.972 42.7951 124.949 42.6823 124.949 42.5695C124.949 42.4567 124.972 42.3439 125.011 42.2424C125.051 42.1409 125.113 42.045 125.203 41.9548L125.192 41.9604Z" fill="white" stroke="#121212" stroke-width="0.468619" stroke-miterlimit="10"/>
<path d="M146.311 50.0027L143.102 53.2119C143.012 53.2965 142.922 53.3585 142.815 53.4036C142.713 53.4431 142.6 53.4657 142.488 53.4657C142.375 53.4657 142.262 53.4431 142.16 53.4036C142.059 53.3642 141.963 53.3021 141.873 53.2119L138.303 49.6418L136.515 51.4296L140.085 54.9998C140.412 55.3269 140.801 55.5807 141.207 55.7442C141.619 55.9078 142.053 55.9924 142.482 55.9924C142.911 55.9924 143.35 55.9078 143.757 55.7442C144.168 55.5807 144.552 55.3269 144.879 54.9998L148.088 51.7906C148.415 51.4635 148.669 51.0743 148.833 50.6682C149.002 50.2565 149.081 49.8222 149.081 49.3936C149.081 48.965 148.996 48.525 148.833 48.119C148.669 47.7072 148.415 47.3237 148.088 46.9966L140.705 39.6138C140.378 39.2867 139.995 39.0329 139.583 38.8694C139.171 38.7058 138.737 38.6212 138.308 38.6212C137.88 38.6212 137.44 38.7058 137.034 38.8694C136.622 39.0329 136.238 39.2867 135.911 39.6138L134.981 40.5444L133.193 42.3323L132.696 42.8286C132.369 43.1558 132.116 43.5449 131.952 43.951C131.788 44.3627 131.704 44.797 131.704 45.2256C131.704 45.6543 131.788 46.0942 131.952 46.5003C132.116 46.912 132.369 47.2955 132.696 47.6226L134.727 49.653L136.515 47.8652L134.484 45.8348C134.4 45.7445 134.338 45.6543 134.293 45.5471C134.253 45.4456 134.231 45.3328 134.231 45.22C134.231 45.1072 134.253 44.9944 134.293 44.8929C134.332 44.7914 134.394 44.6955 134.484 44.6052L134.71 44.3796L134.986 44.1033L136.774 42.3154L137.699 41.3904C137.789 41.3002 137.885 41.2382 137.987 41.1987C138.088 41.1592 138.201 41.1366 138.314 41.1366C138.427 41.1366 138.54 41.1592 138.641 41.1987C138.743 41.2382 138.838 41.3002 138.929 41.3904L146.317 48.7732C146.402 48.8634 146.464 48.9537 146.509 49.0608C146.548 49.1624 146.571 49.2752 146.571 49.388C146.571 49.5008 146.548 49.6136 146.509 49.7151C146.469 49.8166 146.407 49.9125 146.317 50.0027H146.311Z" fill="white" stroke="#121212" stroke-width="0.468619" stroke-miterlimit="10"/>
<path d="M7.62036 129.951H160.808" stroke="#121212" stroke-width="0.468619" stroke-miterlimit="10"/>
<path d="M51.2122 106.266L48.928 129.638L47.3037 129.571L48.1102 104.997L51.2122 106.266Z" fill="white" stroke="#121212" stroke-width="0.43933" stroke-miterlimit="10"/>
<path d="M20.7246 105.836L22.9524 130.111L24.6388 129.981L23.8322 104.528L20.7246 105.836Z" fill="white" stroke="#121212" stroke-width="0.43933" stroke-miterlimit="10"/>
<path d="M14.3064 102.097L14.9606 127.585L16.2747 127.303L17.4817 100.885L14.3064 102.097Z" fill="white" stroke="#121212" stroke-width="0.43933" stroke-miterlimit="10"/>
<path d="M38.5342 99.1423L39.1941 124.629L40.5589 124.641L41.7151 97.9297L38.5342 99.1423Z" fill="white" stroke="#121212" stroke-width="0.43933" stroke-miterlimit="10"/>
<path d="M32.4429 79.0862V85.0138C32.4429 90.8118 37.0169 95.5155 42.6626 95.5155C48.3026 95.5155 52.8822 100.219 52.8822 106.017C52.8822 106.536 52.4649 106.953 51.946 106.953H24.9022C16.4422 106.953 9.58398 99.9034 9.58398 91.2122V78.5561C9.58398 75.0987 12.3137 72.2957 15.6752 72.2957H25.8384C29.4875 72.2957 32.4429 75.3356 32.4429 79.0862Z" fill="white" stroke="#121212" stroke-width="0.43933" stroke-miterlimit="10"/>
<path d="M17.0093 57.0203C18.0123 56.8965 19.408 57.2044 21.1558 58.7097C21.1697 58.7277 21.1888 58.752 21.2124 58.781C21.2649 58.8454 21.3412 58.9348 21.438 59.0388C21.6311 59.2462 21.9117 59.5168 22.2573 59.7605C22.9402 60.2418 23.9534 60.6675 25.0493 60.1648C25.5296 59.9451 26.1596 59.8942 26.8335 60.0144C27.5041 60.1341 28.1905 60.4187 28.7671 60.8337C29.344 61.2491 29.7965 61.7844 30.0259 62.3982C30.2526 63.0047 30.2706 63.7113 29.9438 64.5027C29.5603 65.4303 28.8804 66.1325 28.0532 66.5154L28.0483 66.5183C27.8998 66.59 27.7328 66.6578 27.5474 66.7214L27.5464 66.7224C26.8462 66.9651 26.3235 67.5811 26.1577 68.3494C25.9307 69.396 25.4026 70.822 24.23 71.5164C23.0949 72.1884 21.187 72.2626 17.9751 70.2214H17.9741C17.3818 69.8471 16.6647 69.7957 16.0415 70.0857C15.8455 70.1758 15.641 70.3328 15.4692 70.4529C15.2806 70.5847 15.0684 70.7218 14.7915 70.8367C14.2436 71.0639 13.3917 71.2278 11.936 70.9988C11.1169 70.8697 10.5567 70.3298 10.1245 69.6443C9.90889 69.3023 9.73219 68.9342 9.57471 68.5798C9.42286 68.2382 9.27688 67.8818 9.14404 67.616H9.14502C8.76872 66.8582 8.24769 66.4567 7.85791 66.2468V66.2195L7.63135 66.1257C7.35697 66.0128 7.11776 65.8276 6.94775 65.5808L6.87939 65.4714C6.64773 65.0615 6.47987 64.3674 6.99463 63.3152L7.10693 63.0994C7.47661 62.4282 7.89681 62.024 8.3208 61.7781C8.74664 61.5311 9.19972 61.4304 9.65576 61.4021C10.1176 61.3735 10.5648 61.419 10.9907 61.4558C11.1981 61.4738 11.4057 61.4901 11.5962 61.49C11.7851 61.4898 11.9824 61.4739 12.1626 61.4148H12.1636C12.7646 61.2169 13.2029 60.9799 13.5317 60.7029C13.8638 60.4231 14.0677 60.1161 14.2173 59.8054C14.3574 59.5144 14.4636 59.1825 14.5659 58.9197C14.6747 58.6403 14.7996 58.3757 15.0005 58.116C15.3007 57.7279 15.9885 57.1462 17.0093 57.0203Z" fill="#010101" stroke="#121212" stroke-width="0.732217"/>
<path d="M40.0377 84.36C37.449 85.1665 32.497 82.9274 31.651 79.1599C30.9799 76.1764 29.9365 74.6592 29.5304 74.1629C29.3386 73.8301 29.0848 73.5199 28.7464 73.2266C26.3382 71.1116 22.1646 71.7941 20.3598 72.093C19.0626 72.3073 17.6638 72.8939 16.8178 73.2943C16.3497 73.5143 15.9154 73.7963 15.5319 74.146C15.3514 74.3095 15.1597 74.5182 14.9341 74.8792C14.8326 75.0258 14.7423 75.1781 14.6634 75.3416C13.1462 78.3816 13.541 81.2185 14.2968 83.2828C14.5618 83.999 15.171 85.0706 15.6447 85.6628C19.4179 90.3666 14.9623 95.1944 15.0751 96.1138C15.4135 98.9281 21.9954 89.0186 25.5824 100.975C25.8813 101.974 32.0007 99.5711 33.3092 95.4482C33.9183 93.525 32.9088 92.5041 32.1192 89.9831C29.8237 82.6511 32.1192 87.7948 32.8636 88.0429C37.8325 89.6898 41.1544 85.7192 41.882 84.7774C41.9666 84.6646 41.6733 84.5856 42.164 84.2923L42.5983 83.3335C42.7562 82.5721 42.164 83.3899 41.4703 83.7565C41.0473 83.9821 40.5622 84.1964 40.0321 84.36H40.0377Z" fill="#ECD6B1" stroke="#121212" stroke-width="0.43933" stroke-miterlimit="10"/>
<path d="M29.7474 84.9027C29.7474 84.9027 34.8234 83.0528 36.4083 79.6688L39.2396 77.0292C39.3918 76.8882 39.6344 77.0292 39.5892 77.2323C39.5892 77.2436 38.4838 78.8228 38.6643 78.71C38.6643 78.71 39.499 80.385 38.2695 81.5469C38.2695 81.5469 37.3501 82.2801 36.7974 82.2914C36.7974 82.2914 35.19 87.576 30.8416 89.1496C30.8416 89.1496 29.6234 87.294 29.7531 84.9027H29.7474Z" fill="white" stroke="#121212" stroke-width="0.43933" stroke-miterlimit="10"/>
<mask id="path-62-inside-3_185_3470" fill="white">
<path d="M31.495 88.875L31.6755 88.9314L31.6868 88.6043L30.6772 84.6506"/>
</mask>
<path d="M31.495 88.875L31.6755 88.9314L31.6868 88.6043L30.6772 84.6506" fill="#010101"/>
<path d="M31.6755 88.9314L31.4571 89.6303L32.3742 89.9169L32.4073 88.9566L31.6755 88.9314ZM31.6868 88.6043L32.4186 88.6295L32.4222 88.5247L32.3962 88.4231L31.6868 88.6043ZM31.495 88.875L31.2766 89.5739L31.4571 89.6303L31.6755 88.9314L31.8939 88.2325L31.7134 88.1761L31.495 88.875ZM31.6755 88.9314L32.4073 88.9566L32.4186 88.6295L31.6868 88.6043L30.955 88.5791L30.9437 88.9062L31.6755 88.9314ZM31.6868 88.6043L32.3962 88.4231L31.3867 84.4695L30.6772 84.6506L29.9678 84.8318L30.9773 88.7854L31.6868 88.6043Z" fill="#121212" mask="url(#path-62-inside-3_185_3470)"/>
<path d="M36.9292 84.2467C37.6568 83.9591 41.6217 82.2953 42.9697 79.4753C42.981 79.4527 42.9922 79.4358 43.0092 79.4189L45.6148 76.9937C45.7558 76.864 45.9758 76.9937 45.9307 77.1798C45.8348 77.5915 45.6261 78.133 45.1862 78.477C45.1185 78.5278 45.1016 78.618 45.1298 78.6913C45.2877 79.0918 45.6374 80.2931 44.7124 81.1729C44.7068 81.1786 44.7012 81.1842 44.6955 81.1898C44.6053 81.2575 43.9285 81.782 43.4491 81.861C43.3814 81.8723 43.3306 81.923 43.3081 81.9851C43.0599 82.7126 41.5371 86.7847 37.9783 88.1722C37.888 88.206 37.7922 88.1722 37.7414 88.0876C37.4876 87.6476 36.7488 86.2038 36.8108 84.4216C36.8108 84.3426 36.8616 84.2749 36.9349 84.2467H36.9292Z" fill="white" stroke="#121212" stroke-width="0.43933" stroke-miterlimit="10"/>
<path d="M28.4308 69.263C28.5775 69.2404 28.679 69.105 28.6677 68.9528C28.5888 67.8755 28.7749 65.7718 28.741 65.8282C28.335 66.4204 27.0039 65.721 25.8082 65.6703C25.216 65.6477 25.013 66.0764 24.9622 66.5163C24.9397 66.708 24.731 66.8434 24.5562 66.7588C24.3813 66.6742 24.1783 66.7024 23.9132 66.9675C23.5466 67.3454 23.8342 67.8135 24.2008 68.1744C24.308 68.2816 24.3136 68.4564 24.2065 68.5692C23.665 69.1614 22.131 70.8083 21.0199 71.9702C20.9014 72.0942 20.9184 72.2916 21.0537 72.3988L23.5353 74.2826C23.6481 74.3672 23.806 74.3615 23.9076 74.2656L25.0243 73.2222C25.1258 73.1264 25.1427 72.9741 25.0694 72.8556L24.8946 72.5793C24.6802 72.2409 24.6633 71.8122 24.8438 71.4569L25.3627 70.5827C25.4586 70.4192 25.6898 70.391 25.8195 70.532C25.921 70.6391 26.0282 70.735 26.1297 70.8027C26.5132 71.0678 26.987 71.0283 27.3254 70.7068C27.7371 70.312 28.036 69.8777 28.2052 69.4491C28.2447 69.3532 28.3237 69.2799 28.4308 69.2573V69.263Z" fill="white" stroke="#121212" stroke-width="0.43933" stroke-miterlimit="10"/>
<path d="M38.0854 117.688C38.0064 117.784 36.5795 124.208 36.5795 124.208L33.8779 122.358L35.2823 117.017L38.0854 117.682V117.688Z" fill="white" stroke="#121212" stroke-width="0.43933" stroke-miterlimit="10"/>
<path d="M35.8417 122.071C36.0899 122.003 36.417 121.975 36.7498 122.11C37.2517 122.319 37.5563 122.832 37.5507 123.379C37.5337 124.744 37.421 128.511 36.6032 131.258C36.3155 132.228 35.289 132.651 34.4938 131.563C33.1966 129.775 31.8035 126.408 32.0629 122.51C32.0911 122.065 32.3449 121.659 32.7341 121.439C33.0556 121.264 33.4673 121.061 33.9072 120.926C34.3246 120.796 34.7701 120.999 34.9563 121.394L35.1255 121.749C35.2552 122.014 35.5485 122.149 35.8361 122.071H35.8417Z" fill="white" stroke="#121212" stroke-width="0.43933" stroke-linecap="round" stroke-linejoin="round"/>
<path d="M21.3586 92.741L22.3088 92.7898L22.3049 92.7859C23.4669 92.8465 24.7428 92.9141 25.845 92.9773C27.2692 93.0589 28.3737 93.1288 28.594 93.1599V93.1609C30.3908 93.4241 34.0115 93.773 37.386 94.5457C39.0708 94.9314 40.6696 95.4182 41.929 96.0408C43.1213 96.6303 43.9481 97.3116 44.302 98.0876L44.3665 98.2439C44.3908 98.3108 44.4117 98.4554 44.4016 98.7058C44.3918 98.9472 44.3545 99.2525 44.2922 99.616C44.1678 100.342 43.9457 101.272 43.6536 102.337C43.0697 104.465 42.2151 107.105 41.3333 109.682C40.4519 112.259 39.5451 114.767 38.8586 116.633C38.5155 117.565 38.2278 118.337 38.0256 118.875C37.9305 119.128 37.853 119.329 37.7991 119.471L33.7366 119.315C33.7545 116.842 33.9505 112.709 34.2063 109.142C34.3404 107.272 34.4901 105.562 34.6379 104.335C34.7121 103.719 34.7848 103.234 34.8528 102.912C34.8775 102.795 34.9007 102.709 34.9192 102.65C34.9297 102.643 34.9425 102.636 34.9534 102.627C35.0032 102.582 35.1111 102.455 35.0686 102.268C35.0349 102.12 34.9266 102.05 34.9036 102.036L34.8167 101.995L34.7356 101.975C34.6508 101.964 34.578 101.985 34.5188 102.013C34.4479 102.02 34.3442 102.029 34.2073 102.036C33.8524 102.053 33.3109 102.066 32.636 102.073C31.2865 102.087 29.4158 102.075 27.4651 102.014C25.5131 101.954 23.4867 101.844 21.8235 101.664C20.9915 101.574 20.257 101.467 19.6711 101.342C19.0703 101.213 18.6733 101.074 18.4788 100.943C18.2213 100.769 17.8669 100.386 17.5315 99.864C17.2 99.3479 16.9079 98.7284 16.7561 98.1062C16.6038 97.4814 16.6 96.8844 16.802 96.3884C16.9985 95.9062 17.4091 95.4704 18.1897 95.1902C19.0442 94.8845 19.554 94.1375 19.9739 93.613C20.4246 93.05 20.7805 92.7116 21.3586 92.741Z" fill="#010101" stroke="#121212" stroke-width="0.732217"/>
<path d="M51.9367 117.094C51.9085 117.212 53.3129 123.642 53.3129 123.642L50.0812 123.101L49.1111 117.664L51.9367 117.094Z" fill="white" stroke="#121212" stroke-width="0.43933" stroke-miterlimit="10"/>
<path d="M52.2835 122.041C52.4809 121.877 52.7629 121.714 53.1239 121.697C53.6653 121.674 54.156 122.013 54.3816 122.509C54.94 123.755 56.4176 127.218 56.835 130.055C56.9816 131.059 56.2259 131.871 55.0471 131.217C53.1182 130.14 50.4392 127.675 49.0405 124.026C48.877 123.609 48.939 123.135 49.1984 122.774C49.4128 122.481 49.706 122.12 50.0444 121.815C50.3716 121.522 50.8566 121.522 51.195 121.798L51.4996 122.046C51.7252 122.232 52.0523 122.232 52.2779 122.046L52.2835 122.041Z" fill="white" stroke="#121212" stroke-width="0.43933" stroke-linecap="round" stroke-linejoin="round"/>
<path d="M33.8955 93.0551C36.4842 93.0734 39.1321 93.1544 41.2627 93.3539C42.3286 93.4537 43.2558 93.5827 43.9775 93.7455C44.3384 93.8269 44.6409 93.9149 44.8799 94.0092C45.0625 94.0812 45.1955 94.1515 45.2871 94.2162L45.3652 94.2787C45.6742 94.5657 46.0465 95.1574 46.4609 96.0297C46.8692 96.8889 47.2996 97.9781 47.7373 99.2191C48.6124 101.701 49.509 104.763 50.3164 107.746C51.1234 110.729 51.839 113.627 52.3535 115.781C52.6108 116.857 52.8175 117.748 52.96 118.369C53.0197 118.629 53.0675 118.842 53.1035 119.001L48.918 120.172C48.8673 120.045 48.8018 119.88 48.7227 119.683C48.5196 119.176 48.2272 118.453 47.8711 117.584C47.159 115.848 46.1905 113.533 45.165 111.216C44.1404 108.901 43.0552 106.579 42.1113 104.831C41.6403 103.959 41.1986 103.219 40.8115 102.693C40.6188 102.431 40.43 102.209 40.25 102.049C40.0846 101.902 39.8624 101.749 39.6074 101.749C38.7132 101.749 34.015 101.597 29.5273 101.445C27.2863 101.369 25.101 101.292 23.4766 101.235C22.6645 101.206 21.9924 101.183 21.5234 101.166C21.4366 101.163 21.3567 101.16 21.2842 101.158L24.0615 93.2201C24.2045 93.2144 24.4065 93.2077 24.6602 93.1986C25.2009 93.1793 25.977 93.1536 26.9141 93.1293C28.7884 93.0807 31.3089 93.0368 33.8955 93.0551Z" fill="#010101" stroke="#121212" stroke-width="0.732217"/>
<path d="M100.898 80.0803H71.632C69.4048 80.0803 67.5994 81.8858 67.5994 84.1129V101.766C67.5994 103.993 69.4048 105.799 71.632 105.799H100.898C103.125 105.799 104.931 103.993 104.931 101.766V84.1129C104.931 81.8858 103.125 80.0803 100.898 80.0803Z" fill="white" stroke="#121212" stroke-width="0.43933" stroke-linecap="round" stroke-linejoin="round"/>
<path d="M99.2422 91.7777H95.1983C94.4788 91.7777 93.8955 92.361 93.8955 93.0805V97.6094C93.8955 98.329 94.4788 98.9123 95.1983 98.9123H99.2422C99.9618 98.9123 100.545 98.329 100.545 97.6094V93.0805C100.545 92.361 99.9618 91.7777 99.2422 91.7777Z" fill="#ECD6B1" stroke="#121212" stroke-width="0.43933" stroke-linecap="round" stroke-linejoin="round"/>
<path d="M73.2632 87.5973H95.0674" stroke="#121212" stroke-width="0.43933" stroke-linecap="round" stroke-linejoin="round"/>
<path d="M73.2632 92.7969H86.551" stroke="#121212" stroke-width="0.43933" stroke-linecap="round" stroke-linejoin="round"/>
<path d="M73.2632 97.999H82.3774" stroke="#121212" stroke-width="0.43933" stroke-linecap="round" stroke-linejoin="round"/>
</svg>
